<svg xmlns="http://www.w3.org/2000/svg" width="82" height="53" viewBox="0 0 82 53" fill="none">
    <path
        d="M69.3099 52.9999C66.6628 52.9999 64.5684 52.5399 63.0267 51.62C61.4849 50.7001 60.3795 49.3777 59.7105 47.6528C59.0414 45.9279 58.7069 43.8725 58.7069 41.4864V28.5068C58.7069 26.092 59.0414 24.0365 59.7105 22.3404C60.3795 20.6443 61.4849 19.3507 63.0267 18.4595C64.5684 17.5396 66.6628 17.0796 69.3099 17.0796C71.9861 17.0796 74.0951 17.5396 75.6368 18.4595C77.2077 19.3507 78.3276 20.6443 78.9966 22.3404C79.6657 24.0365 80.0002 26.092 80.0002 28.5068V41.4864C80.0002 43.8725 79.6657 45.9279 78.9966 47.6528C78.3276 49.3777 77.2077 50.7001 75.6368 51.62C74.0951 52.5399 71.9861 52.9999 69.3099 52.9999ZM69.3099 47.5234C70.1244 47.5234 70.7208 47.3222 71.0989 46.9197C71.4771 46.5173 71.7243 45.9998 71.8407 45.3674C71.9571 44.7349 72.0152 44.0881 72.0152 43.4269V26.6095C72.0152 25.9195 71.9571 25.2727 71.8407 24.669C71.7243 24.0365 71.4771 23.5191 71.0989 23.1166C70.7208 22.7141 70.1244 22.5129 69.3099 22.5129C68.5536 22.5129 67.9864 22.7141 67.6082 23.1166C67.2301 23.5191 66.9828 24.0365 66.8664 24.669C66.7501 25.2727 66.6919 25.9195 66.6919 26.6095V43.4269C66.6919 44.0881 66.7355 44.7349 66.8228 45.3674C66.9392 45.9998 67.1719 46.5173 67.521 46.9197C67.8991 47.3222 68.4954 47.5234 69.3099 47.5234Z"
        fill="black" />
    <path d="M45.4636 52.4827V23.2894H40.1403V17.5542H58.5974V23.2894H53.3177V52.4827H45.4636Z"
        fill="black" />
    <path
        d="M23.635 52.4827V17.5542H39.5177V22.815H31.4455V31.4825H37.5978V36.8296H31.4455V47.265H39.605V52.4827H23.635Z"
        fill="black" />
    <path
        d="M1.52722 52.4827V17.5542H9.33768V31.8274L15.2719 17.5542H22.9078L16.3627 33.3367L23.2132 52.4827H15.2719L10.1667 37.0452L9.33768 38.4251V52.4827H1.52722Z"
        fill="black" />
    <path d="M59.6996 14.7513V0.197754H62.9539V12.5772H66.3356V14.7513H59.6996Z" fill="black" />
    <path
        d="M50.0679 14.7513L52.8495 0.197754H56.5584L59.3037 14.7513H56.3039L55.813 11.6789H53.6495L53.1404 14.7513H50.0679ZM53.9404 9.75637H55.5039L54.7221 4.0787L53.9404 9.75637Z"
        fill="black" />
    <path d="M46.4176 14.7513V0.197754H49.672V14.7513H46.4176Z" fill="black" />
    <path d="M40.7215 14.7513V2.58741H38.5034V0.197754H46.1939V2.58741H43.994V14.7513H40.7215Z"
        fill="black" />
    <path
        d="M30.2937 14.7513V0.197754H32.5845L35.6025 7.20501V0.197754H38.2932V14.7513H36.0934L33.0754 7.20501V14.7513H30.2937Z"
        fill="black" />
    <path
        d="M23.2531 14.7513V0.197754H29.8709V2.38977H26.5074V6.0012H29.0709V8.22915H26.5074V12.5772H29.9072V14.7513H23.2531Z"
        fill="black" />
    <path
        d="M18.9139 14.9668C17.9927 14.9668 17.223 14.8051 16.6049 14.4817C15.9868 14.1583 15.5201 13.6612 15.205 12.9904C14.8898 12.3076 14.7141 11.4272 14.6777 10.3492L17.4594 9.93593C17.4715 10.5588 17.5261 11.0619 17.623 11.4452C17.7321 11.8285 17.8775 12.104 18.0594 12.2717C18.2533 12.4394 18.4836 12.5232 18.7502 12.5232C19.0896 12.5232 19.3078 12.4094 19.4047 12.1819C19.5138 11.9543 19.5684 11.7147 19.5684 11.4632C19.5684 10.8642 19.4229 10.3612 19.132 9.9539C18.8411 9.53466 18.4472 9.11543 17.9503 8.69619L16.6776 7.60018C16.1201 7.13303 15.6474 6.60599 15.2595 6.01906C14.8838 5.42014 14.6959 4.68349 14.6959 3.80907C14.6959 2.57532 15.0656 1.63503 15.8049 0.988204C16.5443 0.329401 17.5503 0 18.8229 0C19.6108 0 20.241 0.131761 20.7137 0.395282C21.1986 0.658803 21.5622 1.00617 21.8046 1.43739C22.0591 1.85662 22.2288 2.30581 22.3137 2.78494C22.4106 3.25209 22.4652 3.70127 22.4773 4.13249L19.6774 4.47387C19.6653 4.04265 19.635 3.67132 19.5865 3.35989C19.5502 3.03648 19.4653 2.79093 19.332 2.62323C19.1987 2.44356 18.9926 2.35372 18.7139 2.35372C18.4109 2.35372 18.1866 2.47949 18.0412 2.73103C17.9079 2.98258 17.8412 3.23412 17.8412 3.48566C17.8412 4.02468 17.9685 4.46788 18.223 4.81524C18.4896 5.15063 18.8351 5.50399 19.2593 5.87532L20.4774 6.93539C21.1198 7.47441 21.6591 8.0853 22.0955 8.76806C22.5439 9.45082 22.7682 10.2953 22.7682 11.3015C22.7682 11.9842 22.6106 12.6071 22.2955 13.1701C21.9803 13.7211 21.5319 14.1583 20.9501 14.4817C20.3804 14.8051 19.7017 14.9668 18.9139 14.9668Z"
        fill="black" />
    <path
        d="M10.9497 14.9668C10.0286 14.9668 9.25893 14.8051 8.64078 14.4817C8.02264 14.1583 7.556 13.6612 7.24087 12.9904C6.92573 12.3076 6.74998 11.4272 6.71362 10.3492L9.49528 9.93593C9.5074 10.5588 9.56194 11.0619 9.65891 11.4452C9.76799 11.8285 9.91344 12.104 10.0952 12.2717C10.2892 12.4394 10.5195 12.5232 10.7861 12.5232C11.1255 12.5232 11.3437 12.4094 11.4406 12.1819C11.5497 11.9543 11.6042 11.7147 11.6042 11.4632C11.6042 10.8642 11.4588 10.3612 11.1679 9.9539C10.877 9.53466 10.4831 9.11543 9.98616 8.69619L8.71351 7.60018C8.15596 7.13303 7.68326 6.60599 7.29541 6.01906C6.91967 5.42014 6.7318 4.68349 6.7318 3.80907C6.7318 2.57532 7.10148 1.63503 7.84083 0.988204C8.58018 0.329401 9.58618 0 10.8588 0C11.6467 0 12.2769 0.131761 12.7496 0.395282C13.2345 0.658803 13.5981 1.00617 13.8405 1.43739C14.095 1.85662 14.2647 2.30581 14.3495 2.78494C14.4465 3.25209 14.5011 3.70127 14.5132 4.13249L11.7133 4.47387C11.7012 4.04265 11.6709 3.67132 11.6224 3.35989C11.5861 3.03648 11.5012 2.79093 11.3679 2.62323C11.2346 2.44356 11.0285 2.35372 10.7498 2.35372C10.4467 2.35372 10.2225 2.47949 10.0771 2.73103C9.94374 2.98258 9.87708 3.23412 9.87708 3.48566C9.87708 4.02468 10.0043 4.46788 10.2589 4.81524C10.5255 5.15063 10.871 5.50399 11.2952 5.87532L12.5133 6.93539C13.1557 7.47441 13.695 8.0853 14.1314 8.76806C14.5798 9.45082 14.8041 10.2953 14.8041 11.3015C14.8041 11.9842 14.6465 12.6071 14.3314 13.1701C14.0162 13.7211 13.5678 14.1583 12.986 14.4817C12.4163 14.8051 11.7376 14.9668 10.9497 14.9668Z"
        fill="black" />
    <path
        d="M0.00012207 14.7513V0.197754H6.61792V2.38977H3.25448V6.0012H5.81797V8.22915H3.25448V12.5772H6.65428V14.7513H0.00012207Z"
        fill="black" />
</svg>