<svg width="589" height="279" viewBox="0 0 589 279" fill="none" xmlns="http://www.w3.org/2000/svg">
    <path
        d="M34.0596 25.5708C29.6374 24.2996 26.4147 22.742 24.3916 20.8979C22.3864 19.036 21.3838 16.7443 21.3838 14.0229C21.3838 10.9435 22.6102 8.4012 25.063 6.396C27.5337 4.37288 30.7384 3.36133 34.6772 3.36133C37.3628 3.36133 39.7529 3.88053 41.8477 4.91895C43.9603 5.95736 45.5895 7.38965 46.7354 9.21582C47.8991 11.042 48.481 13.0382 48.481 15.2046H43.2979C43.2979 12.8413 42.5459 10.9883 41.042 9.64551C39.5381 8.28483 37.4165 7.60449 34.6772 7.60449C32.1349 7.60449 30.1476 8.16846 28.7153 9.29639C27.3009 10.4064 26.5938 11.9551 26.5938 13.9424C26.5938 15.5358 27.2651 16.8875 28.6079 17.9976C29.9686 19.0897 32.2692 20.0923 35.5098 21.0054C38.7682 21.9185 41.3105 22.93 43.1367 24.04C44.9808 25.1322 46.3415 26.4123 47.2188 27.8804C48.1139 29.3485 48.5615 31.0762 48.5615 33.0635C48.5615 36.2324 47.3262 38.7747 44.8555 40.6904C42.3848 42.5882 39.0815 43.5371 34.9458 43.5371C32.2603 43.5371 29.7537 43.0269 27.4263 42.0063C25.0988 40.9679 23.2995 39.5535 22.0283 37.7632C20.7751 35.9728 20.1484 33.9408 20.1484 31.667H25.3315C25.3315 34.0303 26.1999 35.9012 27.9365 37.2798C29.6911 38.6405 32.0275 39.3208 34.9458 39.3208C37.6672 39.3208 39.7529 38.7658 41.2031 37.6558C42.6533 36.5457 43.3784 35.0329 43.3784 33.1172C43.3784 31.2015 42.707 29.7244 41.3643 28.686C40.0215 27.6297 37.5866 26.5913 34.0596 25.5708ZM67.7213 39.4819C69.4938 39.4819 71.0424 38.9448 72.3673 37.8706C73.6922 36.7964 74.4262 35.4536 74.5694 33.8423H79.2691C79.1796 35.5073 78.6067 37.0918 77.5504 38.5957C76.4941 40.0996 75.0797 41.2992 73.3072 42.1943C71.5527 43.0895 69.6907 43.5371 67.7213 43.5371C63.7646 43.5371 60.6135 42.2212 58.2682 39.5894C55.9407 36.9396 54.777 33.3231 54.777 28.7397V27.9072C54.777 25.0785 55.2962 22.563 56.3346 20.3608C57.373 18.1587 58.859 16.4489 60.7926 15.2314C62.7441 14.014 65.0447 13.4053 67.6944 13.4053C70.9529 13.4053 73.6563 14.381 75.8048 16.3325C77.9711 18.284 79.1259 20.8174 79.2691 23.9326H74.5694C74.4262 22.0527 73.7101 20.513 72.421 19.3135C71.1498 18.096 69.5743 17.4873 67.6944 17.4873C65.17 17.4873 63.2096 18.4004 61.8131 20.2266C60.4345 22.0348 59.7452 24.6577 59.7452 28.0952V29.0352C59.7452 32.3831 60.4345 34.9613 61.8131 36.7695C63.1917 38.5778 65.1611 39.4819 67.7213 39.4819ZM104.445 43C104.158 42.4271 103.925 41.4066 103.746 39.9385C101.437 42.3376 98.6796 43.5371 95.4748 43.5371C92.6102 43.5371 90.2559 42.7314 88.4118 41.1201C86.5856 39.4909 85.6726 37.432 85.6726 34.9434C85.6726 31.9176 86.8184 29.5723 89.1101 27.9072C91.4196 26.2243 94.6602 25.3828 98.8317 25.3828H103.666V23.1001C103.666 21.3634 103.147 19.9849 102.108 18.9644C101.07 17.9259 99.5389 17.4067 97.5158 17.4067C95.7434 17.4067 94.2574 17.8543 93.0578 18.7495C91.8583 19.6447 91.2585 20.7279 91.2585 21.999H86.2634C86.2634 20.5488 86.7736 19.1523 87.7941 17.8096C88.8326 16.4489 90.229 15.3747 91.9836 14.5869C93.7561 13.7992 95.6986 13.4053 97.8112 13.4053C101.159 13.4053 103.782 14.2467 105.68 15.9297C107.578 17.5947 108.562 19.8953 108.634 22.8315V36.2056C108.634 38.8732 108.974 40.9948 109.654 42.5703V43H104.445ZM96.1999 39.2134C97.7575 39.2134 99.2346 38.8105 100.631 38.0049C102.028 37.1992 103.039 36.1519 103.666 34.8628V28.9009H99.7717C93.6844 28.9009 90.6408 30.6823 90.6408 34.2451C90.6408 35.8027 91.16 37.0202 92.1984 37.8975C93.2369 38.7747 94.5707 39.2134 96.1999 39.2134ZM122.772 13.9424L122.933 17.5947C125.153 14.8018 128.053 13.4053 131.634 13.4053C137.775 13.4053 140.872 16.8696 140.926 23.7983V43H135.958V23.7715C135.94 21.6768 135.457 20.1281 134.508 19.1255C133.577 18.1229 132.117 17.6216 130.13 17.6216C128.519 17.6216 127.104 18.0513 125.887 18.9106C124.67 19.77 123.721 20.8979 123.04 22.2944V43H118.072V13.9424H122.772ZM171.875 34.9434H157.749L155.064 43H146.497L161.053 3.89844H168.518L183.155 43H174.588L171.875 34.9434ZM159.925 28.4175H169.7L164.786 13.7812L159.925 28.4175ZM196.138 43H188.35V1.75H196.138V43ZM217.58 43.5371C213.319 43.5371 209.846 42.2301 207.16 39.6162C204.493 37.0023 203.159 33.52 203.159 29.1694V28.4175C203.159 25.4992 203.723 22.8942 204.851 20.6025C205.979 18.293 207.572 16.5205 209.631 15.2852C211.708 14.0319 214.071 13.4053 216.721 13.4053C220.695 13.4053 223.82 14.6585 226.093 17.165C228.385 19.6715 229.531 23.2254 229.531 27.8267V30.9956H211.027C211.278 32.8934 212.03 34.4152 213.283 35.561C214.554 36.7069 216.157 37.2798 218.09 37.2798C221.08 37.2798 223.417 36.1966 225.1 34.0303L228.913 38.3003C227.749 39.9474 226.174 41.2365 224.187 42.1675C222.199 43.0806 219.997 43.5371 217.58 43.5371ZM216.694 19.6895C215.154 19.6895 213.901 20.2087 212.934 21.2471C211.985 22.2855 211.377 23.7715 211.108 25.7051H221.904V25.0874C221.868 23.3687 221.403 22.0438 220.507 21.1128C219.612 20.1639 218.341 19.6895 216.694 19.6895ZM251.94 21.2202C250.884 21.077 249.953 21.0054 249.147 21.0054C246.211 21.0054 244.286 21.999 243.373 23.9863V43H235.612V13.9424H242.944L243.158 17.4067C244.716 14.7391 246.873 13.4053 249.631 13.4053C250.49 13.4053 251.296 13.5216 252.048 13.7544L251.94 21.2202ZM267.985 6.79883V13.9424H272.953V19.6357H267.985V34.1377C267.985 35.2119 268.191 35.9818 268.602 36.4473C269.014 36.9128 269.802 37.1455 270.966 37.1455C271.825 37.1455 272.586 37.0828 273.248 36.9575V42.8389C271.727 43.3044 270.16 43.5371 268.549 43.5371C263.106 43.5371 260.331 40.7889 260.223 35.2925V19.6357H255.98V13.9424H260.223V6.79883H267.985Z"
        fill="#666666" />
    <path
        d="M285.327 5.5918H281.214V17H279.535V5.5918H275.431V4.20312H285.327V5.5918ZM289.405 4.20312L293.589 14.6445L297.772 4.20312H299.961V17H298.273V12.0166L298.432 6.6377L294.23 17H292.938L288.746 6.66406L288.913 12.0166V17H287.226V4.20312H289.405Z"
        fill="#666666" />
    <rect y="49" width="589" height="230" rx="20" fill="black" />
    <path
        d="M252.555 136H236.366V107.797H212.384V136H196.103V68.4609H212.384V95.2725H236.366V68.4609H252.555V136ZM304.946 123.383H282.634L278.738 136H261.343L286.113 68.4609H301.421L326.377 136H308.889L304.946 123.383ZM286.531 110.812H301.05L293.767 87.3867L286.531 110.812ZM387.813 113.131C387.597 117.832 386.329 121.991 384.01 125.609C381.69 129.197 378.428 131.98 374.222 133.959C370.047 135.938 365.269 136.928 359.888 136.928C351.013 136.928 344.024 134.036 338.922 128.253C333.819 122.471 331.268 114.306 331.268 103.761V100.421C331.268 93.8035 332.412 88.0207 334.7 83.0728C337.02 78.0939 340.344 74.2593 344.674 71.5688C349.003 68.8475 354.013 67.4868 359.703 67.4868C367.898 67.4868 374.485 69.6515 379.464 73.981C384.443 78.2795 387.272 84.217 387.952 91.7935H371.717C371.593 87.6805 370.557 84.7272 368.609 82.9336C366.661 81.14 363.692 80.2432 359.703 80.2432C355.652 80.2432 352.683 81.7585 350.797 84.7891C348.91 87.8197 347.921 92.6593 347.828 99.3081V104.086C347.828 111.291 348.725 116.44 350.518 119.533C352.343 122.625 355.466 124.171 359.888 124.171C363.63 124.171 366.491 123.29 368.47 121.527C370.449 119.765 371.501 116.966 371.624 113.131H387.813ZM421.325 110.858L414.645 118.188V136H398.363V68.4609H414.645V98.2412L420.304 89.6597L434.87 68.4609H455.002L432.179 98.334L455.002 136H435.705L421.325 110.858ZM503.867 107.379H478.262V123.476H508.506V136H461.98V68.4609H508.599V81.0317H478.262V95.2725H503.867V107.379ZM543.084 112.157H534.271V136H517.989V68.4609H544.569C552.578 68.4609 558.84 70.2391 563.355 73.7954C567.87 77.3517 570.128 82.377 570.128 88.8711C570.128 93.5716 569.169 97.4681 567.252 100.561C565.366 103.653 562.397 106.158 558.346 108.075L572.447 135.304V136H555.006L543.084 112.157ZM534.271 99.5864H544.569C547.661 99.5864 549.981 98.7824 551.527 97.1743C553.104 95.5353 553.893 93.2624 553.893 90.3555C553.893 87.4486 553.104 85.1756 551.527 83.5366C549.95 81.8667 547.63 81.0317 544.569 81.0317H534.271V99.5864Z"
        fill="white" />
    <path
        d="M256.013 234.618C256.013 230.912 254.632 228.024 251.871 225.955C249.161 223.885 244.367 221.743 237.489 219.529C230.612 217.316 224.99 215.174 220.623 213.104C206.416 206.414 199.313 197.222 199.313 185.527C199.313 179.703 201.07 174.578 204.584 170.15C208.148 165.674 213.168 162.209 219.644 159.754C226.119 157.251 233.398 156 241.48 156C249.361 156 256.414 157.348 262.639 160.043C268.914 162.738 273.783 166.588 277.247 171.594C280.71 176.551 282.442 182.23 282.442 188.631H256.088C256.088 184.348 254.708 181.027 251.947 178.668C249.236 176.31 245.546 175.131 240.878 175.131C236.159 175.131 232.419 176.142 229.658 178.163C226.948 180.136 225.592 182.663 225.592 185.743C225.592 188.439 227.098 190.893 230.11 193.107C233.122 195.273 238.418 197.535 245.998 199.893C253.578 202.203 259.803 204.706 264.672 207.401C276.519 213.947 282.442 222.971 282.442 234.473C282.442 243.666 278.828 250.885 271.599 256.131C264.371 261.377 254.457 264 241.857 264C232.971 264 224.915 262.484 217.686 259.452C210.507 256.372 205.086 252.184 201.421 246.89C197.807 241.548 196 235.412 196 228.481H222.505C222.505 234.112 224.011 238.275 227.023 240.971C230.085 243.618 235.03 244.941 241.857 244.941C246.224 244.941 249.663 244.051 252.172 242.27C254.733 240.441 256.013 237.89 256.013 234.618Z"
        fill="white" />
    <path
        d="M362.894 242.92H326.676L320.35 262.556H292.114L332.323 157.444H357.171L397.682 262.556H369.294L362.894 242.92ZM333.001 223.356H356.569L344.747 186.898L333.001 223.356Z"
        fill="white" />
    <path
        d="M479.413 220.684H436.795V262.556H410.365V157.444H483.705V177.008H436.795V201.193H479.413V220.684Z"
        fill="white" />
    <path
        d="M567.32 218.013H525.755V243.064H574.849V262.556H499.325V157.444H575V177.008H525.755V199.171H567.32V218.013Z"
        fill="white" />
    <path
        d="M105.999 66.5C60.3994 66.5 30.8333 77.9771 23 82.4656C22.1667 87.1204 22.9994 105.102 22.9994 149.788C22.9994 194.474 78.3327 243.548 105.999 262.5C165.199 220.208 181.999 169.737 182.999 149.788V82.4656C177.166 77.9771 151.599 66.5 105.999 66.5Z"
        fill="url(#paint0_linear)" />
    <defs>
        <linearGradient id="paint0_linear" x1="22" y1="189.686" x2="183" y2="189.686"
            gradientUnits="userSpaceOnUse">
            <stop offset="0.521228" stop-color="#ACACAC" />
            <stop offset="0.522115" stop-color="#DBDBDB" />
        </linearGradient>
    </defs>
</svg>