<svg width="770" height="279" viewBox="0 0 770 279" fill="none" xmlns="http://www.w3.org/2000/svg">
    <path fill-rule="evenodd" clip-rule="evenodd"
        d="M104.87 0.183417C65.7447 4.08309 37.613 8.78709 9.27666 16.1698L1.24017 18.2629L0.500405 23.1784C-0.698591 31.1476 0.43161 83.5613 2.04874 94.9702C10.0441 151.395 30.1823 195.968 63.8712 231.808C79.8307 248.786 100.864 264.783 119.911 274.428C131.585 280.34 135.32 280.446 145.765 275.167C205.588 244.928 247.118 187.964 261.985 115.756C266.602 93.3299 267.476 82.8754 267.476 50.054C267.476 30.0595 267.155 19.2724 266.542 18.6524C264.594 16.6831 225.021 8.1391 201.775 4.66962C177.123 0.989559 168.014 0.330728 138.374 0.0803901C121.913 -0.058787 106.836 -0.0126959 104.87 0.183417ZM170.091 15.9041C184.706 17.4287 204.081 20.393 217.89 23.2163C234.631 26.6406 249.259 30.1896 250.915 31.2307C254.075 33.2172 253.763 78.5392 250.429 101.748C240.014 174.265 201.493 231.913 143.855 261.24L133.702 266.406L123.306 261.28C93.5378 246.602 65.9288 221.181 47.9188 191.87C27.5806 158.77 15.9667 117.298 14.455 72.3765C14.0119 59.1981 15.2618 33.4811 16.4018 32.3279C17.0862 31.6365 38.4573 26.4635 52.604 23.5661C73.9322 19.1974 93.8237 16.45 117.378 14.6217C124.842 14.0415 160.577 14.9109 170.091 15.9041ZM568.797 21.6971C563.553 23.5905 561.246 25.4883 558.562 30.12C556.339 33.9574 556.036 35.4639 555.742 44.1344L555.413 53.8497H548.81H542.209V61.9835V70.1172H548.463H554.717V94.5183V118.92H565.438H576.16V94.5183V70.1172H583.754H591.348V61.9835V53.8497H583.754H576.16L576.181 50.4607C576.216 44.9225 577.722 39.9537 579.909 38.1607C581.518 36.8421 582.877 36.5891 586.208 36.9885C589.183 37.3446 590.473 37.172 590.518 36.4101C590.553 35.8118 590.863 32.2032 591.206 28.3903L591.831 21.4576L589.244 20.9344C584.616 19.9981 572.222 20.4608 568.797 21.6971ZM307.699 25.1558C307.444 26.2746 304.215 46.9135 300.525 71.0209C296.833 95.1284 293.582 115.983 293.299 117.365L292.786 119.877L304.665 119.624L316.543 119.371L320.153 94.3457L323.763 69.3201L333.536 94.5717L343.31 119.823H354.404C362.912 119.823 365.4 119.56 365.073 118.694C364.746 117.828 336.544 38.3089 332.06 25.6076L331.182 23.1223H319.672C308.468 23.1223 308.149 23.1765 307.699 25.1558ZM358.041 46.6387L349.434 70.1389L354.826 84.6323C357.791 92.6033 360.519 98.8003 360.887 98.4036C361.256 98.0059 364.072 91.6824 367.147 84.3512C370.221 77.02 372.991 71.0209 373.301 71.0209C373.612 71.0209 374.785 78.6467 375.908 87.9662C377.031 97.2865 378.374 108.267 378.895 112.367L379.841 119.823H391.8C403.744 119.823 403.759 119.821 403.299 117.79C402.856 115.834 390.324 24.994 390.324 23.7369C390.324 23.3989 384.997 23.1259 378.486 23.1296L366.648 23.1377L358.041 46.6387ZM491.186 25.5823C490.023 28.6081 460.012 119.011 460.012 119.489C460.012 119.672 465.339 119.822 471.851 119.821L483.689 119.82L486.69 111.214L489.691 102.609L504.055 102.856L518.419 103.104L521.121 111.464L523.823 119.823H535.697C542.227 119.823 547.56 119.518 547.547 119.145C547.536 118.773 540.56 97.1166 532.045 71.0209L516.564 23.5742L504.357 23.323L492.151 23.0708L491.186 25.5823ZM744.95 26.9849C734.907 33.8308 734.533 47.7187 744.195 54.9559C749.337 58.8077 758.352 58.6649 763.935 54.6432C772.855 48.2185 771.708 31.7504 761.992 26.7355C756.973 24.1454 748.942 24.2629 744.95 26.9849ZM760.655 30.4056C764.304 32.6234 766.462 36.6469 766.462 41.2298C766.462 46.3549 763.743 50.5583 758.893 52.9342C753.96 55.349 749.622 54.7074 745.373 50.9342C737.57 44.0043 740.024 32.5421 750.072 28.9804C753.909 27.6212 756.689 27.9953 760.655 30.4056ZM746.807 41.6491C746.807 50.5357 747.5 51.1385 748.593 51.1385C749.5 51.1385 750.38 50.5357 750.38 46.6198C750.38 43.228 750 42.101 751.705 42.101C752.997 42.101 754.049 44.1344 755.294 46.6198C756.864 49.753 758.101 51.1385 759.33 51.1385C760.558 51.1385 761.567 49.8534 759.14 45.8814C757.766 43.6338 756.741 41.4856 757.5 41.2298C759.533 40.5439 760 39.1337 760 37C760 35.2826 759.792 32.1598 752.997 32.1598H746.807V41.6491ZM755.294 35.6575C755.723 36.0501 755.794 38 755.294 38.5C754.698 39.0963 753.933 39.3898 752.673 39.3898C750.823 39.3898 750.38 38.9533 750.38 37.1304C750.38 35.2569 750.808 34.871 752.89 34.871C754.27 34.871 754.375 34.9778 755.294 35.6575ZM32.9483 68.0386C32.9483 97.1076 33.9267 106.881 38.7727 126.216C51.2835 176.141 83.5715 218.537 125.181 239.676L133.268 243.784L137.15 242.285C139.286 241.459 145.202 238.251 150.299 235.155C190.617 210.661 218.36 171.09 229.893 121.631C234.044 103.827 234.866 94.7994 234.866 67.0191V41.1078L229.728 41.6211C218.913 42.7011 195.718 43.8751 165.401 44.8755C128.47 46.0956 67.2001 44.5285 38.0856 41.6211L32.9483 41.1078V68.0386ZM621.966 52.035C605.611 55.5434 596.672 67.7656 596.629 86.6802C596.579 108.429 609.438 121.581 630.789 121.62C644.33 121.644 656.191 114.484 660.096 103.926C661.105 101.2 661.93 98.7813 661.93 98.5509C661.93 98.3213 657.119 98.1333 651.24 98.1333C641.483 98.1333 640.467 98.2906 639.599 99.9318C639.076 100.92 637.473 102.344 636.038 103.095C630.084 106.209 622.522 103.713 619.844 97.7501C616.588 90.4967 615.361 90.9034 640.487 90.9034H662.823L662.805 88.8699C662.757 83.339 660.752 73.7692 658.646 69.0227C655.731 62.4525 648.861 55.8524 642.575 53.5831C637.232 51.6536 627.24 50.9035 621.966 52.035ZM694.335 52.0341C683.966 54.2609 675.348 61.3328 671.683 70.6224C669.872 75.2125 669.562 77.5677 669.545 86.8555C669.525 97.3299 669.629 97.9354 672.461 103.753C675.983 110.991 681.504 116.23 688.602 119.071C692.717 120.718 695.459 121.097 703.475 121.125C714.334 121.163 718.537 119.87 725.382 114.386C728.605 111.804 734.298 102.199 734.298 99.3444C734.298 98.4026 732.015 98.1333 724.011 98.1333H713.724L711.227 100.96C709.215 103.239 707.87 103.863 704.315 104.174C697.476 104.772 692.43 100.861 690.984 93.8405L690.378 90.9034H712.785H735.192L735.177 87.0624C735.154 81.5333 732.956 71.8289 730.721 67.3996C727.875 61.7548 721.618 56.0594 715.874 53.8859C710.18 51.7313 699.872 50.8448 694.335 52.0341ZM430.529 55.0255C419.668 57.5542 410.929 64.8366 407.152 74.5031C405.562 78.5735 405.157 81.4348 405.151 88.644C405.144 96.653 405.431 98.3222 407.677 103.315C410.352 109.264 416.261 115.677 421.678 118.512C429.144 122.42 442.507 123.637 452.418 121.314L456.885 120.266L457.141 111.459C457.282 106.615 457.081 102.657 456.694 102.662C456.308 102.667 454.018 103.277 451.606 104.018C445.822 105.793 441.599 105.689 437.193 103.664C427.833 99.3642 424.648 89.0425 429.631 79.1628C433.663 71.1691 442.519 69.3345 453.892 74.1379C455.466 74.8022 455.702 73.9057 456.89 62.7796L457.431 57.7015L453.654 56.1724C448.698 54.166 436.761 53.5741 430.529 55.0255ZM511.827 82.0918C511.83 82.4642 508.171 82.7696 503.695 82.7696C497.331 82.7696 495.657 82.5103 496.011 81.5785C496.259 80.9242 497.929 75.3318 499.721 69.152C501.514 62.9731 503.217 57.1168 503.508 56.1398C503.847 54.993 505.415 59.1592 507.928 67.8885C510.071 75.3273 511.825 81.7195 511.827 82.0918ZM636.258 69.0661C637.617 69.9726 639.312 71.4945 640.026 72.4488C642.771 76.119 641.973 76.4434 630.213 76.4434C624.07 76.4434 619.045 76.2202 619.045 75.9463C619.045 75.6734 619.627 74.3115 620.338 72.9188C622.906 67.8958 631.415 65.8361 636.258 69.0661ZM709.015 69.1773C710.588 70.147 712.508 72.1786 713.282 73.6924L714.688 76.4434H703.051C696.533 76.4434 691.413 76.0765 691.413 75.6093C691.413 74.2238 696.052 69.0959 698.041 68.2817C701.271 66.9595 706.053 67.3499 709.015 69.1773ZM125.263 99.263C130.512 116.288 135 132.5 135 132.5L136 135.5L138.374 143.455L139.126 146.032L142.5 157L144 161.5C144 161.5 145 164 146.379 167.365C147.5 170.5 148.202 173.506 148.202 173.715C148.202 173.924 142.108 173.983 134.66 173.846L121.118 173.596L114.145 146.594C110.31 131.743 106.993 119.409 106.773 119.187C106.051 118.458 105.462 121.794 101.71 147.839C99.6695 162.006 97.8925 173.71 97.7611 173.848C97.6298 173.988 92.1173 173.988 85.5112 173.848L73.4998 173.596L79.9629 131.12C83.517 107.758 87.1095 84.0692 87.9467 78.4768L89.4673 68.3097H102.594H115.72L125.263 99.263ZM179.472 68.6179C179.472 68.7869 182.89 92.0213 187.067 120.249C191.243 148.477 194.661 172.129 194.661 172.81C194.661 173.797 192.226 174.048 182.659 174.048C171.995 174.048 170.609 173.872 170.214 172.467C169.969 171.596 167.868 159.193 165.544 144.902C163.22 130.612 161.072 118.92 160.772 118.92C160.472 118.92 158.462 127.359 156.308 137.672C154.153 147.986 152.139 157.149 151.83 158.034C151.476 159.049 148.83 152.131 144.661 139.294L138.053 118.947L142.311 105.151C144.652 97.5631 148.169 86.1704 150.126 79.8325L153.684 68.3097H166.578C173.67 68.3097 179.472 68.448 179.472 68.6179ZM311.255 150.859C303.25 153.537 297.76 158.139 295.218 164.304C293.147 169.325 293.386 179.773 295.68 184.568C298.343 190.131 302.316 193.234 315.107 199.737C321.342 202.907 327.556 206.691 328.918 208.144C335.23 214.884 333.412 223.884 324.805 228.504C319.868 231.153 310.075 231.124 301.912 228.437C298.739 227.393 296.035 226.647 295.904 226.781C295.771 226.914 295.402 229.875 295.082 233.36L294.499 239.697L301.302 241.319C310.61 243.535 324.295 242.965 331.721 240.05C342.593 235.782 347.958 226.942 347.273 214.422C346.605 202.221 342.083 196.828 325.247 188.156C311.643 181.149 308.574 178.302 308.574 172.692C308.574 163.148 319.803 159.015 334.504 163.149C337.933 164.113 340.999 164.622 341.318 164.279C341.637 163.936 342.173 161.165 342.509 158.121L343.121 152.588L340.142 151.449C335.79 149.784 315.695 149.374 311.255 150.859ZM461.799 151.034C444.694 155.749 433.377 167.206 429.067 184.176C427.162 191.678 427.835 205.737 430.463 213.288C435.438 227.591 446.195 237.287 461.553 241.313C467.96 242.992 485.819 243.107 492.623 241.513L497.09 240.466L497.353 233.354C497.595 226.812 497.487 226.296 496.013 226.914C484.09 231.916 471.411 232.057 461.402 227.298C441.629 217.896 436.449 189.239 451.48 172.41C460.801 161.973 477.182 158.656 491.174 164.373L496.528 166.561L497.135 160.833C497.468 157.682 497.516 154.512 497.242 153.788C496.382 151.519 490.361 150.311 478.328 149.989C469.965 149.767 465.337 150.059 461.799 151.034ZM365.308 196.19V241.829H391.218H417.127V235.503V229.177H398.365H379.603V214.717V200.257H397.025H414.447V194.382V188.508H397.025H379.603V175.856V163.203H398.365H417.127V156.877V150.551H391.218H365.308V196.19ZM507.372 178.793C507.375 194.326 507.788 209.592 508.289 212.717C510.467 226.288 516.305 235.007 526.306 239.619C531.181 241.867 533.249 242.258 541.762 242.542C549.719 242.808 552.658 242.53 557.197 241.082C566.942 237.973 573.638 231.227 577.54 220.591C579.015 216.568 579.233 212.475 579.525 183.311L579.853 150.551H572.646H565.438V179.878C565.438 211.651 564.997 215.832 560.962 222.268C557.178 228.303 552.533 230.501 543.549 230.504C535.62 230.507 532.792 229.424 528.123 224.593C522.543 218.821 522.237 216.731 521.869 181.956L521.536 150.551H514.451H507.365L507.372 178.793ZM599.389 196.071V241.829H606.537H613.684V221.947V202.064H620.917C628.623 202.064 631.97 203.282 634.25 206.914C634.916 207.975 638.766 216.163 642.808 225.11L650.158 241.377L658.277 241.638C662.743 241.78 666.397 241.675 666.397 241.403C666.397 239.423 646.043 200.322 644.014 198.405L641.466 195.998L644.774 194.99C649.179 193.647 654.426 189.142 656.595 184.842C657.879 182.297 658.351 179.565 658.336 174.762C658.312 166.647 656.431 162.06 651.307 157.623C645.314 152.435 640.128 151.36 618.375 150.8L599.389 150.312V196.071ZM679.799 196.19V241.829H706.155H732.512V235.503V229.177H713.303H694.094V214.717V200.257H711.516H728.938V194.382V188.508H711.516H694.094V175.856V163.203H713.303H732.512V156.877V150.551H706.155H679.799V196.19ZM637.936 165.704C641.93 168.215 644.436 173.169 643.78 177.257C642.502 185.222 636.36 188.744 622.842 189.264L613.684 189.617V176.315V163.012L624.182 163.335C633.199 163.612 635.139 163.946 637.936 165.704Z"
        fill="black" />
</svg>