<svg width="530" height="286" viewBox="0 0 530 286" fill="none" xmlns="http://www.w3.org/2000/svg">
    <path fill-rule="evenodd" clip-rule="evenodd"
        d="M201.631 3.7176V7.43519H197.909H194.188V11.2287V15.0221H187.278H180.367V18.7397V22.4573H176.95H173.532V29.6649V36.8725H170.039H166.546V33.4556V30.0386L163.014 30.0795L159.483 30.1201L159.442 33.4963L159.401 36.8725H146.107H132.813L130.196 35.8979C106.969 27.2491 81.3765 27.8454 58.6074 37.5661C42.9957 44.2311 29.319 54.9939 19.0932 68.6617C8.24453 83.1622 1.95386 99.6885 0.206302 118.28C-0.101563 121.555 -0.055543 131.691 0.282244 135.047C1.33509 145.505 3.64097 154.643 7.5767 163.954C17.2167 186.759 35.9578 205.483 58.7851 215.113C68.1046 219.045 77.2513 221.349 87.7187 222.401C91.0782 222.739 101.224 222.784 104.502 222.477C113.651 221.619 122.051 219.735 130.043 216.749L132.65 215.775L289.292 215.729C411.686 215.693 446.315 215.642 447.68 215.497C457.203 214.482 463.713 213.049 471.225 210.314C496.484 201.117 516.559 180.671 525.238 155.304C527.679 148.17 529.094 141.476 529.775 133.833C530.078 130.439 530.074 122.178 529.767 118.66C528.089 99.4046 520.346 81.4245 507.517 66.9926C505.465 64.6836 500.69 60.0213 498.409 58.0986C487.729 49.0967 475.443 42.8053 462.033 39.4709C458.121 38.4981 453.907 37.7756 448.895 37.2186C446.689 36.9734 438.667 36.9543 320.972 36.9133L195.403 36.8698V33.3053V29.7408H191.454H187.505V26.099V22.4573H190.847H194.188V18.7397V15.0221H197.909H201.631V18.8182V22.6144L205.39 22.5737L209.149 22.5332L209.189 18.7777L209.23 15.0221H205.43H201.631V11.3045V7.58693H205.428H209.225V3.79347V0H205.428H201.631V3.7176ZM187.505 33.3825V36.8725H184.012H180.519V33.3825V29.8925H184.012H187.505V33.3825ZM500.08 38.0105V39.1486H501.672H503.265L503.305 44.725L503.345 50.3014H504.636H505.927L505.967 44.725L506.007 39.1486H507.675H509.344V38.0105V36.8725H504.712H500.08V38.0105ZM511.052 43.5869L511.091 50.3014H512.154H513.217L513.293 45.2526L513.369 40.2038L514.501 44.5697C515.124 46.971 515.727 49.26 515.842 49.6565L516.05 50.3772H516.954C517.753 50.3772 517.872 50.3378 517.981 50.0358C518.049 49.848 518.645 47.5918 519.306 45.0219L520.508 40.3494L520.584 45.3254L520.66 50.3014H521.723H522.786L522.825 43.5869L522.865 36.8725H521.063H519.262L518.17 40.9315C517.57 43.1639 517.04 45.0929 516.993 45.2181C516.914 45.4252 516.536 44.1191 515.112 38.7313L514.621 36.8725H512.817H511.012L511.052 43.5869ZM154.699 46.5079C154.699 48.6381 154.665 49.0116 154.47 49.0116C154.344 49.0116 153.609 48.5547 152.837 47.9961C152.065 47.4376 150.415 46.3109 149.171 45.4925L146.908 44.0042H150.803H154.699V46.5079ZM173.532 47.4942V50.9842H170.039H166.546V47.4942V44.0042H170.039H173.532V47.4942ZM446.473 44.1605C466.715 45.7096 485.069 54.1789 499.227 68.5024C516.769 86.2508 525.299 110.894 522.47 135.654C520.981 148.679 516.368 161.195 509.029 172.117C505.982 176.652 502.978 180.272 498.798 184.448C493.531 189.71 488.676 193.497 482.385 197.25C480.047 198.645 474.599 201.37 472.057 202.415C463.506 205.931 454.728 207.926 445.326 208.491C443.39 208.607 399.468 208.642 294.76 208.61L146.928 208.565L149.231 207.062C161.997 198.734 172.921 187.131 180.43 173.922C196.265 146.067 197.26 112.386 183.094 83.6839C180.145 77.7084 176.254 71.5619 172.245 66.5468C171.533 65.6556 170.95 64.8986 170.95 64.8645C170.95 64.8303 171.719 64.783 172.659 64.7595L174.368 64.7165L174.409 61.7956L174.45 58.8746H177.485H180.519V51.4394V44.0042H312.474C401.605 44.0042 445.093 44.0549 446.473 44.1605ZM101.008 60.5492C112.678 61.405 123.579 65.0953 133.018 71.3851C133.858 71.9452 133.891 71.9919 133.891 72.6285V73.2898H131.537H129.183V76.7797V80.2697H126.612H124.04L122.912 82.0527C116.653 91.9406 104.876 113.948 100.461 124.008C99.8471 125.406 99.3093 126.546 99.2654 126.542C99.2217 126.537 98.3072 125.339 97.2332 123.88C92.7285 117.761 88.2302 112.48 83.4733 107.727C76.0505 100.31 69.748 95.9067 62.734 93.2354C61.375 92.7178 61.0635 92.6559 59.7723 92.6466C58.4971 92.6376 58.2216 92.6862 57.4014 93.0649C55.0069 94.1705 53.9232 96.4477 54.5187 99.122C55.0237 101.39 56.1627 103.202 59.1675 106.521C66.8652 115.021 73.2698 123.903 78.6118 133.484C81.9245 139.426 84.7823 145.554 88.8581 155.456C90.0947 158.461 91.3245 161.26 91.5909 161.678C92.4567 163.034 94.069 164.392 95.8064 165.229C98.1053 166.337 99.6091 166.674 102.223 166.664C103.903 166.658 104.599 166.589 105.535 166.333C107.747 165.73 109.51 164.551 110.631 162.923C110.882 162.559 111.542 161.072 112.099 159.618C118.267 143.505 126.553 127.109 134.867 114.563L136.928 111.452L136.928 107.545L136.929 103.637H139.738H142.548V100.072V96.5058H145.51H148.472V92.4088V88.3119H149.462H150.453L151.573 90.0189C160.518 103.647 164.057 119.575 161.748 135.806C158.77 156.738 145.698 175.05 126.709 184.89C119.232 188.765 111.135 191.112 102.299 191.966C99.494 192.237 92.8405 192.198 89.9969 191.894C76.2965 190.429 64.3873 185.412 54.0035 176.729C51.8394 174.92 48.2247 171.329 46.3371 169.113C37.4325 158.66 32.2669 146.574 30.8203 132.81C30.3531 128.363 30.4952 121.643 31.1549 116.99C34.8618 90.8432 54.047 69.3077 79.6689 62.5333C86.2778 60.7859 94.1966 60.0497 101.008 60.5492ZM211.199 92.1053V123.667H217.502H223.805V102.014C223.805 89.0757 223.861 80.4187 223.943 80.5049C224.019 80.5841 229.021 90.3282 235.06 102.158L246.04 123.667H252.997H259.954L259.916 92.1433L259.877 60.6196L253.537 60.58L247.196 60.5404L247.158 80.2266L247.119 99.9129L236.883 80.418C231.253 69.6958 226.58 60.8378 226.499 60.7334C226.383 60.5862 224.655 60.5437 218.775 60.5437H211.199V92.1053ZM352.738 64.2234C352.729 64.2442 352.197 67.1974 351.555 70.7861L350.387 77.3108L344.926 77.3944C339.533 77.4771 339.447 77.4834 338.128 77.8891C334.194 79.0988 331.11 81.6882 328.621 85.871C327.898 87.086 327.853 87.13 327.698 86.7814C327.609 86.5799 326.755 84.4008 325.801 81.9389L324.066 77.4626L320.032 77.4222L315.998 77.3817V100.524V123.667H322.824H329.65L329.71 112.097C329.766 101.092 329.784 100.456 330.083 99.0853C331.41 92.9912 334.778 88.7861 339.553 87.2625C340.983 86.8059 342.841 86.6453 346.708 86.644L350.156 86.6428L350.215 99.7302C350.279 114.124 350.261 113.816 351.245 116.628C352.802 121.075 356.262 123.669 361.634 124.415C363.131 124.623 366.474 124.623 368.365 124.415C370.947 124.131 375.075 123.152 375.194 122.795C375.247 122.637 373.731 113.619 373.636 113.524C373.606 113.495 372.945 113.629 372.167 113.822C371.032 114.104 370.33 114.175 368.625 114.179C366.706 114.183 366.437 114.15 365.86 113.842C364.981 113.373 364.487 112.802 364.184 111.907C363.953 111.225 363.922 109.917 363.876 98.8957L363.826 86.6428H368.77H373.713V82.0147V77.3867H368.777H363.841V70.7861V64.1854H358.297C355.248 64.1854 352.747 64.2026 352.738 64.2234ZM286.305 76.3438C275.622 77.3601 267.086 85.0603 264.794 95.7471C264.295 98.0732 264.289 102.521 264.782 104.962C265.777 109.894 267.922 113.891 271.488 117.454C275.88 121.843 281.383 124.273 287.52 124.535C297.094 124.943 305.91 119.738 310.205 111.14C314.351 102.841 313.323 92.8552 307.566 85.5047C303.417 80.2077 297.315 76.9341 290.459 76.3279C288.535 76.1578 288.25 76.1588 286.305 76.3438ZM397.237 76.3317C391.559 76.837 386.391 79.2704 382.286 83.3716C378.615 87.0385 376.377 91.3512 375.509 96.4299C375.07 98.9967 375.176 103.257 375.737 105.61C378.045 115.283 385.21 122.22 394.892 124.157C397.156 124.609 401.302 124.639 403.558 124.219C408.582 123.282 412.788 121.068 416.403 117.456C419.954 113.909 422.023 110.089 423.109 105.079C423.385 103.805 423.438 103.064 423.441 100.451C423.445 96.9742 423.232 95.5862 422.24 92.6135C419.235 83.6024 410.993 77.182 401.333 76.3279C399.441 76.1605 399.157 76.1608 397.237 76.3317ZM451.65 76.3417C447.11 76.8309 442.908 78.9746 439.059 82.7651L437.501 84.3001L436.914 82.778C436.591 81.941 435.999 80.3855 435.597 79.3214L434.867 77.3867H430.794H426.72V100.527V123.667H433.403H440.086V107.828V91.9894L441.522 90.6179C442.645 89.5451 443.255 89.0974 444.322 88.5642C446.037 87.7061 447.03 87.4973 448.969 87.5866C451.298 87.6938 452.982 88.5008 454.21 90.0989C455.324 91.5497 455.264 90.5226 455.269 108L455.274 123.667H462.191H469.108L469.053 107.165C468.991 88.9833 469.029 89.7437 468.022 86.7399C466.161 81.1911 462.344 77.6806 457.021 76.6235C455.263 76.2743 453.253 76.1688 451.65 76.3417ZM291.612 88.462C295.623 89.4885 298.87 92.483 300.214 96.3951C302.542 103.172 298.654 110.462 291.688 112.381C290.311 112.76 286.842 112.768 285.47 112.395C281.178 111.228 277.712 107.785 276.577 103.562C276.19 102.121 276.117 99.5325 276.422 98.0332C277.332 93.5449 280.485 90.0414 284.896 88.6176C286.911 87.9673 289.45 87.9084 291.612 88.462ZM402.528 88.472C403.931 88.8305 406.011 89.8986 407.232 90.8879C409.011 92.3287 410.686 94.9139 411.314 97.1886C411.693 98.5599 411.773 101.362 411.475 102.828C410.684 106.73 408.19 109.87 404.499 111.611C402.661 112.478 401.711 112.667 399.23 112.658C397.154 112.65 396.944 112.621 395.584 112.157C391.423 110.736 388.451 107.572 387.369 103.41C386.932 101.727 386.934 99.0283 387.374 97.3491C388.637 92.5244 392.767 88.8387 397.659 88.1718C399.021 87.9863 401.138 88.1167 402.528 88.472ZM219.959 142.941C216.576 143.328 213.657 144.67 211.777 146.705C209.319 149.365 208.571 153.73 209.903 157.642C210.392 159.079 210.938 159.963 212.088 161.181C213.81 163.004 215.99 164.212 220.236 165.696C225.939 167.689 227.602 168.636 228.53 170.423C229.053 171.431 229.115 173.506 228.658 174.718C227.791 177.017 225.285 178.284 221.592 178.29C218.066 178.296 214.268 177.148 211.384 175.205L210.581 174.665L209.92 175.696C209.556 176.263 208.888 177.301 208.436 178.003C207.984 178.705 207.563 179.364 207.5 179.467C207.38 179.666 209.225 180.949 210.668 181.67C214.239 183.453 219.546 184.436 223.603 184.066C229.098 183.564 232.732 181.465 234.514 177.762C235.346 176.032 235.652 174.646 235.652 172.604C235.652 169.945 235.076 167.833 233.866 166.058C233.181 165.054 231.835 163.728 230.746 162.984C229.452 162.101 226.693 160.892 223.444 159.785C218.393 158.063 217.136 157.366 216.293 155.82C215.919 155.135 215.836 154.783 215.782 153.669C215.722 152.411 215.745 152.282 216.209 151.341C216.622 150.502 216.842 150.253 217.602 149.763C218.78 149.002 220.109 148.704 222.316 148.704C225.072 148.705 227.616 149.223 229.864 150.238C230.397 150.479 230.897 150.676 230.975 150.676C231.18 150.676 233.546 145.672 233.43 145.485C233.287 145.254 231.328 144.376 229.941 143.922C227.391 143.087 222.709 142.627 219.959 142.941ZM296.998 142.949C293.208 143.351 289.498 145.217 287.198 147.88C285.041 150.376 283.649 153.391 282.793 157.418C282.264 159.907 282.115 165.275 282.497 168.015C283.861 177.77 288.982 183.272 297.43 184.057C302.692 184.547 307.037 183.008 310.56 179.408L311.577 178.369L309.591 176.143L307.605 173.918L306.226 175.119C304.763 176.393 303.141 177.334 301.645 177.776C300.453 178.129 297.916 178.132 296.574 177.782C291.663 176.504 289.298 171.36 289.622 162.663C289.969 153.326 293.073 148.86 299.215 148.86C301.962 148.86 304.065 149.734 306.213 151.77L306.832 152.356L308.828 150.037L310.825 147.718L309.956 146.835C307.765 144.609 304.828 143.336 300.984 142.946C299.242 142.769 298.69 142.769 296.998 142.949ZM247.651 163.498V183.604H260.105H272.56V180.797V177.989H263.523H254.486V171.692V165.395H261.248H268.01L267.969 162.702L267.927 160.008L261.206 159.969L254.486 159.929V154.468V149.007H262.991H271.496V146.2V143.393H259.574H247.651V163.498ZM322.593 143.598C322.548 143.714 322.539 150.083 322.572 157.751C322.638 172.925 322.619 172.573 323.531 175.562C324.629 179.157 326.83 181.719 329.89 182.962C334.148 184.69 340.445 184.493 344.305 182.51C345.227 182.037 345.87 181.548 346.848 180.578C347.983 179.452 348.261 179.067 348.932 177.686C349.835 175.83 350.373 173.791 350.622 171.284C350.739 170.118 350.779 165.386 350.748 156.518L350.703 143.469L347.248 143.428L343.793 143.387V157.088C343.793 165.799 343.734 171.255 343.632 172.068C343.113 176.203 341.184 178.14 337.33 178.395C334.061 178.612 331.758 177.602 330.615 175.451C329.56 173.466 329.614 174.322 329.522 158.112L329.44 143.469L326.057 143.428C323.281 143.395 322.659 143.425 322.593 143.598ZM364.411 143.479C364.348 143.543 364.297 152.597 364.297 163.6V183.604H367.714H371.131V175.106V166.609H374.298H377.465L381.313 175.106L385.161 183.604H388.872C392.334 183.604 392.577 183.586 392.505 183.338C392.463 183.192 390.606 179.156 388.379 174.368C386.152 169.581 384.35 165.649 384.375 165.632C384.4 165.615 384.797 165.444 385.256 165.253C387.673 164.25 389.687 162.448 390.702 160.379C391.65 158.446 391.853 157.49 391.84 155.001C391.831 153.365 391.758 152.615 391.52 151.739C390.282 147.181 387.319 144.809 381.535 143.744C380.607 143.573 378.453 143.501 372.422 143.442C368.078 143.398 364.473 143.415 364.411 143.479ZM404.242 163.498V183.604H416.696H429.15V180.797V177.989H420.113H411.076V171.692V165.395H417.839H424.601L424.559 162.702L424.518 160.008L417.797 159.969L411.076 159.929V154.468V149.007H419.582H428.087V146.2V143.393H416.164H404.242V163.498ZM440.643 143.494C440.587 143.55 440.542 152.597 440.542 163.6V183.604H446.761C451.414 183.604 453.418 183.546 454.717 183.376C463.061 182.284 468.006 177.481 469.577 168.945C469.861 167.404 469.91 166.596 469.91 163.423C469.91 160.282 469.86 159.433 469.587 157.955C467.929 148.97 462.404 144.243 452.749 143.547C450.4 143.378 440.801 143.336 440.643 143.494ZM380.785 149.41C382.813 149.954 384.066 151.113 384.597 152.936C384.914 154.027 384.82 156.995 384.439 157.884C383.781 159.422 382.786 160.289 381.01 160.874C380.106 161.171 379.615 161.206 375.574 161.263L371.131 161.325V155.148V148.971L375.422 149.046C378.988 149.109 379.894 149.171 380.785 149.41ZM454.581 149.387C460.401 150.6 462.723 154.622 462.713 163.468C462.707 169.574 461.752 172.871 459.291 175.288C457.4 177.145 454.457 177.987 449.844 177.989L447.528 177.989V163.475V148.961L450.452 149.048C452.252 149.102 453.839 149.232 454.581 149.387ZM203.757 253.117V259.204L202.881 258.296C201.797 257.172 200.41 256.263 199.077 255.803C197.705 255.329 194.283 255.291 192.973 255.735C189.216 257.009 186.74 259.688 185.661 263.646C185.207 265.31 185.167 269.188 185.588 270.753C186.964 275.874 190.632 279.067 195.423 279.314C198.354 279.465 200.319 278.708 202.428 276.614L203.757 275.295V277.095V278.896H206.415H209.073V262.963V247.03H206.415H203.757V253.117ZM228.818 262.963V278.896H231.475H234.133V277.196V275.497L235.083 276.461C237.197 278.609 239.423 279.471 242.451 279.315C246.446 279.109 249.93 276.664 251.585 272.904C252.922 269.868 252.996 265.432 251.763 262.261C250.846 259.901 248.875 257.646 246.758 256.534C244.011 255.092 240.408 254.967 237.89 256.226C236.761 256.791 235.572 257.737 234.799 258.685L234.133 259.501V253.266V247.03H231.475H228.818V262.963ZM304.531 247.951C303.157 248.135 301.265 248.743 300.237 249.33C299.178 249.935 297.771 251.245 297.163 252.192C296.049 253.926 295.608 256.316 296 258.498C296.703 262.423 299.012 264.139 306.064 265.979C309.2 266.796 310.182 267.13 311.197 267.725C312.491 268.483 313.077 269.615 312.909 271.035C312.706 272.752 311.399 273.916 309.184 274.351C307.931 274.598 305.478 274.451 304.026 274.042C302.251 273.543 299.898 272.25 298.445 270.976C298.153 270.719 297.89 270.536 297.861 270.568C297.229 271.268 294.839 274.167 294.783 274.301C294.684 274.538 295.27 275.058 296.785 276.074C299.177 277.68 301.812 278.701 304.626 279.114C307.45 279.528 309.733 279.369 312.049 278.595C313.685 278.048 314.572 277.548 315.649 276.566C316.734 275.576 317.403 274.533 317.917 273.028C318.262 272.018 318.322 271.59 318.318 270.171C318.31 267.492 317.646 265.903 315.875 264.326C314.357 262.975 312.256 262.11 307.265 260.784C303.017 259.655 301.6 258.744 301.334 256.97C301.019 254.877 302.395 253.256 304.886 252.787C307.356 252.321 310.53 253.175 313.524 255.11L314.571 255.786L315.887 253.937C316.611 252.919 317.244 251.983 317.293 251.855C317.475 251.381 314.346 249.51 312.138 248.773C309.82 247.999 306.698 247.662 304.531 247.951ZM444.339 252.645V255.831H442.896H441.453V258.107V260.383H442.896H444.339L444.34 266.415C444.341 272.928 444.438 274.393 444.959 275.785C445.402 276.969 446.489 278.123 447.646 278.639C449.564 279.494 452.47 279.485 454.733 278.617L455.806 278.205L455.848 275.972L455.89 273.738L455.088 274.057C454.621 274.243 453.777 274.409 453.062 274.455C451.459 274.559 450.588 274.217 450.12 273.3C449.818 272.71 449.806 272.45 449.806 266.535V260.383H452.92H456.034V258.107V255.831H452.92H449.806V252.645V249.458H447.073H444.339V252.645ZM32.1479 255.616C30.4194 256.08 28.7517 257.162 27.5599 258.593L26.8138 259.489V257.66V255.831H24.0799H21.3461V270.853V285.876H24.0799H26.8138V280.699V275.523L27.6894 276.431C28.8121 277.595 30.1448 278.451 31.5483 278.911C32.4982 279.222 32.9506 279.274 34.6358 279.269C36.4388 279.263 36.724 279.222 37.9192 278.8C42.311 277.251 45.0288 273.288 45.2943 268.046C45.3948 266.062 45.1169 264.206 44.443 262.361C43.2302 259.041 40.3019 256.389 36.99 255.612C35.7533 255.322 33.2339 255.324 32.1479 255.616ZM58.8317 255.685C55.0719 256.609 51.8614 259.361 50.458 262.863C49.139 266.155 49.3743 270.199 51.0622 273.247C52.5219 275.883 54.8038 277.742 57.8428 278.773C59.077 279.192 59.4898 279.256 61.3671 279.316C63.1572 279.373 63.7026 279.334 64.8162 279.068C69.2001 278.022 72.41 275.021 73.7695 270.695C74.0784 269.713 74.1243 269.264 74.1178 267.288C74.1109 265.155 74.0806 264.923 73.6387 263.603C72.2566 259.476 68.9141 256.497 64.6543 255.595C63.193 255.286 60.2741 255.331 58.8317 255.685ZM122.687 255.682C119.802 256.437 117.148 258.568 115.779 261.228C114.613 263.497 114.373 264.57 114.378 267.515C114.381 269.948 114.395 270.06 114.88 271.457C115.154 272.248 115.589 273.263 115.847 273.713C117.394 276.414 119.981 278.294 123.213 279.065C124.35 279.336 124.869 279.373 126.677 279.31C129.091 279.227 130.155 278.962 132.083 277.965C133.099 277.44 135.562 275.429 135.562 275.124C135.562 274.976 132.581 272.371 132.412 272.371C132.336 272.371 132.11 272.545 131.91 272.758C131.709 272.97 131.175 273.391 130.721 273.691C127.774 275.645 123.747 275.414 121.492 273.161C120.777 272.447 119.885 270.798 119.69 269.83L119.59 269.339L128.07 269.299L136.549 269.26L136.534 267.288C136.489 261.316 133.462 256.948 128.489 255.677C126.908 255.273 124.239 255.275 122.687 255.682ZM153.045 255.616C150.885 256.196 149.12 257.672 147.866 259.944L147.414 260.763L147.411 258.297L147.408 255.831H144.751H142.093V267.363V278.896H144.738H147.383L147.444 273.319C147.503 267.885 147.515 267.711 147.886 266.504C148.785 263.58 150.633 261.776 153.312 261.209C153.866 261.092 154.61 260.995 154.965 260.993L155.61 260.99V258.183V255.376L154.737 255.386C154.256 255.392 153.495 255.495 153.045 255.616ZM167.036 255.682C163.27 256.668 160.25 259.736 159.094 263.749C158.68 265.188 158.537 267.997 158.796 269.602C159.575 274.427 162.814 277.934 167.533 279.058C168.702 279.336 169.207 279.373 171.026 279.31C173.441 279.227 174.505 278.962 176.433 277.965C177.449 277.44 179.911 275.429 179.911 275.124C179.911 274.976 176.931 272.371 176.762 272.371C176.685 272.371 176.459 272.545 176.259 272.758C176.059 272.97 175.524 273.391 175.071 273.691C172.197 275.597 168.16 275.418 165.962 273.287C165.243 272.59 164.486 271.34 164.257 270.474C164.169 270.14 164.063 269.748 164.021 269.603C163.949 269.354 164.446 269.336 172.421 269.299L180.899 269.26L180.886 267.212C180.876 265.5 180.808 264.921 180.474 263.691C179.31 259.404 176.699 256.663 172.838 255.677C171.258 255.273 168.589 255.275 167.036 255.682ZM358.49 255.732C357.191 256.174 355.992 257 354.945 258.172L354.122 259.094L354.121 257.463L354.121 255.831H351.463H348.805V267.363V278.896H351.457H354.11L354.153 271.498L354.196 264.101L354.562 263.195C355.054 261.973 356.201 260.827 357.295 260.465C358.557 260.046 360.405 260.187 361.358 260.776C362.257 261.331 362.992 262.274 363.335 263.311C363.564 264.004 363.603 265.009 363.653 271.498L363.71 278.896H366.357H369.005V271.923C369.005 264.708 369.06 263.919 369.647 262.735C370.043 261.937 370.907 261.042 371.663 260.647C372.534 260.191 374.673 260.093 375.646 260.464C376.586 260.823 377.556 261.74 377.941 262.635C378.494 263.92 378.571 265.076 378.572 272.105L378.574 278.896H381.239H383.904L383.853 270.436C383.808 262.966 383.771 261.87 383.539 261.066C383.089 259.506 382.394 258.316 381.382 257.37C379.837 255.926 378.286 255.376 375.764 255.376C372.985 255.376 371.183 256.106 369.19 258.037L367.931 259.256L367.464 258.528C366.588 257.165 365.159 256.143 363.396 255.621C362.122 255.243 359.769 255.296 358.49 255.732ZM397.591 255.53C395.483 255.749 393.495 256.261 391.619 257.067L390.894 257.378L391.585 259.374C391.964 260.472 392.323 261.421 392.381 261.484C392.439 261.547 393.051 261.392 393.74 261.141C396.57 260.109 400.129 259.94 401.908 260.752C402.934 261.22 403.688 261.886 404.103 262.691C404.366 263.201 404.783 265.356 404.645 265.494C404.614 265.525 404.39 265.475 404.149 265.382C402.101 264.592 397.451 264.357 395.065 264.924C391.754 265.71 389.791 267.483 389.131 270.282C387.938 275.336 391.501 279.351 397.179 279.351C399.644 279.351 401.798 278.589 403.621 277.074L404.545 276.305V277.6V278.896H407.211H409.876L409.825 270.816C409.779 263.656 409.743 262.632 409.507 261.83C408.318 257.789 405.319 255.702 400.369 255.47C399.533 255.431 398.283 255.457 397.591 255.53ZM426.584 255.616C425.248 255.975 424.289 256.581 422.961 257.906L421.708 259.157V257.494V255.831H419.05H416.392V267.363V278.896H419.041H421.69L421.739 271.574C421.788 264.375 421.794 264.239 422.133 263.396C422.575 262.298 423.511 261.239 424.499 260.718C425.208 260.344 425.426 260.308 426.948 260.308C428.373 260.308 428.708 260.356 429.226 260.636C430.064 261.089 430.897 261.989 431.279 262.856C431.772 263.972 431.879 265.687 431.882 272.561L431.884 278.896H434.542H437.2V271.177C437.2 264.937 437.156 263.2 436.968 262.11C436.393 258.78 434.321 256.382 431.346 255.608C430.222 255.316 427.687 255.32 426.584 255.616ZM467.88 255.686C463.987 256.69 460.923 259.885 459.811 264.101C459.38 265.736 459.342 268.618 459.729 270.283C460.782 274.803 463.867 277.956 468.327 279.068C470.074 279.503 473.47 279.418 475.095 278.898C477.115 278.251 478.81 277.193 480.13 275.755L480.761 275.068L479.253 273.72C478.424 272.978 477.712 272.371 477.671 272.371C477.63 272.371 477.205 272.689 476.727 273.078C474.883 274.579 472.588 275.246 470.336 274.937C468.944 274.745 467.319 273.93 466.502 273.012C465.803 272.227 465.071 270.797 464.911 269.905L464.809 269.336H473.244H481.68L481.786 268.485C481.906 267.526 481.674 265.168 481.324 263.798C480.26 259.624 477.456 256.632 473.711 255.675C472.13 255.271 469.471 255.276 467.88 255.686ZM494.991 255.673C492.509 256.328 490.894 257.275 489.178 259.079C483.357 265.201 485.595 275.577 493.383 278.578C495.06 279.224 496.308 279.4 498.619 279.318C500.334 279.257 500.796 279.183 501.942 278.786C503.688 278.179 504.732 277.539 506.139 276.213L507.294 275.123L505.716 273.533L504.138 271.944L503.134 272.772C500.551 274.904 497.664 275.35 495.032 274.022C491.554 272.268 490.222 267.49 492.125 263.59C492.668 262.477 493.998 261.16 495.143 260.601C496.003 260.181 496.161 260.156 497.956 260.156C499.789 260.156 499.894 260.174 500.842 260.641C501.383 260.908 502.287 261.506 502.851 261.972L503.876 262.818L504.836 261.79C505.364 261.225 506.092 260.436 506.456 260.036L507.116 259.309L506.521 258.694C505.098 257.221 503.243 256.19 501.084 255.673C499.426 255.276 496.496 255.276 494.991 255.673ZM89.3894 263.49C88.0111 267.79 86.8486 271.308 86.8062 271.308C86.7638 271.308 85.7104 267.826 84.4651 263.57L82.2013 255.831H79.4921C78.0022 255.831 76.7848 255.883 76.787 255.945C76.7891 256.008 78.4532 261.214 80.485 267.515L84.1791 278.971H86.5884H88.9978L91.5703 271.157L94.1426 263.342L94.4152 264.177C94.5651 264.636 95.7206 268.17 96.9831 272.029L99.2785 279.047L101.662 279.046L104.046 279.045L107.752 267.628C109.79 261.348 111.489 256.125 111.527 256.021C111.581 255.874 110.999 255.831 108.929 255.831H106.261L105.97 256.78C105.811 257.301 104.77 260.784 103.658 264.518C102.545 268.253 101.596 271.307 101.549 271.305C101.502 271.303 100.334 267.804 98.9528 263.529L96.4417 255.755L94.1685 255.714L91.8955 255.673L89.3894 263.49ZM254.835 256.021C254.877 256.125 257.042 261.31 259.644 267.544L264.376 278.876L264.121 279.379C263.123 281.35 261.5 281.954 259.346 281.156C257.944 280.637 258.022 280.589 257.125 282.537C256.684 283.497 256.319 284.366 256.315 284.469C256.297 284.967 259.018 285.853 260.94 285.976C264.394 286.195 266.675 284.894 268.297 281.78C268.635 281.131 271.038 275.113 273.636 268.406C276.235 261.698 278.396 256.125 278.439 256.021C278.499 255.873 277.897 255.831 275.726 255.831H272.936L269.994 264.249C268.376 268.879 267.01 272.641 266.958 272.608C266.906 272.576 265.429 268.789 263.675 264.193L260.485 255.837L257.621 255.834C255.389 255.832 254.774 255.873 254.835 256.021ZM320.748 256.018C320.79 256.124 322.952 261.315 325.553 267.555L330.281 278.898L330.032 279.39C329.009 281.411 327.473 281.938 325.035 281.103C324.45 280.903 323.924 280.786 323.865 280.842C323.806 280.899 323.385 281.764 322.929 282.766L322.1 284.586L322.58 284.848C323.566 285.385 325.468 285.887 326.846 285.975C330.464 286.205 332.665 284.874 334.411 281.399C334.689 280.848 341.342 263.809 344.262 256.173L344.392 255.831H341.611H338.83L335.883 264.267C333.759 270.346 332.896 272.64 332.793 272.477C332.715 272.353 331.242 268.574 329.52 264.079L326.389 255.907L323.53 255.866C321.264 255.833 320.687 255.865 320.748 256.018ZM127.951 260.216C129.459 261.001 130.595 262.498 131.088 264.349C131.485 265.839 132.089 265.694 125.461 265.694C118.767 265.694 119.383 265.865 119.912 264.155C120.551 262.092 122.022 260.513 123.867 259.91C124.076 259.842 124.93 259.805 125.765 259.828C126.999 259.861 127.409 259.934 127.951 260.216ZM172.396 260.263C173.816 260.996 174.953 262.527 175.443 264.368C175.834 265.835 176.433 265.694 169.811 265.694C163.101 265.694 163.699 265.862 164.28 264.14C164.713 262.856 165.209 262.056 166.071 261.25C167.392 260.016 168.085 259.772 170.115 259.828C171.403 259.863 171.75 259.929 172.396 260.263ZM472.6 260.009C474.588 260.696 475.795 262.348 476.45 265.277L476.544 265.694H470.614H464.685L464.776 265.277C465.331 262.72 466.782 260.774 468.676 260.047C469.532 259.719 471.699 259.698 472.6 260.009ZM34.5904 260.097C36.4611 260.488 38.275 261.954 39.1206 263.759C40.1765 266.013 40.1494 268.843 39.0508 271.081C36.2814 276.722 28.1372 275.478 26.8298 269.215C26.589 268.061 26.6378 266.233 26.9403 265.075C27.8562 261.57 31.2069 259.389 34.5904 260.097ZM198.472 260.099C202.194 260.889 204.524 264.789 203.718 268.879C203.4 270.49 202.87 271.556 201.83 272.679C199.97 274.686 197.05 275.27 194.565 274.134C192.836 273.343 191.291 271.382 190.845 269.412C190.615 268.394 190.618 266.197 190.851 265.207C191.705 261.59 195.021 259.367 198.472 260.099ZM243.323 260.587C245.777 261.752 247.195 264.214 247.195 267.312C247.195 268.907 246.981 269.924 246.386 271.146C244.85 274.305 241.008 275.602 237.824 274.036C234.011 272.161 232.782 266.685 235.312 262.845C236.176 261.532 237.825 260.399 239.335 260.079C240.538 259.824 242.147 260.029 243.323 260.587ZM64.8247 260.663C67.298 261.86 68.8853 264.509 68.8853 267.439C68.8853 270.32 67.3298 272.979 65.0109 274.063C59.4576 276.659 53.8076 271.761 55.1352 265.502C55.6452 263.097 57.2538 261.2 59.4778 260.38C60.1636 260.127 60.6008 260.083 62.0506 260.12C63.6667 260.162 63.8741 260.202 64.8247 260.663ZM402.292 268.593C402.765 268.673 403.508 268.843 403.943 268.972L404.734 269.207L404.667 270.523C404.586 272.122 404.278 272.796 403.179 273.783C401.131 275.622 396.964 275.852 395.224 274.222C394.626 273.662 394.224 272.734 394.224 271.916C394.224 269.087 397.412 267.774 402.292 268.593Z"
        fill="black" />
</svg>