<svg width="257" height="62" viewBox="0 0 257 62" fill="none" xmlns="http://www.w3.org/2000/svg">
    <path
        d="m28 59.7-1.4.7a69 69 0 0 1-6.3-3.3 39.7 39.7 0 0 1-10.6-8.3 34.2 34.2 0 0 1-8-20.6 79.3 79.3 0 0 1 0-13.3 284.6 284.6 0 0 0 13.7-6 103.7 103.7 0 0 0 11.2-7 167.2 167.2 0 0 0 11.2 7 136.3 136.3 0 0 0 13.7 6v13.4c0 4.4-.7 7.8-2 11a39.5 39.5 0 0 1-6 9.5A39.7 39.7 0 0 1 33 57a81 81 0 0 1-4.9 2.6Z"
        stroke="#5E5E5F" stroke-width="3" />
    <path
        d="M69.2 11.7H72l2.6 17.5L78 11.8h2.4l3.3 17.4L86 11.8H89L85 36h-2.5l-3.4-18-3.4 18h-2.6l-4-24.3Zm22.7 0h9.4v2.5h-6v8h4.8v2.5h-4.9v8.9h6.1V36H92V11.7Zm12.2 0h5.5c2.2 0 3.9.5 5 1.5 1 1 1.5 2.5 1.5 4.6 0 3-1.1 4.8-3.5 5.1 1.5.4 2.5 1 3.2 2 .7 1 1 2.4 1 4.2 0 2.1-.5 3.9-1.6 5-1 1.3-2.6 1.9-4.7 1.9h-6.4V11.7Zm5.4 10.1c1.4 0 2.3-.3 2.9-.9.5-.6.8-1.6.8-3.1 0-1-.2-1.9-.5-2.4s-.8-.8-1.5-1l-3-.2h-.7v7.6h2Zm.2 11.8c1 0 1.8-.2 2.3-.5.6-.3 1-.8 1.2-1.4.2-.7.3-1.5.3-2.6 0-1.6-.3-2.8-1-3.5-.6-.8-1.6-1.2-3-1.2h-2v9.2h2.2Zm15.8 2.7c-2 0-3.6-.7-4.7-2-1-1.2-1.6-3-1.7-5.1l3-.8c0 1.5.4 2.8.9 3.8s1.3 1.4 2.5 1.4c1 0 1.6-.2 2-.7a3 3 0 0 0 .7-2.1c0-1-.2-1.9-.6-2.5-.4-.7-1.1-1.4-2-2.2l-4.1-3.6a7 7 0 0 1-1.8-2.3c-.4-.9-.6-1.9-.6-3.1 0-1.8.6-3.2 1.6-4.1 1-1 2.4-1.5 4.1-1.5 2 0 3.4.5 4.4 1.5 1 1 1.6 2.6 1.8 4.8l-3 .7a7.4 7.4 0 0 0-.8-3.2c-.4-.8-1.2-1.2-2.4-1.2-.8 0-1.5.2-2 .7-.4.4-.6 1-.6 2 0 .7 0 1.3.3 1.8s.7 1 1.3 1.5l4 3.6c1.1 1 2 2 2.6 3 .6 1.1 1 2.4 1 3.8 0 1.8-.6 3.2-1.7 4.2-1 1-2.4 1.6-4.2 1.6Zm8.7-24.6h3.3V36h-3.3V11.7Zm9.9 2.5H140v-2.5h11.5v2.5h-4V36H144V14.2Zm9.7-2.5h9.4v2.5h-6v8h4.9v2.5h-4.9v8.9h6V36h-9.4V11.7Zm24.8 24.6c-2 0-3.6-.7-4.7-2-1-1.2-1.6-3-1.7-5.1l3-.8c0 1.5.4 2.8.9 3.8s1.3 1.4 2.5 1.4c.9 0 1.6-.2 2-.7a3 3 0 0 0 .7-2.1c0-1-.2-1.9-.6-2.5-.5-.7-1.1-1.4-2-2.2l-4.1-3.6a7 7 0 0 1-1.8-2.3c-.4-.9-.6-1.9-.6-3.1 0-1.8.5-3.2 1.6-4.1 1-1 2.4-1.5 4.1-1.5 2 0 3.4.5 4.4 1.5 1 1 1.5 2.6 1.7 4.8l-2.8.7a7.4 7.4 0 0 0-.9-3.2c-.4-.8-1.2-1.2-2.4-1.2-.8 0-1.5.2-2 .7-.4.4-.6 1-.6 2 0 .7 0 1.3.3 1.8l1.2 1.5 4.2 3.6c1 1 1.9 2 2.5 3 .6 1.1 1 2.4 1 3.8 0 1.8-.6 3.2-1.7 4.2-1 1-2.5 1.6-4.2 1.6Zm8.5-24.6h9.4v2.5h-6v8h4.8v2.5h-4.8v8.9h6V36h-9.4V11.7Zm18.3 24.6c-2.4 0-4.1-.7-5.1-2.2-1-1.4-1.5-3.4-1.5-5.9v-8.6c0-2.6.5-4.7 1.5-6 1-1.4 2.6-2.1 5-2.1 2.3 0 3.8.6 4.8 1.8 1 1.1 1.4 2.9 1.4 5.2v1.9h-3.2v-1.7c0-1.1 0-2-.2-2.6 0-.6-.3-1-.7-1.4-.4-.4-1.1-.6-2-.6-1 0-1.6.2-2 .6-.5.4-.8 1-1 1.7l-.1 2.7v9.6c0 1.3 0 2.3.3 3 .2.7.5 1.2 1 1.4.4.4 1 .5 1.8.5.9 0 1.5-.2 2-.6.3-.4.6-.9.7-1.5l.2-2.7V27h3.2v1.8c0 2.4-.5 4.2-1.4 5.6-.9 1.2-2.5 1.9-4.7 1.9Zm15.6 0c-1.7 0-3-.4-4-1-1-.7-1.6-1.7-2-2.9-.3-1.2-.5-2.8-.5-4.6V11.7h3.3V28c0 1.8.2 3.2.6 4.2.4 1 1.3 1.4 2.6 1.4s2.2-.5 2.6-1.4c.4-1 .6-2.4.6-4.2V11.7h3.2v16.1c0 1.8-.1 3.4-.5 4.6-.4 1.2-1 2.2-2 2.9-.9.6-2.2 1-4 1Zm10-24.6h4.9c2.5 0 4.3.5 5.4 1.5 1.2 1 1.7 2.7 1.7 5 0 3-1 5-3 5.6l3.5 12.2h-3.3L237 24.6h-2.6V36H231V11.7Zm4.7 10.5c1.5 0 2.5-.3 3.1-.9.7-.6 1-1.6 1-3.2 0-1-.1-1.7-.4-2.3-.2-.6-.6-1-1.1-1.3-.6-.2-1.4-.4-2.4-.4h-1.5v8h1.3Zm10.9-10.5h9.4v2.5h-6v8h4.8v2.5H250v8.9h6V36h-9.4V11.7ZM72.4 57.2c-1.2 0-2-.4-2.6-1a5 5 0 0 1-1-3l1.1-.3c.2 1 .4 1.8.7 2.3.4.6 1 .9 1.8.9 1.4 0 2-.7 2-2.1 0-.6-.1-1.2-.4-1.6a8 8 0 0 0-1.3-1.6L70 48.3c-.5-.4-.8-.8-1-1.3a4 4 0 0 1-.3-1.6c0-1 .3-1.8.8-2.3.6-.5 1.4-.8 2.5-.8 1 0 1.9.3 2.4.8.6.6 1 1.6 1 2.9l-1.1.3c-.1-1-.3-1.7-.7-2.2-.3-.5-.9-.7-1.7-.7-.6 0-1 .1-1.4.4-.4.4-.6.8-.6 1.5 0 .4 0 .8.2 1l.8 1.1 2.6 2.4c.7.7 1.2 1.3 1.5 2 .4.6.6 1.3.6 2 0 1.1-.3 2-.9 2.5-.6.6-1.4.9-2.4.9Zm7.5 0a3 3 0 0 1-1.6-.4c-.4-.3-.7-.7-1-1.3a8 8 0 0 1-.2-2.4v-2.6c0-1 0-1.9.3-2.4.2-.6.5-1 .9-1.3.4-.2 1-.4 1.6-.4.7 0 1.3.2 1.7.5.4.3.6.8.8 1.4l.2 2.4v1h-4.2v1.8c0 1 .1 1.7.3 2 .3.5.7.7 1.2.7s.8-.2 1-.5c.3-.2.4-.8.4-1.5v-.7h1.3v.5c0 1-.2 1.8-.6 2.4-.5.5-1.1.8-2.1.8Zm1.4-6.3v-2.3c-.1-.4-.3-.7-.5-.9-.2-.2-.5-.3-.9-.3s-.7.1-.9.3c-.2.1-.4.4-.5.8l-.1 1.7v.7h3Zm5.7 6.3c-.8 0-1.4-.2-1.8-.5-.4-.4-.7-.9-.8-1.4l-.2-2.2v-2.5c0-1 0-1.8.2-2.4.2-.6.5-1 .9-1.3.4-.3 1-.5 1.7-.5 1 0 1.7.3 2 .9.4.5.6 1.4.6 2.5v.5h-1.2v-.5l-.1-1.5-.5-.7-.8-.2c-.4 0-.7.1-1 .3-.2.2-.3.5-.4 1l-.1 1.7v3l.1 1.6c.1.4.3.7.5.9.2.2.5.3.9.3s.7-.1.9-.3l.4-.8.1-1.4V53h1.2v.5c0 .8 0 1.4-.2 2-.1.4-.4.8-.8 1.1-.3.3-.9.5-1.6.5Zm6 0c-.6 0-1-.2-1.3-.6-.3-.4-.4-1-.4-1.7v-8.3h1.3v8c0 .6.1 1 .3 1.2.1.2.4.3.7.3.3 0 .6 0 1-.3.3-.1.6-.4.9-.7v-8.5h1.3V57h-1.3v-1.2c-.4.5-.8.8-1.2 1-.4.2-1 .4-1.4.4Zm5.9-10.6h1.3V48c.3-.5.7-.9 1.1-1.1a2.6 2.6 0 0 1 1.6-.4V48a2 2 0 0 0-.7-.1c-.8 0-1.5.4-2 1.2v8H99V46.6Zm7.8 10.6a3 3 0 0 1-1.6-.4c-.4-.3-.7-.7-1-1.3a8 8 0 0 1-.2-2.4v-2.6c0-1 0-1.9.3-2.4.2-.6.5-1 .9-1.3.4-.2 1-.4 1.6-.4.7 0 1.3.2 1.7.5.4.3.6.8.8 1.4l.2 2.4v1h-4.2v1.8c0 1 .1 1.7.4 2 .2.5.6.7 1.1.7.5 0 .8-.2 1-.5.3-.2.4-.8.4-1.5v-.7h1.3v.5c0 1-.2 1.8-.6 2.4-.4.5-1.1.8-2.1.8Zm1.4-6.3v-2.3c-.1-.4-.3-.7-.5-.9-.2-.2-.5-.3-.9-.3s-.7.1-.9.3c-.2.1-.3.4-.4.8l-.2 1.7v.7h3Zm6.6 5.1 4-6a5 5 0 0 0 .2-.3c.5-.8.9-1.4 1-2 .3-.5.4-1.1.4-1.8a3 3 0 0 0-.4-1.9c-.4-.4-.9-.6-1.5-.6-.8 0-1.4.2-1.7.8-.4.5-.5 1.3-.5 2.2v.3h-1.3v-.3c0-1.4.2-2.4.8-3.1.5-.7 1.4-1 2.6-1 1.1 0 2 .3 2.5 1 .6.6.9 1.5.9 2.7l-.3 1.5a29.7 29.7 0 0 1-1.5 2.8l-3.6 5.6h5V57h-6.6v-1Zm12.2 1.2c-1.1 0-2-.4-2.4-1-.6-.7-.8-1.7-.8-3h1.3c0 1 .2 1.7.4 2.2.3.5.9.7 1.6.7.8 0 1.3-.3 1.6-.9.3-.6.4-1.5.4-2.8a9 9 0 0 0-.2-2.1c-.1-.6-.3-1-.6-1.2-.3-.2-.7-.3-1.2-.3-.8 0-1.4.4-1.9 1.2h-1v-7.6h5.6v1.3h-4.5v5c.4-.6 1.2-1 2.1-1 1 0 1.9.4 2.3 1.2.5.8.7 1.9.7 3.3a7 7 0 0 1-.8 3.7c-.5.8-1.4 1.3-2.6 1.3Zm8.8 0c-2.2 0-3.3-1.5-3.3-4.6v-5.8c0-3 1-4.5 3.3-4.5 2.2 0 3.3 1.1 3.3 3.3v.3h-1.3c0-.9-.2-1.6-.5-2-.2-.3-.7-.5-1.4-.5-1.4 0-2.1 1-2.1 3v2.8l1-.6 1.3-.2c.8 0 1.4.1 1.9.4.4.3.8.8 1 1.5.2.6.3 1.4.3 2.4 0 3-1.2 4.5-3.5 4.5Zm0-1.1c.8 0 1.3-.3 1.6-.8.4-.4.5-1.2.5-2.3l-.1-2c-.1-.6-.3-1-.6-1.2-.3-.3-.8-.4-1.4-.4-.4 0-.7.1-1.1.3l-1 .5v2.6c0 1.1.2 2 .6 2.5.3.5.8.8 1.5.8Zm5.2-5.5h3.8v1H141v-1Zm8.8 6.6c-.7 0-1.3-.4-1.9-1v.8h-1.3V42.4h1.3v5l.9-.7c.3-.2.7-.3 1.1-.3 1 0 1.6.4 1.9 1.2.3.7.5 1.7.5 3v2.2c0 1.4-.2 2.5-.6 3.2-.3.8-1 1.2-1.9 1.2Zm-.2-1c.5 0 .9-.3 1-.9a8 8 0 0 0 .4-2.5v-2.2a7 7 0 0 0-.3-2.4c-.2-.5-.6-.7-1.2-.7-.5 0-1 .2-1.6.8v7c.5.6 1 .8 1.7.8Zm4.6-12.8h1.4v1.8H154v-1.8Zm0 3.2h1.4V57H154V46.6Zm6 10.5c-.7 0-1.2-.2-1.4-.6a3 3 0 0 1-.4-1.7v-7.3H157v-.9h1.3v-3.2h1.3v3.2h1.7v.9h-1.7v7.2c0 .5 0 1 .2 1.1 0 .2.3.3.7.3h.8v1H160Zm9.7 0c-1.2 0-2-.3-2.7-1a5 5 0 0 1-1-2.9l1.2-.3c.1 1 .4 1.8.7 2.3.4.6 1 .9 1.8.9 1.3 0 2-.7 2-2.1 0-.6-.1-1.2-.4-1.6a8 8 0 0 0-1.4-1.6l-2.5-2.5c-.5-.4-.8-.8-1-1.3a4 4 0 0 1-.4-1.6c0-1 .3-1.8 1-2.3.5-.5 1.3-.8 2.3-.8 1.1 0 2 .3 2.5.8.6.6 1 1.6 1 2.9l-1.1.3c-.1-1-.3-1.7-.7-2.2-.3-.5-.9-.7-1.7-.7-.6 0-1 .1-1.5.4-.3.4-.5.8-.5 1.5 0 .4 0 .8.2 1l.8 1.1 2.6 2.4c.6.7 1.2 1.3 1.5 2 .4.6.6 1.3.6 2 0 1.1-.3 2-1 2.5-.5.6-1.3.9-2.3.9Zm8.2 0c-1.1 0-2-.3-2.6-1a5 5 0 0 1-1-2.9l1.2-.3c.1 1 .3 1.8.7 2.3.3.6 1 .9 1.8.9 1.3 0 2-.7 2-2.1 0-.6-.1-1.2-.4-1.6a8 8 0 0 0-1.4-1.6l-2.6-2.5c-.4-.4-.8-.8-1-1.3a4 4 0 0 1-.3-1.6c0-1 .3-1.8.9-2.3.6-.5 1.4-.8 2.4-.8s2 .3 2.5.8c.6.6 1 1.6 1 2.9l-1.2.3c0-1-.2-1.7-.6-2.2-.3-.5-.9-.7-1.7-.7-.6 0-1.1.1-1.5.4-.4.4-.5.8-.5 1.5 0 .4 0 .8.2 1l.8 1.1 2.6 2.4 1.5 2c.4.6.6 1.3.6 2 0 1.1-.3 2-1 2.5-.5.6-1.4.9-2.4.9Zm5.2-14.7h1.4V56h4.1v1h-5.5V42.4Zm10.5 0h5.3v1h-3.9V49h3.2v1h-3.2v6h4v1h-5.4V42.4Zm7 4.2h1.3v1a4 4 0 0 1 1.1-.8c.5-.3 1-.4 1.4-.4.5 0 .9.2 1.2.6.2.4.4 1 .4 1.6V57h-1.3v-8c0-.6-.1-1-.3-1.2-.1-.2-.4-.3-.7-.3-.3 0-.6 0-1 .2l-.8.7V57h-1.3V46.6Zm10 10.6c-.8 0-1.4-.2-1.8-.5-.4-.4-.7-.9-.9-1.4l-.2-2.2v-2.5c0-1 .1-1.8.3-2.4.1-.6.4-1 .8-1.3.4-.3 1-.5 1.7-.5 1 0 1.7.3 2.1.9.4.5.6 1.4.6 2.5v.5H212v-.5l-.1-1.5c0-.3-.2-.5-.4-.7l-.9-.2c-.4 0-.7.1-1 .3-.1.2-.3.5-.3 1l-.2 1.7v3c0 .6 0 1.2.2 1.6 0 .4.2.7.4.9.2.2.5.3 1 .3.4 0 .7-.1.8-.3.2-.2.4-.4.4-.8l.1-1.4V53h1.3v.5l-.2 2c-.2.4-.4.8-.8 1.1-.4.3-1 .5-1.7.5Zm4.4-10.6h1.4V48c.3-.5.6-.9 1-1.1a2.6 2.6 0 0 1 1.6-.4V48a2 2 0 0 0-.7-.1c-.8 0-1.5.4-2 1.2v8h-1.3V46.6Zm5 12c.8 0 1.4-.1 1.7-.3.3-.2.4-.5.4-.8 0-.2 0-.6-.2-1l-.1-.7-2.2-9.2h1.3l1.8 8.9 1.8-8.9h1.3l-2.5 11.1c-.2.7-.5 1.2-1 1.5a4 4 0 0 1-2 .4h-.3v-1Zm7.1-12h1.3v.9c.6-.7 1.2-1 2-1 1 0 1.6.3 1.9 1 .3.8.5 1.8.5 3v2.3c0 1.4-.2 2.5-.6 3.2-.3.8-1 1.2-1.9 1.2-.7 0-1.3-.4-1.9-1v4.2h-1.3V46.6Zm3 9.5c.6 0 1-.2 1.1-.8a8 8 0 0 0 .3-2.5v-2.2a7 7 0 0 0-.3-2.4c-.2-.5-.6-.7-1.1-.7-.6 0-1.1.2-1.7.8v7c.5.6 1 .8 1.7.8Zm7 1c-.7 0-1.2-.2-1.5-.6a3 3 0 0 1-.4-1.7v-7.3h-1.2v-.9h1.2v-3.2h1.3v3.2h1.8v.9h-1.8v7.2l.2 1.1c.1.2.4.3.8.3h.7v1h-1.1Zm2.7-13.7h1.3v1.8H240v-1.8Zm0 3.2h1.3V57H240V46.6Zm6.1 10.6c-1 0-1.7-.4-2.1-1-.4-.6-.6-1.6-.6-3v-2.8c0-1.4.2-2.4.6-3 .4-.6 1-1 2.1-1 1 0 1.8.4 2.2 1 .4.6.6 1.6.6 3v2.8c0 1.4-.2 2.4-.6 3-.4.6-1.1 1-2.2 1Zm0-1c.5 0 .8-.1 1-.4.2-.2.3-.5.4-.9V48.7c0-.4-.2-.7-.4-1-.2-.2-.5-.3-1-.3-.4 0-.7.1-1 .4-.1.2-.3.5-.3.9l-.1 1.6v4.6l.5 1c.2.2.5.3 1 .3Zm4.6-9.6h1.4v1a4 4 0 0 1 1.1-.8c.4-.3.9-.4 1.4-.4.5 0 .9.2 1.1.6.3.4.5 1 .5 1.6V57h-1.4v-8c0-.6 0-1-.2-1.2-.2-.2-.4-.3-.7-.3-.3 0-.6 0-1 .2l-.8.7V57h-1.4V46.6Z"
        fill="#5E5E5F" />
    <path fill-rule="evenodd" clip-rule="evenodd"
        d="M22 19h9c.6 0 1 .4 1 1v7H21v-7c0-.6.4-1 1-1Zm-4 8.1V20a4 4 0 0 1 4-4h9a4 4 0 0 1 4 4v7.1c1.7.5 3 2 3 3.9v2h-4v1h4v2h-4v1h4v2h-4v1h4v1a4 4 0 0 1-4 4H19a4 4 0 0 1-4-4V31a4 4 0 0 1 3-3.9ZM27 38a2.5 2.5 0 1 0-1 0v2h1v-2Z"
        fill="#5E5E5F" />
</svg>