<svg width="460" height="46" viewBox="0 0 460 46" fill="none" xmlns="http://www.w3.org/2000/svg">
    <g clip-path="url(#a)">
        <path
            d="M.4 12.4v17.2h4.7v-7.9c0-.7 0-1.5.3-2.2.6-2 2.3-3.3 4.3-3.3 1.9 0 2.5 1 2.5 3.2v10.2H17v-11c0-4.4-2.1-6.6-6.2-6.6-3 0-5.1 1.5-6.2 3.6l.5.1V12.4H.4ZM33.9 12.4v.3l5.3 16.8v.1H44.3v-.1l2.9-9.6a1114.6 1114.6 0 0 0 .4-1.4v-.1h-.4a158.3 158.3 0 0 1 .4 1.5l3 9.6v.1h5v-.1l5.2-16.8v-.3H56v.1l-3 11-.4 1.5h.5a7.2 7.2 0 0 1-.2-.4l-.2-1-3.2-11v-.2h-4.1v.2l-3.2 11a257 257 0 0 1-.4 1.3v.1h.5a7 7 0 0 1-.2-.4l-.3-1-3-11v-.2H34ZM18 21c0 5.1 3.8 9 9.4 9 2.5 0 5-.8 7-2.4V27.3l-1.6-3-.2-.3-.2.2a3 3 0 0 1-.4.3 9 9 0 0 1-1 .6c-1 .6-2.2 1-3.3 1-2.7 0-4.7-1.7-5-4.3l-.1.2H34.5v-.2a31.2 31.2 0 0 0 .1-1.6c0-4.9-3-8.2-7.7-8.2-5.2 0-8.9 3.7-8.9 9ZM30 19.2h.2v-.5h-7.4l.2.3c.4-2.1 1.8-3.3 3.9-3.3 1.8 0 3 1.2 3 3.2v.3ZM62.5 24l-.2.3-1.9 3v.2l.2.1.3.3 1.3.9c1.4.8 3.1 1.2 5 1.2 4 0 6.7-2.2 6.7-5.2 0-2.5-1.4-3.9-4.2-5.1l-2.2-1c-1.3-.5-1.8-.9-1.8-1.4 0-.8.8-1.3 1.9-1.3 1.5 0 2.9.5 4 1.4l.2.2.2-.3 1.5-3 .1-.2-.1-.2-.4-.3a9.6 9.6 0 0 0-5.5-1.7c-4 0-6.7 2-6.7 5.2 0 1.4.5 2.4 1.4 3.3.7.7 1.6 1.3 2.9 1.8l2 .9c1.4.6 2 1 2 1.6 0 .8-.9 1.3-2 1.3a6.5 6.5 0 0 1-4.2-1.5 5.3 5.3 0 0 1-.3-.3l-.2-.2Z"
            fill="#21418D" />
        <path
            d="M77 29.5v.2h15.5v-3.3H80.6l.3.2c0-1.7 1-3 3.7-4.8l1.8-1.2c4-2.7 5.7-4.8 5.7-8.2 0-4-3.1-6.9-7.6-6.9a8.6 8.6 0 0 0-7.6 4.5l-.1.2.2.1 2.4 1.7.2.1.1-.2v-.1a5.8 5.8 0 0 1 1.2-1.4c1-.8 2-1.4 3.3-1.4 2.4 0 4 1.5 4 3.7 0 1.7-1 3-3.5 4.7L82.6 19c-4 2.8-5.9 5.1-5.9 8.7l.2 1.9Z"
            fill="#DD1F26" />
        <path
            d="M103.2 20.6h.3v-.4h-7.3l.2.3 7.2-10-.4-.2V20.6Zm-10.8-.3v3.1h11.1l-.3-.2v6.5h3.7v-6.5l-.2.2h2.6v-3.2h-2.6l.2.2V6h-4.2L92.4 20.4Z"
            fill="#DD1F26" />
        <path
            d="M2.3 40.4h1.1v-5h2v-1h-5v1h2v5ZM6 40.4h1.1v-1.7l.1-.7c.2-.6.7-.9 1.2-.9h.3v-1h-.2c-.7 0-1.2.4-1.4 1v-1H6v4.3ZM9.3 38.9c0 1.1.6 1.6 1.5 1.6.8 0 1.3-.5 1.6-.9v.8h1V36h-1v2c0 .7-.5 1.4-1.3 1.4-.5 0-.7-.3-.7-.9v-2.5h-1V39ZM14.2 39.9s.6.6 1.7.6c1 0 1.7-.6 1.7-1.3 0-1.4-2.1-1.3-2.1-1.9 0-.3.2-.4.5-.4.7 0 1 .4 1 .4l.5-.8S17 36 16 36s-1.6.5-1.6 1.3c0 1.3 2 1.3 2 1.9 0 .3-.2.4-.5.4-.7 0-1.2-.5-1.2-.5l-.5.8ZM18.6 38.8c0 1.5 1.2 1.6 1.9 1.6h.3v-1l-.2.1c-.3 0-.9-.1-.9-.8V37h1v-.8h-1V35h-1v1.2H18v.8h.5v1.8ZM21.4 38.3c0 1.2.9 2.2 2.3 2.2 1 0 1.8-.6 1.8-.6L25 39s-.5.5-1.2.5-1.3-.4-1.3-1.1h3V38c0-1-.7-2-2-2-1.2 0-2.1 1-2.1 2.3Zm1.1-.6c.1-.5.5-.9 1-.9s.9.3 1 1h-2ZM26.1 38.3c0 1.3.8 2.2 2 2.2 1 0 1.3-.7 1.3-.7V40.4h1v-6h-1v2.2S29 36 28 36c-1.2 0-2 .9-2 2.3Zm1 0c0-.9.6-1.4 1.2-1.4.7 0 1 .7 1 1.3 0 1-.5 1.4-1 1.4-.7 0-1.1-.5-1.1-1.3ZM33.9 40.4h1V36l.5 1 2.3 3.4h1.1v-6h-1v4.4l-.5-1-2.3-3.4h-1.1v6ZM39.9 38.3c0 1.2.9 2.2 2.3 2.2 1 0 1.8-.6 1.8-.6l-.5-.8s-.5.5-1.2.5-1.3-.4-1.3-1.1h3V38c0-1-.7-2-2-2-1.2 0-2.1 1-2.1 2.3Zm1.1-.6c.1-.5.5-.9 1-.9s.9.3 1 1h-2ZM45.8 40.4H47l.7-2.4.1-.5.1.5.8 2.4h1.2l1.3-4.3H50l-.8 2.8v.5h-.1l-.1-.5-.8-2.8h-1l-.8 2.8v.5l-.2-.5-.7-2.8h-1.2l1.4 4.3ZM51.5 39.9s.6.6 1.7.6c1 0 1.7-.6 1.7-1.3 0-1.4-2.1-1.3-2.1-1.9 0-.3.3-.4.5-.4.7 0 1.1.4 1.1.4l.4-.8s-.5-.5-1.5-.5c-.9 0-1.6.5-1.6 1.3 0 1.3 2 1.3 2 1.9 0 .3-.2.4-.5.4-.7 0-1.2-.5-1.2-.5l-.5.8ZM55.7 40.4h1.1v-1h-1v1ZM60.2 40.4h1.1V38h2v-1h-2v-1.6h2.4v-1h-3.5v6ZM64.5 35.4h1.1v-1h-1v1Zm0 5h1.1V36h-1v4.3ZM66.8 40.4H68v-1.7l.1-.7c.2-.6.7-.9 1.2-.9h.2v-1h-.2c-.6 0-1.1.4-1.3 1v-1h-1v4.3ZM69.8 39.9s.6.6 1.7.6c1 0 1.7-.6 1.7-1.3 0-1.4-2.2-1.3-2.2-1.9 0-.3.3-.4.6-.4.7 0 1 .4 1 .4l.5-.8s-.5-.5-1.5-.5-1.7.5-1.7 1.3c0 1.3 2.2 1.3 2.2 1.9 0 .3-.3.4-.6.4-.7 0-1.2-.5-1.2-.5l-.5.8ZM74.2 38.8c0 1.5 1.2 1.6 1.8 1.6h.4v-1l-.2.1c-.3 0-.9-.1-.9-.8V37h1v-.8h-1V35h-1v1.2h-.6v.8h.5v1.8Z"
            fill="#000" />
    </g>
    <g clip-path="url(#b)">
        <path d="M156.4 39.5v-33H223c.8 0 1.4.6 1.4 1.3v30.4c0 .7-.6 1.3-1.4 1.3h-66.6Z"
            fill="#C81010" />
        <path d="M156.3 39.5v-33h-29.7c-.7 0-1.3.6-1.3 1.3v30.4c0 .7.6 1.3 1.3 1.3h29.8Z"
            fill="#006FB9" />
        <path
            d="M180.6 23c0-5.8 4.2-10.6 10.3-10.6 3.7 0 6 1.3 7.7 3.1L196 19c-1.5-1.5-3-2.3-5-2.3-3.4 0-5.8 2.8-5.8 6.3v.1c0 3.5 2.4 6.4 5.7 6.4 2.3 0 3.7-.9 5.2-2.4l2.8 3a9.9 9.9 0 0 1-8.1 3.6c-5.8 0-10-4.6-10-10.5ZM209 12.5h4l8.7 20.6h-4.6l-1.9-4.6h-8.5L205 33h-4.5l8.6-20.6Zm4.7 12L211 18l-2.7 6.6h5.4ZM159.7 12.6h4l9.5 12.5V12.6h4.3V33h-3.8L164 20v13h-4.3V12.6ZM145.5 20.8c-.5-2.8-1.6-4.3-4.2-4.3-3.5 0-4.4 2.7-4.5 4.3h8.7Zm-8.7 3.5c.2 3.5 1.8 5.1 4.8 5.1 2.1 0 3.9-1.4 4.2-2.6h4.7c-1.5 4.8-4.7 6.8-9.1 6.8-6.1 0-10-4.4-10-10.6 0-6 4-10.7 10-10.7 6.7 0 9.9 5.8 9.5 12h-14Z"
            fill="#fff" />
    </g>
    <path fill="#EB2A2F" d="M240.3.1h92.3V46h-92.3z" />
    <path
        d="M254.1 17v12.7h-2.3l-4.6-7.4v7.4h-2.9V17h2.4l4.6 7.4V17h2.8ZM259.3 30c-1 0-1.7-.3-2.3-.7a4 4 0 0 1-1.6-1.7c-.3-.7-.5-1.6-.5-2.6s.2-1.9.6-2.6c.3-.8.8-1.4 1.4-1.8a4 4 0 0 1 2.3-.6c.6 0 1.2.1 1.7.3.5.2 1 .5 1.3 1 .4.4.7.9.9 1.5.2.6.3 1.3.3 2.1v.8h-7.5v-1.8h5l-.3-.9a1.5 1.5 0 0 0-1.3-.8c-.3 0-.6 0-.9.2l-.5.7c-.2.2-.3.5-.3.8v1.9l.2 1 .6.7 1 .2.6-.1c.2 0 .4-.2.5-.3l.3-.6 2.6.1c-.1.6-.4 1.2-.7 1.7-.4.4-.8.8-1.4 1-.6.3-1.3.4-2 .4ZM265.7 29.7l-2.3-9.6h2.8l1.2 6.2 1.3-6.2h2.7l1.3 6.1 1.2-6h2.7l-2.2 9.5h-3l-1.3-5.6h-.1l-1.4 5.6h-3ZM278.5 29.7h-3l3.9-12.8h3.7l3.9 12.8h-3l-2.7-9.6h-.1l-2.7 9.6Zm-.4-5h6.3V27H278v-2.3ZM292.3 20.1v2.3h-5.6V20h5.6Zm-4.4 9.6v-10c0-.8.1-1.4.4-2 .2-.4.6-.8 1-1 .5-.3 1-.4 1.6-.4l1 .1.8.2-.4 2.2a2.3 2.3 0 0 0-.8-.1c-.3 0-.6 0-.7.2a1 1 0 0 0-.2.7v10.1H288ZM293 29.7v-9.6h2.6V22h.1c.2-.7.4-1.1.8-1.4.4-.4.8-.5 1.2-.5a2.6 2.6 0 0 1 .8.1v2.7l-.5-.2h-.6a1.6 1.6 0 0 0-1.5 1l-.2 1v5.1H293ZM299 29.7v-9.6h2.8v9.6H299Zm1.4-10.7c-.4 0-.7-.1-1-.4-.3-.3-.4-.7-.4-1 0-.5.1-.8.4-1 .3-.4.6-.5 1-.5s.7.1 1 .4c.3.3.4.6.4 1a1.4 1.4 0 0 1-1.4 1.5ZM306.9 30c-1 0-1.7-.3-2.3-.7a4 4 0 0 1-1.5-1.7 6 6 0 0 1-.6-2.6c0-1 .2-1.9.6-2.6.3-.8.8-1.4 1.5-1.8.6-.4 1.4-.6 2.3-.6.8 0 1.5.2 2 .5.7.3 1.1.8 1.5 1.3.3.6.5 1.3.5 2.1h-2.6a2 2 0 0 0-.4-1.2c-.3-.2-.6-.4-1-.4-.3 0-.6.1-.8.3a2 2 0 0 0-.6.9l-.2 1.4.2 1.5.6.9c.2.2.5.3.8.3l.7-.2c.2-.2.4-.3.5-.6l.2-.8h2.6c0 .8-.2 1.5-.5 2-.3.6-.8 1.1-1.4 1.4-.6.4-1.3.5-2.1.5ZM314.1 30c-.5 0-1-.2-1.4-.4-.5-.2-.8-.5-1-1-.3-.4-.4-.9-.4-1.5s0-1 .2-1.4l.7-.9 1-.5a6 6 0 0 1 1.3-.2l1.2-.2.6-.2c.2-.1.2-.3.2-.5a1 1 0 0 0-.3-.8l-.8-.2c-.3 0-.6 0-.8.2-.3.2-.4.4-.5.8l-2.5-.1c0-.6.3-1.2.6-1.6.3-.5.7-.8 1.3-1.1.5-.3 1.2-.4 2-.4.5 0 1 0 1.5.2l1.2.6.8 1c.2.4.3.9.3 1.4v6.5h-2.6v-1.3l-.7.8c-.2.3-.5.4-.8.5l-1 .2Zm.9-2.1a1.6 1.6 0 0 0 1.3-.8c.2-.2.3-.5.3-.8v-.9l-.3.1a4.4 4.4 0 0 1-.8.2 23.4 23.4 0 0 1-1 .3 1 1 0 0 0-.5.4l-.1.5c0 .3 0 .6.3.8l.8.2ZM323 24.3v5.4h-2.7v-9.6h2.6V22h.1c.2-.6.6-1 1-1.4.5-.3 1-.5 1.7-.5.6 0 1.1.1 1.5.5.5.3.8.7 1 1.2.3.6.5 1.2.5 2v6h-2.8v-5.5c0-.5-.1-1-.4-1.2-.2-.3-.5-.5-1-.5-.3 0-.5 0-.7.2-.3.2-.4.4-.5.6-.2.3-.2.6-.2 1Z"
        fill="#fff" />
    <path
        d="M390 33.7c-.7.4-1 1.2-1 2.4 0 1 .3 1.6 1 1.6.6 0 1.2-.4 1.6-1.1v-4l-1.6 1Zm.4-10.3c2.4 0 3.6 1 3.6 3.2v10.3c0 .5 0 .8.2 1 .2.2.5.3 1 .3 0 .5-.2 1-.5 1.3-.3.3-.7.4-1.3.4-1 0-1.5-.3-1.7-1-.6.7-1.4 1-2.3 1-1 0-1.7-.3-2.2-1-.6-.7-.8-1.6-.8-2.8 0-1.8.7-3.1 2.2-4l3-1.8v-3.5c0-.9-.5-1.3-1.3-1.3-.9 0-1.3.5-1.3 1.5v2.6h-1.6c-.5-.2-.8-.4-.8-.8v-2.7c0-.8.4-1.5 1-2 .7-.5 1.6-.7 2.8-.7ZM396.8 19.5a9 9 0 0 0-.3-2c.7-.3 1.4-.5 2.1-.5.4 0 .6.1.6.5v19.4c0 .5.1.8.3 1 .1.2.5.3 1 .3 0 .5-.2 1-.5 1.3-.3.3-.8.4-1.4.4-.6 0-1-.2-1.4-.5-.2-.4-.4-1-.4-1.8V19.5ZM402.2 19.5a9 9 0 0 0-.3-2c.7-.3 1.4-.5 2.1-.5.4 0 .6.1.6.5v19.4c0 .5.1.8.3 1 .1.2.5.3 1 .3 0 .5-.2 1-.5 1.3-.3.3-.8.4-1.4.4-.6 0-1-.2-1.4-.5-.2-.4-.4-1-.4-1.8V19.5ZM407.6 39.2V21.6c0-1 .3-1.9 1-2.5.8-.6 1.8-1 3.1-1s2.3.4 3 1c.7.5 1 1.3 1 2.4v15.3c0 .5.1.8.3 1 .2.2.5.3 1 .3 0 1.2-.7 1.8-2.1 1.8-1.2 0-1.7-.7-1.7-2.2v-6.2h-3v8.1l-2.1.2c-.4 0-.5-.2-.5-.6Zm2.5-17.6v7.8h3v-7.8c0-.4 0-.7-.4-1-.2-.2-.6-.3-1-.3-.5 0-.9.1-1.2.4-.2.2-.4.5-.4 1ZM421.4 37c0 .8 0 1.6.2 2.5-.6.2-1.4.2-2.1.2-.4 0-.6-.1-.6-.4v-13l-1 .2-.2-1.5c0-.4.1-.6.4-.6h.8V20c0-1 .3-1.8 1-2.3.5-.6 1.4-1 2.5-1s2 .3 2.6.8c.7.5 1 1.2 1 2v1.7c0 .4-.2.6-.7.8a3.5 3.5 0 0 1-1.7 0v-1.7c0-.5 0-.9-.2-1-.2-.3-.5-.4-1-.4-.4 0-.6 0-.8.3-.2.3-.2.6-.2 1.1v4h1.6l1.7-.2.1 1.5c0 .4 0 .6-.4.6h-3v10.6ZM429.6 37c0 1 0 1.9.2 2.5-.6.2-1.3.2-2.1.2-.4 0-.5-.1-.5-.4V26.4c0-.5-.1-.8-.3-1-.2-.2-.5-.3-1-.3 0-.5.2-1 .5-1.3a2 2 0 0 1 1.4-.4c.8 0 1.4.4 1.6 1.3.5-.9 1.3-1.3 2.3-1.3 1.8 0 2.7.8 2.7 2.5v3.3c0 .4-.3.6-.8.7l-.9.2-.8-.1v-3.2c0-.7-.2-1-.9-1-.3 0-.6 0-.8.3-.3.3-.5.6-.6 1v9.8ZM437.8 20.8c-1 0-1.4-.7-1.4-1.9s.4-1.8 1.4-1.8c.9 0 1.4.6 1.4 1.8 0 1.2-.5 1.9-1.4 1.9Zm-2 2.9h3.2v13.2c0 .5 0 .8.2 1 .2.2.5.3 1 .3 0 .5-.2 1-.5 1.3-.3.3-.7.4-1.3.4-.6 0-1.1-.2-1.4-.5-.3-.4-.4-1-.4-1.8v-12l-1 .2-.3-1.4c0-.5.2-.7.5-.7ZM448 36.3c.9.4 1.3 1 1.3 1.7 0 .3 0 .5-.3.6-.8.9-2.1 1.3-3.9 1.3-2.2 0-3.3-1.2-3.3-3.6v-9.7c0-2.2 1.3-3.2 3.8-3.2a4 4 0 0 1 2.6.7c.6.5 1 1.2 1 2v2.7c0 .4-.4.6-.9.7l-.8.2-.9-.1.1-1.5V27c0-.6 0-1-.3-1.2-.2-.2-.5-.3-1-.3-.8 0-1.2.3-1.2 1v9.4c0 .7.1 1.2.4 1.5.2.3.5.4 1 .4.6 0 1-.1 1.5-.5.5-.3.8-.6 1-1ZM454.5 33.7c-.7.4-1 1.2-1 2.4 0 1 .3 1.6 1 1.6.6 0 1.2-.4 1.6-1.1v-4l-1.6 1Zm.4-10.3c2.4 0 3.6 1 3.6 3.2v10.3c0 .5 0 .8.2 1 .2.2.5.3 1 .3 0 .5-.2 1-.5 1.3-.3.3-.7.4-1.3.4-1 0-1.5-.3-1.7-1-.6.7-1.4 1-2.3 1-1 0-1.7-.3-2.2-1-.6-.7-.8-1.6-.8-2.8 0-1.8.7-3.1 2.2-4l3-1.8v-3.5c0-.9-.5-1.3-1.3-1.3-.9 0-1.3.5-1.3 1.5v2.6H452c-.5-.2-.8-.4-.8-.8v-2.7c0-.8.4-1.5 1-2 .7-.5 1.6-.7 2.8-.7Z"
        fill="#004E8C" />
    <path
        d="M407.7 39.2V21.6c0-1 .3-1.9 1-2.5.8-.6 1.8-1 3.1-1s2.3.4 3 1c.7.5 1 1.3 1 2.4v15.3c0 .5.1.8.3 1 .2.2.5.3 1 .3 0 1.2-.7 1.8-2.1 1.8-1.2 0-1.7-.7-1.7-2.2v-6.2h-3v8.1l-2.1.2c-.3 0-.5-.2-.5-.6Zm2.5-17.6v7.8h3v-7.8c0-.4 0-.7-.4-1-.2-.2-.6-.3-1-.3-.5 0-.9.1-1.2.4-.2.2-.4.5-.4 1Z"
        fill="#9B1D21" />
    <path
        d="M372.5 42.4c.8-2.7 1-6.7-.2-11m-22.9-18.7c14.7 4 21 11.7 23 18.8m0 0c.8-3.7 4.6-12.7 13.3-18.8"
        stroke="#9B1D21" stroke-width="2.5" />
    <path
        d="M378 40.1c-.3-1.8-.5-4.8.2-8.1m8-12.7c-2.4 1.9-4.1 4-5.4 6.1m0 0a29.8 29.8 0 0 0-24.5-21.8m24.5 21.8a21.8 21.8 0 0 0-2.6 6.6m0 0a34.8 34.8 0 0 0-25.7-23.8"
        stroke="#004E8C" stroke-width="2.5" />
    <path
        d="M367.4 41.1c.6-2.1.8-5.1 0-8.3m-18.7-15.5c7.3 1.5 12 4.5 15 8m0 0c.7-3 3.8-10.4 10-16.1m-10 16c2 2.4 3.1 5 3.7 7.6m0 0c.2-4.2 3.6-15.1 16-24.6"
        stroke="#9FB13B" stroke-width="2.5" />
    <mask id="c" style="mask-type:alpha" maskUnits="userSpaceOnUse" x="366" y="13" width="16"
        height="19">
        <path d="m367 25.7 2-4.6 3 4.6-2.3 5.8-2.8-5.8ZM378 24.6l-2.7-5 4.3-5.6 2.3 5.6-3.8 5Z"
            fill="#D9D9D9" />
    </mask>
    <g mask="url(#c)">
        <path
            d="M372.5 42.4c.8-2.7 1-6.7-.2-11m-22.9-18.7c14.7 4 21 11.7 23 18.8m0 0c.8-3.7 4.6-12.7 13.3-18.8"
            stroke="#9B1D21" stroke-width="2.5" />
    </g>
    <mask id="d" style="mask-type:alpha" maskUnits="userSpaceOnUse" x="364" y="10" width="17"
        height="11">
        <path d="m364.4 16.5 2.8-4.8 5.3 2.3 4-3 3.6 3.5-5 5.6-3.4-3.6-3 3.6-4.3-3.6Z"
            fill="#D9D9D9" />
    </mask>
    <g mask="url(#d)">
        <path
            d="M378 40.1c-.3-1.8-.5-4.8.2-8.1m8-12.7c-2.4 1.9-4.1 4-5.4 6.1m0 0a29.8 29.8 0 0 0-24.5-21.8m24.5 21.8a21.8 21.8 0 0 0-2.6 6.6m0 0a34.8 34.8 0 0 0-25.7-23.8"
            stroke="#004E8C" stroke-width="2.5" />
    </g>
    <defs>
        <clipPath id="a">
            <path fill="#fff" d="M.3 5.5h109v35H.3z" />
        </clipPath>
        <clipPath id="b">
            <path fill="#fff" d="M125.3 6.5h99v33h-99z" />
        </clipPath>
    </defs>
</svg>