<svg width="725" height="112" viewBox="0 0 725 112" fill="none" xmlns="http://www.w3.org/2000/svg">
    <mask id="a" style="mask-type:alpha" maskUnits="userSpaceOnUse" x="0" y="0" width="725"
        height="112">
        <path fill="#C4C4C4" d="M0 0h725v112H0z" />
    </mask>
    <g mask="url(#a)">
        <circle cx="141.6" cy="56.5" r="24.6" stroke="#999" stroke-width="8" />
        <path
            d="M124.8 54.7c-.8-1.4-.1-2.4 1.3-2.4 3.6-.2 10 6.4 12.7 9.8.8-2.5 5.3-10 7.5-13.4h1.6v-1.9h1.6v-2h2.2v-2.3h2.1v-1.8h2.1v-2.5h3.8v-1.8h-2.4v-2.2h2.4v2.2h1.2V32h2.4V30h4.8v-2h2.2v2H168V32h-4.8v4.3H161v1.8h-1.2v2.5h2v-2.5h2.4v-1.8h2v-2.2h2.6v2.2H166v1.8h-2v4.3h-2v1.7h-1.2v1.9h-2.4v2.6H156v2.5h-2v2.1h-2v2.3h-1.9V58c-1.2 1.8-4 5.9-4.7 7.2-1 1.6-2.1 5-2.7 6.1-.4 1-1 1.6-1.2 1.8-.2.2-1 .6-2.8.5-1.7-.1-2.6-1.6-2.8-2.3l-1.8-4.1c-1-1.8-3.4-5.6-4.6-7.1-1.5-1.9-4-4.1-4.8-5.5Z"
            fill="#000" />
        <path
            d="M182 74.6c0 1.4-.4 2.5-1 3.3a3 3 0 0 1-2.6 1.3A3 3 0 0 1 176 78l-.1 1H174V66.2h2V71a3 3 0 0 1 2.4-1A3 3 0 0 1 181 71c.6.8 1 2 1 3.4v.1Zm-2.1-.2c0-1-.2-1.7-.5-2.2-.4-.5-.9-.7-1.5-.7-.9 0-1.5.4-1.9 1.1v3.8c.4.7 1 1.1 2 1.1.5 0 1-.2 1.4-.7.3-.5.5-1.2.5-2.1v-.3Zm6.8 1.7 1.8-6h2.1l-3.5 10.3c-.6 1.5-1.5 2.2-2.8 2.2l-1-.1v-1.6h.4c.5 0 .9 0 1.1-.2.3-.2.5-.5.6-1l.3-.7-3.1-9h2.2l1.9 6.1Zm15.8-.2c0-.5-.1-1-.5-1.2l-2-1c-1-.2-1.8-.5-2.4-.9-1-.7-1.6-1.6-1.6-2.7a3 3 0 0 1 1.2-2.4 5.2 5.2 0 0 1 5.3-.5c.7.3 1.2.8 1.6 1.3.3.6.5 1.2.5 2h-2c0-.7-.3-1.2-.7-1.5-.3-.4-1-.6-1.6-.6-.7 0-1.3.2-1.7.5-.3.3-.5.7-.5 1.2 0 .4.2.8.6 1.1.4.3 1 .6 2 .9 1 .2 1.7.6 2.3 1 .6.3 1 .7 1.2 1.2.3.4.4 1 .4 1.6 0 1-.3 1.8-1.1 2.4a5 5 0 0 1-3.2.9 6 6 0 0 1-2.4-.5c-.7-.3-1.3-.8-1.7-1.4-.4-.5-.6-1.2-.6-2h2.1c0 .7.2 1.3.7 1.6a3 3 0 0 0 2 .6c.7 0 1.2-.1 1.6-.4.4-.3.5-.7.5-1.2Zm7 .2 1.8-6h2.1l-3.6 10.3c-.5 1.5-1.4 2.2-2.8 2.2l-1-.1v-1.6h.5c.5 0 .9 0 1.1-.2.3-.2.5-.5.6-1l.3-.7-3.1-9h2.1l2 6.1Zm7-6v.9c.7-.8 1.5-1.1 2.6-1.1 1.2 0 2 .4 2.5 1.3.6-.9 1.6-1.3 2.7-1.3 1 0 1.8.2 2.2.8.5.5.8 1.3.8 2.4V79h-2v-5.8c0-.6-.1-1-.4-1.3-.2-.3-.7-.4-1.2-.4s-.9.1-1.2.4a2 2 0 0 0-.6 1V79h-2v-6c0-1-.5-1.5-1.6-1.5-.8 0-1.4.3-1.7 1V79h-2v-9h1.9Zm18.2 8.9-.2-.8c-.6.6-1.4 1-2.4 1-.9 0-1.6-.3-2.2-.8-.5-.5-.8-1.2-.8-2 0-.9.3-1.6 1-2.1.8-.5 1.8-.8 3.1-.8h1.2V73c0-.4-.1-.8-.4-1-.2-.4-.6-.5-1.1-.5-.5 0-.9.1-1.2.3a1 1 0 0 0-.4 1h-2c0-.6.1-1 .5-1.5.3-.4.7-.7 1.3-1 .6-.2 1.2-.3 1.9-.3 1 0 1.9.2 2.5.7.6.6 1 1.3 1 2.3v4c0 .8 0 1.5.3 2v.1h-2Zm-2.2-1.5c.4 0 .8 0 1.1-.2.4-.2.7-.5.8-.8v-1.7h-1a3 3 0 0 0-1.7.4c-.4.2-.6.6-.6 1 0 .5.1.8.4 1 .2.2.6.3 1 .3Zm8-7.5v1c.7-.7 1.5-1.1 2.6-1.1 1.9 0 2.8 1 2.9 3.2V79h-2v-5.8c0-.6-.2-1-.4-1.3-.3-.3-.7-.4-1.2-.4a2 2 0 0 0-1.8 1.1V79h-2v-9h1.8Zm10-2.2V70h1.6v1.5h-1.5v5c0 .4 0 .6.2.8 0 .1.3.2.7.2h.7V79a5 5 0 0 1-1.3.2c-1.6 0-2.4-.9-2.4-2.6v-5h-1.4V70h1.4v-2.2h2Zm7.1 11.4c-1.2 0-2.3-.4-3-1.2a4.4 4.4 0 0 1-1.3-3.3v-.2c0-.9.2-1.7.6-2.4a3.8 3.8 0 0 1 3.6-2.2c1.1 0 2 .3 2.7 1.1a5 5 0 0 1 1 3.3v.8h-5.8c0 .8.3 1.4.7 1.8.5.4 1 .7 1.7.7.9 0 1.6-.4 2.2-1.2l1.1 1c-.4.6-.8 1-1.4 1.3-.6.3-1.3.5-2 .5Zm-.2-7.7c-.6 0-1 .2-1.3.6a3 3 0 0 0-.7 1.6h3.9v-.2c0-.7-.3-1.2-.6-1.5-.3-.4-.7-.5-1.3-.5Zm9.1 6c.5 0 1 0 1.3-.4.3-.3.5-.6.5-1h1.9c0 .5-.2 1-.5 1.5-.4.5-.8.9-1.4 1.1a4 4 0 0 1-1.8.5c-1.2 0-2.2-.4-3-1.3-.7-.8-1-1.9-1-3.3v-.2c0-1.4.3-2.5 1-3.3.8-.8 1.8-1.2 3-1.2 1 0 2 .3 2.6.9.7.6 1 1.4 1 2.4h-1.8c0-.5-.2-.9-.5-1.2-.4-.4-.8-.5-1.3-.5-.6 0-1.1.2-1.5.7-.4.5-.5 1.2-.5 2.1v.4c0 1 .1 1.7.5 2.1.3.5.8.8 1.5.8Z"
            fill="#999" />
        <path
            d="M193.7 61h-5.4l-8.1-14.2V61h-5.5V38.2h5.5l8 14.2V38.3h5.5V61Zm2.6-8.6c0-1.7.3-3.2 1-4.5a7 7 0 0 1 2.8-3c1.2-.8 2.7-1.1 4.3-1.1 2.6 0 4.5.8 6 2.3a9 9 0 0 1 2.2 6.4v.2c0 2.7-.7 4.7-2.2 6.3a7.8 7.8 0 0 1-6 2.3c-2.4 0-4.3-.7-5.7-2.1a8.5 8.5 0 0 1-2.4-6v-.8Zm5.2.3c0 1.6.3 2.7.8 3.5.5.7 1.2 1 2.2 1 1.8 0 2.8-1.4 2.8-4.3v-.5c0-3-1-4.6-2.9-4.6-1.7 0-2.7 1.4-2.8 4v1Zm23.6-3.8-1.7-.2c-1.7 0-2.7.6-3.2 1.6V61H215V44h4.9l.2 2.3c.8-1.7 2-2.5 3.7-2.5.5 0 1 0 1.4.2v4.9Zm8.9-9V44h2.7v3.6H234v7.8c0 .6 0 1 .3 1.3.2.3.7.4 1.4.4l1.3-.1v3.8c-1 .3-2 .4-3 .4-1.8 0-3.2-.4-4-1.3-.9-.8-1.3-2.1-1.3-3.9v-8.4h-2.2v-3.6h2.2v-4.2h5.3Zm3.7 12.5c0-1.7.3-3.2 1-4.5a7 7 0 0 1 2.8-3c1.2-.8 2.7-1.1 4.3-1.1 2.6 0 4.6.8 6 2.3a9 9 0 0 1 2.2 6.4v.2c0 2.7-.7 4.7-2.2 6.3a7.8 7.8 0 0 1-6 2.3c-2.3 0-4.3-.7-5.7-2.1a8.5 8.5 0 0 1-2.4-6v-.8Zm5.3.3c0 1.6.2 2.7.7 3.5.5.7 1.2 1 2.2 1 1.8 0 2.8-1.4 2.8-4.3v-.5c0-3-1-4.6-2.9-4.6-1.7 0-2.7 1.4-2.8 4v1Zm18.2-8.6.1 2a5.7 5.7 0 0 1 4.9-2.3c1.7 0 3 .5 3.9 1.6.9 1 1.3 2.6 1.4 4.7V61h-5.3V50.3c0-.8-.2-1.5-.5-1.8-.4-.5-1-.7-2-.7s-1.7.5-2.2 1.3V61h-5.3V44h5Z"
            fill="#000" />
        <path
            d="M270.5 65.4h3v.4h-1.2V69h-.5v-3.2h-1.3v-.4Zm3.2 0h.7l1 2.4.9-2.4h.7V69h-.5v-3.2l-.9 2.5h-.5l-1-2.5V69h-.4v-3.6Z"
            fill="#56575B" />
        <rect x="465" y="35" width="42" height="42" rx="4" fill="#999" />
        <path
            d="M513.6 44.6H509V42h12.2v2.6h-4.5V56h-3.2V44.6ZM531.2 56l-2.7-4h-3v4h-3.3V42h6.1c1.3 0 2.3.2 3.2.6 1 .4 1.7 1 2.2 1.8.5.7.7 1.6.7 2.7 0 1-.2 2-.8 2.7-.4.7-1.2 1.3-2 1.7l3 4.5h-3.4Zm0-9c0-.7-.3-1.3-.8-1.7-.5-.5-1.3-.7-2.3-.7h-2.6v5h2.6c1 0 1.8-.3 2.3-.7.5-.5.7-1 .7-1.8ZM542.4 56.2c-2 0-3.6-.5-4.7-1.6-1-1.1-1.6-2.7-1.6-4.8V42h3.2v7.7c0 2.5 1 3.8 3.1 3.8 1 0 1.8-.3 2.4-1 .5-.5.8-1.5.8-2.8V42h3.2v7.8c0 2-.6 3.7-1.7 4.8a6.3 6.3 0 0 1-4.7 1.6ZM555.8 56.2c-1.1 0-2.2-.1-3.3-.4-1-.3-1.8-.7-2.4-1.2l1-2.4c.7.4 1.4.8 2.2 1a8 8 0 0 0 2.5.4 4 4 0 0 0 2-.4c.5-.2.7-.6.7-1a1 1 0 0 0-.4-.9l-1-.5-1.6-.5-2.7-.7c-.6-.3-1.2-.7-1.7-1.3-.5-.5-.8-1.3-.8-2.2 0-.8.3-1.5.7-2.2.4-.7 1.1-1.2 2-1.6.9-.4 2-.6 3.3-.6.9 0 1.7.1 2.6.4.8.2 1.6.5 2.2.9l-1 2.4a7.8 7.8 0 0 0-3.9-1c-.9 0-1.5 0-2 .4-.4.3-.6.7-.6 1.1 0 .5.2.9.7 1.1.5.3 1.3.5 2.3.7 1 .3 2 .5 2.6.8.7.2 1.3.6 1.8 1.2.5.5.7 1.3.7 2.2 0 .8-.2 1.5-.7 2.2-.4.7-1 1.2-2 1.6-.9.3-2 .5-3.2.5ZM565.9 44.6h-4.5V42h12.2v2.6H569V56h-3.2V44.6ZM583.8 50.7v.8h-8.2c.1.7.5 1.2 1 1.6.5.4 1.2.6 2 .6.6 0 1.1-.1 1.5-.3.5-.2.9-.4 1.2-.8l1.7 1.8c-1 1.2-2.5 1.8-4.4 1.8-1.3 0-2.3-.3-3.3-.7a5.3 5.3 0 0 1-2.9-4.9c0-1 .3-2 .8-2.8.5-.9 1.1-1.5 2-2a6 6 0 0 1 3-.7c1 0 2 .2 2.8.6.9.5 1.5 1.2 2 2s.8 1.8.8 3Zm-5.6-3.3c-.7 0-1.3.2-1.8.6-.5.4-.8 1-.9 1.7h5.3c0-.7-.4-1.3-.9-1.7-.4-.4-1-.6-1.7-.6Z"
            fill="#222" />
        <path
            d="M515.9 67.7c-.8 0-1.4-.2-2-.5a3.7 3.7 0 0 1-2-3.4c0-.7.2-1.4.5-2A4.2 4.2 0 0 1 516 60c.6 0 1 .1 1.6.3l1.2.8-.5.5a3 3 0 0 0-2.3-.9c-.6 0-1.1.2-1.6.4a3 3 0 0 0-1.6 2.8c0 .6.1 1.1.4 1.6.3.5.7.8 1.2 1.1.5.3 1 .4 1.6.4a3 3 0 0 0 2.3-.9l.5.5c-.4.4-.8.7-1.3.9-.4.2-1 .3-1.5.3ZM525.3 66.9v.7H520V60h5.2v.7h-4.4v2.7h3.9v.7h-4v2.8h4.6ZM532 67.6l-1.8-2.5h-2.6v2.5h-.8V60h2.8c1 0 1.8.2 2.3.7.6.4.8 1 .8 1.9 0 .6-.1 1-.4 1.5-.3.4-.7.7-1.3.9l1.9 2.6h-1Zm-2.4-3.1c.8 0 1.3-.2 1.7-.5.4-.3.6-.8.6-1.4 0-.6-.2-1.1-.6-1.4-.4-.4-1-.5-1.7-.5h-2v3.8h2ZM535.6 60.7h-2.7V60h6.1v.7h-2.6v6.9h-.8v-7ZM539.9 60h.8v7.6h-.8V60ZM543.5 60.7v3h4v.7h-4v3.2h-.8V60h5.3v.7h-4.5ZM549.2 60h.8v7.6h-.8V60ZM557.4 66.9v.7H552V60h5.2v.7h-4.4v2.7h4v.7h-4v2.8h4.6ZM558.9 60h3c.9 0 1.6.1 2.2.5.6.3 1 .7 1.4 1.3.4.6.5 1.2.5 2a3.6 3.6 0 0 1-2 3.3c-.5.3-1.2.5-2 .5h-3.1V60Zm3 6.9c.7 0 1.3-.1 1.8-.4a3 3 0 0 0 1.5-2.7 3 3 0 0 0-.4-1.6c-.3-.5-.6-.9-1.1-1.1-.5-.3-1.1-.4-1.8-.4h-2.2v6.2h2.2ZM572.6 60c1 0 1.8.2 2.3.7.6.4.9 1 .9 1.9 0 .8-.3 1.4-.9 1.9-.5.5-1.3.7-2.3.7h-2v2.4h-.8V60h2.9Zm0 4.5c.8 0 1.4-.2 1.8-.5.4-.3.6-.8.6-1.4 0-.6-.2-1.1-.6-1.4-.4-.4-1-.5-1.8-.5h-2v3.8h2ZM582.3 67.6l-1.8-2.5H578v2.5h-.8V60h2.8c1 0 1.7.2 2.3.7.5.4.8 1 .8 1.9 0 .6-.1 1-.4 1.5-.3.4-.8.7-1.3.9l1.8 2.6h-.8Zm-2.4-3.1c.7 0 1.3-.2 1.7-.5.4-.3.6-.8.6-1.4 0-.6-.2-1.1-.6-1.4-.4-.4-1-.5-1.7-.5h-2v3.8h2ZM584.5 60h.8v7.6h-.8V60ZM593.6 60l-3.4 7.6h-.8L586 60h.9l3 6.6 2.8-6.6h.9ZM598.8 65.6h-4.3l-.9 2h-.8l3.5-7.6h.7l3.5 7.6h-.8l-1-2Zm-.3-.7-1.9-4-1.8 4h3.7ZM604.5 67.7c-.7 0-1.4-.2-2-.5a3.7 3.7 0 0 1-2-3.4c0-.7.2-1.4.6-2 .3-.6.8-1 1.4-1.4.6-.3 1.3-.5 2-.5.6 0 1.1.1 1.6.3.5.2.9.5 1.2.8l-.5.5a3 3 0 0 0-2.2-.9c-.6 0-1.2.2-1.7.4a3 3 0 0 0-1.5 2.8c0 .6 0 1.1.4 1.6.3.5.6.8 1.1 1.1.5.3 1 .4 1.7.4a3 3 0 0 0 2.2-.9l.5.5c-.3.4-.7.7-1.2.9-.5.2-1 .3-1.6.3ZM611 65v2.6h-.7V65l-3-5h.8l2.6 4.3 2.6-4.3h.8l-3 5Z"
            fill="#999" />
        <path
            d="M469.3 56.2s.1-16.6 16.6-16.6c16.4 0 16.5 16.6 16.5 16.6h-3.2s0-13.5-13.3-13.5c-13.4 0-13.4 13.5-13.4 13.5h-3.2Z"
            fill="#222" />
        <path
            d="M493.2 63.5s-4.8 4.6-10.1 3c-3-1-7.7-4.4-7.7-10.4 0-8.2 8.2-12.2 15-9.5 5.5 2.2 6 9.5 6 9.5h-3.2s-.2-4.5-3.5-6.3c-4-2.2-11.2-1.1-11.2 6.3 0 4.6 3.4 6.3 5.3 7 3.8 1.5 7.4-1.7 7.4-1.7l2 2Z"
            fill="#fff" />
        <path d="M490.3 56.2a4.6 4.6 0 0 0-9.1 0h9.1Z" fill="#fff" />
        <path
            d="M345.4 34.5h5.2l3.5 8.3 3.6-8.3h5.2V50H359V38.7l-3.6 8.4H353l-3.6-8.4V50h-3.9V34.5ZM375.3 38.7v3.1a6 6 0 0 0-1.6-.8 5 5 0 0 0-1.6-.2c-1 0-1.8.3-2.4.9-.6.6-.9 1.5-.9 2.6 0 1 .3 2 .9 2.5.6.6 1.4 1 2.4 1a5.2 5.2 0 0 0 3.2-1v3a10.2 10.2 0 0 1-3.6.6c-2.1 0-3.8-.5-5-1.6a5.8 5.8 0 0 1-1.8-4.5c0-2 .6-3.5 1.8-4.6 1.2-1 2.9-1.6 5-1.6a9.8 9.8 0 0 1 3.6.6ZM387.3 47.3H381l-1 2.8h-4l5.8-15.6h4.8l5.8 15.6h-4l-1-2.8Zm-5.3-3h4.3l-2.1-6.2-2.2 6.3ZM401.2 33.8v2.5H399c-.5 0-1 0-1.1.3-.2.2-.3.5-.3 1v.8h3.2V41h-3.2v9h-3.8v-9H392v-2.7h2v-.8c0-1.3.3-2.3 1-2.9.7-.6 1.8-.9 3.3-.9h2.9ZM413.7 44.2v1h-8.8c0 1 .4 1.6 1 2 .5.5 1.2.7 2.2.7a9 9 0 0 0 2.5-.3c.8-.2 1.6-.6 2.5-1v2.8a15.8 15.8 0 0 1-5.3 1c-2.1 0-3.8-.5-5-1.6a5.9 5.9 0 0 1-1.7-4.5 6 6 0 0 1 1.7-4.6 6.7 6.7 0 0 1 4.8-1.6 6 6 0 0 1 4.4 1.7 6 6 0 0 1 1.7 4.4Zm-3.9-1.2c0-.7-.2-1.3-.6-1.7-.4-.5-1-.7-1.6-.7-.8 0-1.4.2-1.8.6-.5.4-.8 1-.9 1.8h5ZM427.4 44.2v1h-8.8c.1 1 .4 1.6 1 2 .5.5 1.3.7 2.3.7a9 9 0 0 0 2.4-.3c.8-.2 1.7-.6 2.5-1v2.8a15.8 15.8 0 0 1-5.3 1c-2.1 0-3.8-.5-5-1.6a5.9 5.9 0 0 1-1.7-4.5 6 6 0 0 1 1.7-4.6 6.7 6.7 0 0 1 4.8-1.6 6 6 0 0 1 4.4 1.7 6 6 0 0 1 1.7 4.4Zm-3.9-1.2c0-.7-.2-1.3-.6-1.7-.4-.5-1-.7-1.6-.7-.8 0-1.3.2-1.8.6-.5.4-.7 1-.8 1.8h4.8Z"
            fill="#999" />
        <path
            d="M357.5 56.1v3.3c-.8-.4-1.7-.7-2.5-.8a10 10 0 0 0-2.3-.3c-1 0-1.7 0-2.1.4-.5.2-.7.6-.7 1.2 0 .4.1.7.4 1l1.7.6 1.8.3c1.7.4 3 .9 3.7 1.6.7.7 1 1.7 1 3 0 1.8-.4 3-1.5 4-1 .8-2.6 1.2-4.7 1.2a16 16 0 0 1-6-1.1V67c1 .6 2 1 3 1.3.9.2 1.8.4 2.7.4.8 0 1.5-.2 2-.5.4-.3.7-.7.7-1.2s-.2-1-.5-1.2c-.3-.2-1-.5-1.9-.7l-1.6-.3a6.8 6.8 0 0 1-3.4-1.6 4 4 0 0 1-1-3c0-1.6.4-2.8 1.4-3.6 1-.9 2.5-1.3 4.4-1.3a18.3 18.3 0 0 1 5.4.8ZM360 55.6h10.9v3H364v3h6.5v3H364v3.6h7.1v3H360V55.7ZM385 70.4a10.3 10.3 0 0 1-4.9 1.2c-2.6 0-4.7-.7-6.2-2.2a7.8 7.8 0 0 1-2.3-6c0-2.4.8-4.4 2.3-5.9a8.6 8.6 0 0 1 6.2-2.2 10.6 10.6 0 0 1 4.8 1.2v3.2c-.7-.5-1.4-.8-2.2-1-.7-.3-1.5-.4-2.3-.4-1.4 0-2.5.4-3.4 1.3-.8 1-1.2 2.2-1.2 3.9 0 1.6.4 2.8 1.2 3.8.9.9 2 1.4 3.4 1.4a7.4 7.4 0 0 0 4.5-1.5v3.2ZM386.1 55.6h4V65c0 1.3.3 2.2.7 2.8.4.5 1.1.8 2 .8 1 0 1.7-.3 2.2-.8.4-.6.6-1.5.6-2.8v-9.4h4V65c0 2.2-.5 3.9-1.6 5-1.1 1-2.8 1.6-5.1 1.6s-4-.6-5-1.6c-1.2-1.1-1.8-2.8-1.8-5v-9.4ZM407.2 62.6c.8 0 1.4-.2 1.8-.5.4-.3.6-.8.6-1.6 0-.7-.2-1.2-.6-1.5-.4-.3-1-.5-1.8-.5h-1.7v4h1.7Zm-1.7 2.7v6h-4V55.6h6.1c2 0 3.6.4 4.6 1 1 .7 1.4 1.8 1.4 3.3 0 1-.3 2-.8 2.6-.5.6-1.2 1.1-2.2 1.5.5 0 1 .4 1.5.8.4.5.9 1.1 1.3 2l2.2 4.5h-4.3l-2-4c-.3-.7-.7-1.2-1-1.5-.5-.3-1-.5-1.7-.5h-1.1ZM415.9 55.6h10.9v3h-6.9v3h6.4v3H420v3.6h7v3h-11V55.7ZM428.5 55.4h3v.4h-1.2V59h-.5v-3.2h-1.3v-.4Zm3.2 0h.7l1 2.4.9-2.4h.7V59h-.5v-3.2l-.9 2.5h-.5l-1-2.5V59h-.4v-3.6Z"
            fill="#56575B" />
        <path fill-rule="evenodd" clip-rule="evenodd"
            d="M298 32v38l20.8 9.5 20.5-9.6V32l-20.5 9.7L298 32Zm8.6 13.3v19.3l12 5.7 12.3-5.7V45.3l-12.3 5.5-12-5.5Z"
            fill="url(#b)" />
    </g>
    <defs>
        <linearGradient id="b" x1="298" y1="55.8" x2="339.3" y2="55.8"
            gradientUnits="userSpaceOnUse">
            <stop offset=".5" stop-color="#56575B" />
            <stop offset=".5" stop-color="#999" />
        </linearGradient>
    </defs>
</svg>