<svg width="321" height="318" viewBox="0 0 321 318" fill="none" xmlns="http://www.w3.org/2000/svg">
    <g clip-path="url(#clip0)">
        <path
            d="M241.322 31.2778C240.333 29.187 239.344 27.0961 237.367 22.9992C242.424 18.5068 247.962 13.5622 253.528 8.64591C266.299 -2.65591 282.856 -2.9102 293.904 8.05257C304.528 18.5633 303.963 36.1659 292.435 48.3153C286.699 54.3618 280.624 60.1257 272.713 68.037C288.507 68.7716 302.07 68.0935 315.519 68.5173C318.627 72.0774 317.214 75.7787 316.875 79.3388C311.535 84.5377 304.556 84.0291 298.312 83.2379C270.961 79.7344 248.527 86.9958 233.863 112.142C240.39 112.877 247.849 111.747 255.082 112.82C264.406 114.233 268.588 118.754 263.841 128.276C258.445 132.175 252.172 131.44 246.126 131.468C223.522 131.581 200.947 131.497 178.343 131.525C173.624 131.525 168.906 131.355 164.244 132.034C155.485 133.305 148.676 137.289 148.365 146.952C148.054 156.163 153.903 161.588 162.181 164.413C168.539 166.561 175.235 165.883 181.79 165.939C191.199 165.996 200.664 166.476 210.016 165.854C225.161 164.837 236.632 169.33 246.888 181.62C260.112 197.471 278.449 206.682 298.849 210.892C305.319 212.22 311.959 212.7 317.073 217.617C317.073 220.668 317.073 223.72 317.044 226.771C309.642 231.829 301.702 229.936 293.876 228.466C270.396 224.059 251.014 211.966 234.485 195.296C226.941 187.695 218.86 184.248 208.208 184.587C195.578 184.983 182.835 185.632 170.262 183.061C164.865 181.959 159.949 183.626 155.683 186.819C143.957 195.606 133.87 206.117 124.546 217.306C119.799 222.985 119.404 229.568 125.111 235.078C130.875 240.644 137.289 239.486 142.968 234.908C153.592 226.347 162.492 215.921 172.325 206.484C176.732 202.246 180.745 197.612 185.633 193.883C189.221 191.17 193.205 189.447 197.104 192.979C201.625 197.076 199.958 201.625 196.708 205.495C188.543 215.215 178.993 223.635 170.177 232.761C166.25 236.801 161.927 240.503 158.452 244.939C153.253 251.55 149.043 259.151 156.107 266.412C163.622 274.154 171.675 270.17 178.767 264.576C183.57 260.79 187.582 256.128 191.962 251.861C200.353 243.639 208.321 234.965 217.08 227.138C220.555 224.03 224.68 220.47 229.258 225.358C233.157 229.54 231.829 234.259 228.721 238.186C220.216 248.894 209.762 257.738 200.353 267.571C196.143 271.978 191.227 275.821 188.062 281.105C184.672 286.727 183.57 293.056 188.317 298.142C193.657 303.85 200.325 302.465 206.343 298.679C211.175 295.656 214.339 290.796 218.295 286.812C221.516 283.591 225.104 279.042 229.342 285.936C230.218 287.547 231.094 289.129 232.394 291.531C227.534 296.871 222.505 302.38 217.475 307.918C209.338 316.847 199.082 319.672 188.006 315.886C176.93 312.1 170.516 303.68 169.81 291.559C169.725 290.174 169.527 288.818 169.301 286.671C149.947 285.399 138.024 275.906 137.572 255.619C116.974 250.816 114.855 249.29 104.994 232.337C101.632 232.902 100.502 235.502 100.304 238.327C100.021 242.537 99.767 246.832 100.304 251.013C101.321 258.812 98.2695 264.434 92.7033 269.548C85.1029 276.556 78.1805 284.269 70.6365 291.333C53.1752 307.636 32.6624 316.875 8.47649 317.214C7.09202 317.242 5.65104 317.157 4.29482 316.903C3.44718 316.734 2.68431 316.112 0.960779 315.208C-0.847512 298.99 0.536961 282.15 0.254415 265.367C0.169652 260.535 4.29482 258.162 7.20504 255.252C25.74 236.575 44.388 217.956 62.923 199.308C64.8443 197.358 67.4438 195.917 68.3196 192.329C66.0875 188.74 61.1995 189.164 57.9502 186.65C44.8684 176.591 41.6473 159.243 52.5253 146.98C64.3358 133.672 77.5589 121.579 90.1039 108.893C92.223 106.746 94.3138 107.565 96.5459 108.243C105.7 113.527 99.5974 118.641 95.8678 122.879C87.787 132.062 78.6891 140.312 70.1279 149.043C67.1612 152.066 63.9119 154.892 62.3579 158.988C60.2953 164.413 61.5951 169.217 65.6637 173.172C69.3651 176.789 73.8293 177.636 78.7173 175.828C82.786 174.302 85.9505 171.449 88.9455 168.454C116.974 140.595 144.889 112.623 173.737 83.69C153.083 81.4296 134.803 82.2773 120.223 98.4671C116.324 102.79 110.814 107.735 105.248 99.5408C104.627 97.5065 102.79 95.8395 105.051 93.3813C119.715 77.474 136.809 67.4436 159.384 68.2065C171.053 68.6021 184.022 71.8231 194.194 66.7938C203.8 62.047 210.638 51.6776 218.606 43.7098C221.601 40.7148 224.398 37.5503 227.28 34.4706C229.455 35.403 231.151 36.1376 232.818 36.844C239.966 43.8511 232.874 47.948 229.145 51.8471C213.237 68.4326 196.737 84.4529 180.547 100.784C177.297 104.09 173.37 106.83 170.799 111.803C191.679 114.855 209.705 114.035 224.822 95.5569C239.599 77.474 257.597 62.0753 274.182 45.4616C277.177 42.4666 280.201 39.5564 282.8 36.1941C286.558 31.3343 288.225 26.1355 284.297 20.7106C280.059 14.8054 274.126 14.6359 267.882 16.7832C262.372 18.6763 258.727 23.1405 254.376 26.7006C250.703 29.7238 247.567 35.2052 241.322 31.2778Z"
            fill="#000001" />
        <path
            d="M229.342 285.934C226.912 285.369 224.68 283.137 222.166 286.471C218.492 291.331 214.48 295.936 210.214 300.288C202.924 307.69 191.368 308.34 185.096 302.068C178.767 295.739 178.993 284.239 186.226 276.78C197.641 264.941 209.479 253.498 221.007 241.772C224.228 238.495 228.495 235.98 229.851 231.234C229.173 228.239 227.506 226.176 223.946 224.368C211.203 237.026 198.262 249.938 185.293 262.794C182.637 265.45 180.151 268.332 177.184 270.592C169.245 276.667 158.621 276.187 152.914 269.829C146.613 262.822 146.387 253.555 153.196 245.756C158.734 239.399 165.007 233.635 171.053 227.73C180.405 218.547 189.842 209.421 198.63 200.86C197.612 196.339 195.719 194.446 193.063 193.203C192.159 193.401 191.001 193.316 190.464 193.824C177.41 206.709 164.441 219.649 151.444 232.561C148.788 235.189 146.246 238.071 143.166 240.162C135.791 245.191 127.258 244.259 121.353 238.184C115.42 232.109 114.12 222.927 120.11 216.456C131.553 204.053 143.477 192.044 156.53 181.251C159.864 178.511 163.65 178.595 167.239 179.16C183.118 181.675 199.11 180.573 215.017 180.319C222.9 180.206 228.071 182.833 233.1 188.569C249.629 207.358 270.029 219.847 294.723 225.159C302.182 226.769 309.613 226.628 317.129 226.741C316.96 229.708 316.818 232.703 316.649 235.669C303.736 253.3 285.654 258.612 264.745 258.358C249.007 258.16 239.938 266.834 237.734 282.403C234.287 282.12 232.139 284.804 229.342 285.934Z"
            fill="#4AADD9" />
        <path
            d="M317.101 217.588C292.689 215.836 270.509 208.292 251.551 192.272C246.493 187.977 242.057 183.202 238.102 177.947C233.609 171.957 228.297 169.018 220.188 169.386C203.292 170.149 186.339 169.442 169.415 169.697C164.103 169.781 159.102 169.047 154.496 166.589C146.5 162.322 141.612 152.292 143.364 144.38C145.653 134.011 152.179 128.247 162.803 127.315C164.216 127.202 165.629 127.258 167.041 127.258C198.997 127.315 230.981 127.371 262.937 127.456C265.424 124.404 265.961 119.262 271.046 118.923C286.445 117.934 302.07 113.979 316.903 121.918C316.988 153.761 317.045 185.66 317.101 217.588Z"
            fill="#4DB5E3" />
        <path
            d="M105.22 99.5406C106.831 100.417 108.441 101.292 110.673 102.536C120.28 95.1894 127.57 84.3397 140.793 81.2034C153.875 78.0954 166.843 80.271 180.01 79.3386C180.519 83.8028 177.072 85.159 175.066 87.1934C147.263 115.137 119.376 142.996 91.4885 170.883C89.5107 172.861 87.6177 175.037 85.3856 176.732C77.0505 183.061 67.5852 182.496 61.3974 175.489C55.1532 168.397 55.4075 159.214 62.5559 151.557C68.6306 145.03 75.0444 138.814 81.4582 132.655C87.5329 126.806 93.8337 121.184 97.761 117.595C100.021 111.634 96.9417 110.503 96.5461 108.271C100.332 106.237 103.242 103.355 105.22 99.5406Z"
            fill="#4AADD9" />
        <path
            d="M241.322 31.2765C245.871 32.774 248.103 29.3552 250.674 26.8123C254.686 22.8567 258.19 18.3077 262.654 14.9736C270.989 8.70113 281.048 9.54877 286.84 16.2168C293.254 23.6195 293.169 32.1242 285.229 40.0637C260.62 64.6169 235.643 88.7745 210.863 113.158C208.688 115.306 206.343 116.266 203.376 116.266C189.927 116.21 176.506 116.238 161.842 116.238C187.299 91.0349 211.598 66.962 235.614 43.1717C234.286 40.205 233.58 38.5379 232.846 36.8992C236.321 36.0233 237.423 31.5591 241.322 31.2765Z"
            fill="#DDDDDB" />
        <path
            d="M316.932 121.862C303.539 121.862 290.147 122.23 276.754 121.693C270.905 121.467 266.582 123.162 262.938 127.4C264.011 124.208 264.322 120.987 263.333 117.116C250.76 114.827 237.678 117.257 224.398 115.731C235.587 104.26 246.38 93.2689 257.089 82.1648C260.084 79.0568 263.814 79.3394 267.543 79.3394C283.987 79.3394 300.403 79.3111 316.847 79.3111C316.904 93.4949 316.932 107.679 316.932 121.862Z"
            fill="#4AADD9" />
        <path
            d="M237.677 282.432C236.999 279.493 233.072 279.07 232.931 275.538C233.185 275.17 233.694 274.436 234.174 273.701C243.611 258.67 256.184 251.776 274.832 253.866C286.812 255.223 298.566 250.448 307.466 240.926C309.84 238.383 311.902 234.569 316.564 235.671C317.892 237.535 319.248 239.428 320.972 241.83C312.693 253.499 301.391 260.054 287.829 263.077C284.184 263.897 280.285 264.999 276.725 264.49C261.044 262.23 249.855 268.785 241.322 281.302C240.559 282.46 239.175 282.912 237.677 282.432Z"
            fill="#070808" />
        <path
            d="M10.0302 306.024C10.0302 293.931 9.97366 283.195 10.0584 272.458C10.0867 268.53 11.782 265.338 14.6074 262.512C52.9771 224.425 91.2903 186.253 129.632 148.138C129.886 147.884 130.508 147.997 132.062 147.77C132.966 158.451 137.684 167.549 145.285 174.415C130.027 190.096 115.759 205.664 100.445 220.13C92.9855 227.194 88.4931 234.342 90.3861 244.627C91.9966 253.471 88.3518 259.8 81.7685 265.507C74.6766 271.667 68.5736 278.928 61.5382 285.201C47.524 297.689 31.5036 305.685 10.0302 306.024Z"
            fill="#DDDDDB" />
        <path
            d="M235.304 55.9712C237.253 53.174 239.231 50.6876 242.735 49.4727C245.73 52.2981 248.753 55.1801 251.663 57.9491C251.324 62.7523 248.414 64.6736 244.571 65.8886C240.559 63.4587 237.055 60.5485 235.304 55.9712Z"
            fill="#1E1E1D" />
        <path
            d="M228.522 82.6443C225.047 79.3668 221.996 76.4848 219.312 73.9419C220.159 69.5342 222.759 67.6977 225.556 65.6916C230.387 66.9066 232.845 70.8904 235.53 74.4788C235.247 78.4062 232.704 80.2992 228.522 82.6443Z"
            fill="#1F1F1E" />
        <path
            d="M269.125 43.8228C266.3 46.4787 264.294 48.3718 262.231 50.2931C257.23 49.0781 255.111 44.7834 252.003 41.7602C251.692 37.6633 254.404 36.0245 257.738 34.1315C262.118 35.5725 264.209 39.9237 269.125 43.8228Z"
            fill="#171817" />
        <path
            d="M220.527 92.1943C218.493 94.2851 216.571 96.2912 214.339 98.5798C209.649 95.8674 206.371 92.4486 203.941 88.6907C204.874 84.9611 206.908 83.3506 210.496 81.8249C214.452 84.1135 217.701 87.6736 220.527 92.1943Z"
            fill="#171717" />
        <path
            d="M196.623 113.978C193.402 110.559 190.577 107.564 187.864 104.683C188.627 100.868 191.537 99.3424 194.363 97.0255C197.584 100.049 200.861 103.129 203.969 106.039C203.263 110.107 200.946 112.085 196.623 113.978Z"
            fill="#121212" />
        <path
            d="M82.3904 248.102C63.6294 262.879 48.2589 282.459 24.3556 290.06C20.9368 287.658 19.8349 284.861 20.8803 280.425C42.6363 272.627 57.1026 253.979 75.2703 240.445C78.5761 242.084 80.6104 244.57 82.3904 248.102Z"
            fill="#070707" />
        <path
            d="M126.1 166.815C129.83 169.471 133.333 172.381 135.735 177.325C133.842 179.049 131.808 180.885 129.265 183.174C124.942 180.772 121.749 177.297 119.178 173.483C120.308 169.442 122.484 167.436 126.1 166.815Z"
            fill="#171717" />
        <path
            d="M101.547 188.656C104.514 185.661 106.463 183.711 108.356 181.761C113.329 184.022 115.985 187.723 119.008 190.916C118.867 194.815 116.268 196.539 112.933 198.319C108.441 196.934 106.633 192.329 101.547 188.656Z"
            fill="#121212" />
    </g>
    <defs>
        <clipPath id="clip0">
            <rect width="321" height="317.496" fill="white" />
        </clipPath>
    </defs>
</svg>