<svg width="176" height="39" viewBox="0 0 176 39" fill="none" xmlns="http://www.w3.org/2000/svg">
    <rect width="176" height="39" fill="#FECC00" />
    <path
        d="M56.7462 16.2954C55.9771 17.3411 54.6903 19.1591 53.9072 20.2209C53.5096 20.7609 52.7916 21.7413 55.172 21.7413C57.6906 21.7413 67.7049 21.7413 67.7049 21.7413C67.7049 21.7413 69.7248 18.9821 71.4183 16.6745C73.7216 13.5353 71.6175 7.00342 63.3828 7.00342C56.0122 7.00342 30.9523 7.00342 30.9523 7.00342L25.3293 14.6745C25.3293 14.6745 54.48 14.6745 55.9761 14.6745C57.5234 14.6745 57.5023 15.2658 56.7462 16.2954ZM47.5391 23.6337C45.1587 23.6337 45.8767 22.6513 46.2743 22.1113C47.0574 21.0495 48.3652 19.2506 49.1343 18.2049C49.8914 17.1752 49.9115 16.584 48.3622 16.584C46.8671 16.584 34.3462 16.584 34.3462 16.584L23.053 31.9945C23.053 31.9945 43.2229 31.9945 50.5934 31.9945C59.6895 31.9945 64.7537 25.7825 66.315 23.6347C66.315 23.6337 50.0567 23.6337 47.5391 23.6337ZM65.4547 31.9945H81.6109L87.7356 23.6327L71.5815 23.6347C71.5765 23.6337 65.4547 31.9945 65.4547 31.9945ZM107.139 7.00342L100.943 15.4548H93.7322L99.9261 7.00342H83.7749L72.9695 21.7413H112.486L123.289 7.00342H107.139ZM88.8212 31.9945H104.971L111.099 23.6347H94.949C94.9429 23.6337 88.8212 31.9945 88.8212 31.9945ZM0 26.9318V28.7075H22.5002L23.8001 26.9318H0ZM26.2185 23.6337H0V25.4074H24.9157L26.2185 23.6337ZM0 31.9945H20.0898L21.3836 30.2289H0V31.9945ZM152.29 28.7065H176V26.9308H153.592L152.29 28.7065ZM149.882 31.9945H176V30.2289H151.174L149.882 31.9945ZM156.006 23.6337L154.708 25.4094H176V23.6337H156.006V23.6337ZM134.852 21.7413L145.657 7.00342H128.551C128.545 7.00342 117.739 21.7413 117.739 21.7413H134.852ZM116.354 23.6337C116.354 23.6337 115.173 25.2536 114.599 26.0338C112.571 28.7849 114.365 31.9945 120.984 31.9945C128.631 31.9945 146.922 31.9945 146.922 31.9945L153.05 23.6347H116.354V23.6337Z"
        fill="#D50029" />
</svg>