<svg width="351" height="137" viewBox="0 0 351 137" fill="none" xmlns="http://www.w3.org/2000/svg">
    <mask id="a" style="mask-type:alpha" maskUnits="userSpaceOnUse" x="0" y="0" width="131"
        height="130">
        <path d="M130.5 0H.5v130h130V0Z" fill="#C4C4C4" />
    </mask>
    <g mask="url(#a)">
        <path
            d="M123.49 62.376 13.98 90.86l3.54-13.012-9.704-9.337 109.51-28.474-4.827 13.223 10.991 9.116Z"
            fill="#fff" />
        <path
            d="M74.72 103.671c21.692-5.642 34.568-27.289 28.763-48.343-5.815-21.054-28.115-33.544-49.808-27.911-21.692 5.652-34.568 27.289-28.754 48.343 5.815 21.054 28.106 33.554 49.798 27.911Z"
            fill="#fff" />
        <path
            d="M75.347 103.009c-17.004 4.417-34.398-2.49-43.644-15.964l-7.23 1.877a2.585 2.585 0 0 0 1.965 1.596c1.744.322 3.879.794 4.876 1.969.997 1.164 1.077 3.293 1.077 5.02a2.625 2.625 0 0 0 .895 1.922 2.588 2.588 0 0 0 2.017.618c5.177-.472 6.234.291 7.68 5.04v.04a2.678 2.678 0 0 0 1.419 1.603 2.637 2.637 0 0 0 2.132.034c4.787-1.848 6.034-1.456 8.816 2.731l.02.03a2.702 2.702 0 0 0 1.79 1.147 2.673 2.673 0 0 0 2.06-.515c1.397-1.074 3.172-2.329 4.748-2.289 1.545.05 3.201 1.365 4.518 2.49 1.166 1.004 2.962.803 3.87-.412 1.056-1.405 2.413-3.112 3.929-3.514 1.366-.341 2.793.111 5.106 1.135l.05.02a2.637 2.637 0 0 0 2.097.037 2.664 2.664 0 0 0 1.474-1.503c.399-1.104.877-2.349 1.436-3.183 1.416-2.128 3.5-1.978 6.483-1.556h.05c1.536.221 2.932-.893 3.012-2.4.07-1.405.2-3.052.708-4.096.997-2.008 3.461-2.34 5.545-2.61a2.53 2.53 0 0 0 1.811-1.063 2.567 2.567 0 0 0 .403-2.07l-.01-.04c-1.197-4.83-.668-6.004 4.05-8.092l.03-.01a2.495 2.495 0 0 0 1.417-1.533 2.526 2.526 0 0 0-.231-2.081c-.897-1.487-1.925-3.344-1.655-4.86.249-1.486 1.855-2.952 3.201-4.076a2.522 2.522 0 0 0 .878-2.33L104.929 68c-1.067 16.164-12.567 30.582-29.582 35.01Zm-20.705-75.01c17.015-4.418 34.41 2.49 43.655 15.964l7.22-1.878a2.6 2.6 0 0 0-1.974-1.606c-1.746-.321-3.87-.793-4.877-1.968-.998-1.165-1.078-3.293-1.067-5.02a2.626 2.626 0 0 0-.898-1.927 2.589 2.589 0 0 0-2.025-.613c-5.106.462-6.203-.231-7.67-5.04l-.01-.05a2.677 2.677 0 0 0-1.39-1.587 2.637 2.637 0 0 0-2.1-.07c-.848.331-1.736.673-2.454.853-3.3.864-4.578-.773-6.423-3.564l-.03-.04a2.7 2.7 0 0 0-1.783-1.131 2.676 2.676 0 0 0-2.046.509c-1.147.873-2.484 1.847-3.69 2.168-2.095.542-4.09-1.024-5.656-2.36a2.688 2.688 0 0 0-2.04-.622 2.68 2.68 0 0 0-1.85 1.064c-1.027 1.416-2.273 3.073-3.85 3.474-1.525.402-3.57-.401-5.215-1.124a2.647 2.647 0 0 0-3.002.611c-.25.266-.444.581-.569.925-.549 1.607-1.306 3.544-2.623 4.327-1.426.854-3.43.573-5.246.322h-.04a2.586 2.586 0 0 0-2.028.54 2.616 2.616 0 0 0-.974 1.87c-.07 1.395-.18 3.031-.698 4.085-.998 1.998-3.471 2.34-5.555 2.611a2.53 2.53 0 0 0-1.811 1.062 2.568 2.568 0 0 0-.404 2.07c.43 1.697.898 3.695.2 5.12-.698 1.366-2.653 2.33-4.269 3.043a2.494 2.494 0 0 0-1.422 1.544 2.527 2.527 0 0 0 .245 2.09c2.564 4.318 2.374 5.573-1.536 8.856l-.03.03a2.497 2.497 0 0 0-.867 2.35l7.22-1.878c1.078-16.165 12.567-30.582 29.582-35.01Z"
            fill="#3A9B2C" />
        <path
            d="m30.776 50.138-.569-.252-.518 1.125.578.241.499-1.104.01-.01Zm3.79-6.245-.509-.362-.728 1.004.519.352.718-.994Zm-4.768 8.483-.588-.22c-.15.381-.3.763-.429 1.154l.599.201c.13-.382.269-.763.418-1.135Zm3.362-6.485-.53-.322c-.229.342-.448.703-.657 1.054l.538.302.648-1.024v-.01Zm-1.267 2.088-.549-.291-.598 1.084.568.281.579-1.074Zm60.06-8.936-.907-.853-.429.452.898.833.439-.432ZM27.476 61.774l-.619-.06-.08.853.639-.17.06-.623Zm.847-4.78-.618-.14-.27 1.205.609.12.28-1.184Zm-.508 2.38-.619-.1-.2 1.205.63.09c.059-.401.119-.803.199-1.205l-.01.01Zm1.166-4.718-.598-.181-.359 1.184.599.161.358-1.164ZM61.923 28.41l-1.256.12.07.603 1.236-.11-.05-.613Zm12.587 1.044-1.227-.291-.14.602c.4.08.818.18 1.217.281l.15-.602v.01Zm4.827 1.536-1.197-.442-.2.573 1.158.441.24-.572Zm-41.58 9.197-.448-.422-.868.904.468.401.848-.883Zm34.28-11.265c-.418-.074-.837-.14-1.257-.201l-.1.602c.419.05.828.12 1.237.201l.12-.602Zm-2.514-.372c-.419-.05-.848-.1-1.266-.13l-.05.602 1.246.13.07-.602ZM67 28.341l-1.277-.05-.01.612c.416.01.832.027 1.247.05l.03-.613H67Zm-2.543-.05c-.42 0-.848.02-1.267.04l.03.602c.409-.01.828-.03 1.246-.03l-.01-.603v-.01Zm23.677 7.54a32 32 0 0 0-1.028-.724l-.358.502.997.703.389-.482Zm-6.483-3.846-1.147-.512-.26.552 1.138.512.269-.552Zm8.448 5.392-.968-.794-.399.482c.32.251.639.502.958.773l.399-.461h.01Zm-6.204-4.237-1.107-.603-.3.542 1.098.583.309-.532v.01Zm2.154 1.275-1.057-.663-.329.522 1.047.653.35-.512h-.01Zm-9.096-4.267-1.216-.372-.18.593 1.197.361.2-.582Zm-31.446 4.016-.32-.522c-.368.21-.727.431-1.077.652l.34.512 1.057-.642Zm-2.095 1.315-.359-.502-1.027.723.379.492c.33-.241.668-.482 1.007-.703v-.01Zm6.533-3.534-.26-.552-1.156.502.269.552 1.137-.502h.01Zm-2.264 1.044-.29-.542c-.368.18-.747.381-1.116.582l.309.532c.359-.2.728-.391 1.097-.572Zm-8.148 5.512-.42-.452-.917.844.439.441.898-.833Zm1.895-1.566-.4-.482-.967.783.4.462.967-.763Zm15.489-7.801-1.237.28.15.593c.398-.1.817-.2 1.216-.281l-.13-.592Zm2.493-.442c-.42.06-.839.127-1.257.2l.12.603 1.227-.2-.1-.603h.01Zm36.663 15-.509.361.38.522.647-.17-.518-.713Zm-41.44-13.374-.18-.582c-.399.1-.808.231-1.207.351l.19.583a39.5 39.5 0 0 1 1.197-.352Zm-2.374.743-.22-.582-1.186.442.239.562c.379-.14.768-.291 1.167-.422ZM36.102 41.995l-.489-.402-.798.964.499.372c.26-.312.518-.633.788-.934Zm58.714 1.084.499-.371-.798-.954-.479.392.778.943v-.01ZM93.7 40.82l-.858-.903-.459.421.848.894.469-.402v-.01Zm-40.183 6.034-.33-.522c-.359.201-.718.432-1.067.663l.36.502c.338-.22.687-.442 1.037-.643Zm17.842-2.178c.39.11.778.24 1.167.371l.21-.572c-.4-.14-.798-.271-1.197-.382l-.18.583Zm-26.13 9.417.538.301c.2-.33.429-.672.658-1.003l-.518-.342c-.24.342-.47.693-.678 1.044Zm14.55-9.709.6-.13-.14-.602c-.401.087-.8.184-1.197.29h-.03l.16.593h.02l.598-.15h-.01Zm18.193 3.424c.339.231.668.472.997.723l.389-.482c-.33-.25-.678-.502-1.017-.733l-.36.502-.01-.01Zm-1.776-1.817-.299.542 1.057.602.34-.502c-.36-.22-.726-.431-1.098-.632v-.01Zm-2.513-.502c.37.15.748.311 1.117.492l.28-.552c-.38-.181-.769-.352-1.158-.502l-.249.552.01.01Zm-3.371-1.717c-.419-.1-.828-.18-1.247-.25l-.11.602c.4.07.809.15 1.207.24l.15-.592Zm-26.26 12.5.568.251c.17-.361.36-.723.549-1.074l-.559-.281c-.2.361-.389.733-.558 1.104Zm7.04-8.564c-.328.25-.667.502-.986.773l.409.462.957-.753-.38-.482Zm6.703-3.414-1.197.422.23.562c.389-.14.778-.281 1.167-.401l-.2-.583Zm6.214-1.104.03.602c.409 0 .827-.02 1.236-.01v-.602c-.418-.01-.847 0-1.266.01Zm-2.424.843c.4-.06.818-.1 1.227-.15l-.07-.603-1.257.15.1.603Zm-7.29 1.697.299.542c.359-.18.728-.361 1.097-.522l-.26-.562-1.136.542Zm-6.025 4.438.46.421c.279-.29.568-.572.867-.843l-.429-.442-.898.864Zm19.539-6.828c-.42-.06-.848-.1-1.267-.12l-.04.602c.409.03.828.07 1.227.12l.08-.602Zm-21.174 8.705.498.372c.25-.312.51-.633.778-.934l-.478-.402c-.28.322-.539.643-.798.964Zm-2.494 5.582-.578-.22-.34.883.739-.2.18-.463Zm16.596-10.401L59.51 45.62l-.23 1.987-1.955.633 1.875.823.02 1.998 1.387-1.476 1.955.603-1.008-1.737 1.197-1.627-2.015.402Zm6.723-.352-.938-1.224-.18 1.506-1.495.502 1.436.622.01 1.536 1.067-1.134 1.496.462-.768-1.326.907-1.245-1.535.301Zm5.136 3.233.967.292.1-.03-.529-.904.669-.914-1.127.221-.698-.904-.12 1.115-1.097.361 1.047.462.01 1.044.1-.03.678-.723v.01Z"
            fill="#3A9B2C" />
        <path
            d="m71.916 50.82-.1.03v.08l.1-.1v-.01Zm1.786-.381-.04-.07-.1.03.14.04Zm-19.31-.17-.937-1.226-.18 1.516-1.495.492 1.436.633.01 1.526 1.067-1.125 1.496.462-.768-1.335.908-1.245-1.536.301Zm-3.909 5.581.958.302.1-.03-.53-.904.68-.914-1.138.221-.688-.904-.13 1.115-1.097.361 1.047.462.01 1.044.1-.03.688-.723Z"
            fill="#3A9B2C" />
        <path
            d="m51.58 56.192-.04-.07-.1.03.14.04Zm-1.785.381-.1.03v.08l.1-.1v-.01ZM37.18 91.101c.279.301.578.592.877.883l.44-.441c-.3-.281-.59-.573-.869-.864l-.458.422h.01Zm-1.696-1.837.828.933.469-.401-.798-.914-.499.382Zm3.49 3.564.938.813.42-.462-.938-.803-.42.452Zm1.916 1.606.997.753.38-.482-.988-.753-.4.482h.01Zm2.024 1.476c.34.241.699.472 1.048.703l.339-.522c-.34-.221-.698-.442-1.027-.673l-.36.502v-.01Zm-8.467-8.935-.499.35.748.985.499-.372-.748-.963Zm10.911 9.769-.33.522 1.098.622.3-.532-1.068-.612Zm38.07.692.308.532c.37-.2.738-.401 1.097-.622l-.329-.522c-.349.2-.708.412-1.077.602v.01Zm-2.215 1.105.27.552c.388-.17.767-.352 1.136-.542l-.289-.542-1.117.532Zm4.349-2.35.349.502 1.047-.682-.36-.502-1.036.672v.01Zm2.044-1.395.38.492.996-.753-.398-.472c-.31.24-.649.502-.978.733Zm-8.677 4.708.23.573c.398-.15.797-.301 1.176-.472l-.249-.562-1.157.472v-.01ZM89.54 93.28l.419.472.947-.814-.428-.451-.928.803-.01-.01Zm1.835-1.627.449.442.888-.884-.46-.421c-.288.3-.578.582-.877.863Zm-14.8 8.675.199.582 1.197-.401-.2-.573-1.197.392Zm-12.278 2.389h1.267l-.01-.612h-1.247l-.01.602v.01Zm5.056-.251c.42-.04.848-.1 1.257-.16l-.1-.603-1.226.161.07.602Zm2.514-.351 1.236-.251-.13-.602c-.398.1-.817.17-1.226.241l.12.602v.01Zm2.314-1.125.16.603c.41-.106.818-.217 1.226-.331l-.18-.583c-.398.101-.797.221-1.196.311h-.01Zm-7.35 1.677c.418-.01.847-.04 1.266-.08l-.05-.603-1.247.081.03.602Zm33.959-23.845-.588-.21c-.15.37-.3.752-.469 1.124l.578.23c.17-.37.33-.752.479-1.134v-.01Zm-2.104 3.112.568.272.549-1.105-.569-.261-.548 1.094Zm3.61-7.81-.618-.141-.299 1.174.598.161.319-1.195Zm.848-4.86-.628-.06-.14 1.204.618.08c.06-.4.1-.813.15-1.224Zm-8.448 18.795.499.371.758-.984-.509-.361c-.239.331-.498.653-.748.964v.01Zm1.466-1.958.519.341.698-1.024-.528-.331-.689 1.004v.01Zm1.337-2.048.538.311c.21-.351.43-.703.629-1.064l-.559-.301-.608 1.054Zm5.306-12.34-.619-.1-.229 1.185.608.13c.09-.401.17-.813.24-1.214ZM93.1 89.907l.47.402c.279-.301.558-.603.827-.924l-.489-.391-.808.913Zm8.518-13.403-.598-.181c-.12.382-.25.773-.389 1.155l.598.2.399-1.174h-.01Zm-44.881 25.341c.409.09.828.171 1.247.241l.12-.603c-.41-.07-.828-.15-1.227-.241l-.14.603Zm-7.221-2.3 1.167.473.24-.563c-.39-.15-.769-.3-1.148-.471l-.259.562Zm2.354.914c.399.141.798.281 1.197.402l.2-.572c-.4-.131-.799-.261-1.178-.402l-.22.572Zm9.894 2.129 1.266.08.03-.602-1.247-.091-.05.603v.01Zm-2.524-.291c.41.06.838.12 1.257.16l.07-.602-1.237-.161-.1.603h.01ZM47.232 98.47c.38.201.758.382 1.137.553l.27-.553c-.37-.17-.749-.351-1.118-.542l-.289.542Zm7.051 2.761 1.217.322.16-.593c-.4-.1-.8-.207-1.197-.321l-.18.592Zm-1.226-17.359c-.35-.22-.699-.442-1.028-.673l-.359.502 1.047.683.34-.512Zm2.154 1.165c-.37-.18-.738-.362-1.097-.563l-.3.543c.37.2.739.391 1.118.562l.279-.542Zm26.07-4.639.46.422c.279-.301.568-.602.837-.914l-.478-.401-.818.903v-.01Zm-23.796 5.563c-.39-.131-.768-.282-1.147-.432l-.25.562c.4.16.788.301 1.188.442l.209-.573Zm26.62-8.023-.53-.34c-.219.33-.468.662-.707.973l.498.371c.26-.33.499-.662.738-1.004Zm2.343-4.357-.598-.22c-.14.37-.3.742-.469 1.104l.569.25c.179-.37.339-.752.498-1.134Zm-1.057 2.239-.549-.281-.598 1.044.539.311c.209-.351.418-.703.608-1.074Zm-34.738 7.139.399-.472-.459-.362-.738.201.798.633Zm20.346 4.096c.409-.1.818-.221 1.217-.352l-.2-.582c-.389.12-.778.241-1.177.342l.16.592Zm-2.473.502c.409-.05.828-.13 1.246-.211l-.13-.602c-.398.08-.807.16-1.216.22l.1.603v-.01Zm-8.677-.914-1.197-.301-.17.572c.4.12.818.231 1.227.322l.14-.603v.01Zm20.994-4.95-.439-.441-.907.803.398.462c.33-.271.639-.542.948-.824Zm-18.56 5.362c-.41-.04-.819-.1-1.228-.17l-.1.602c.4.07.828.13 1.247.18l.08-.602v-.01Zm16.256-4.257-.997.703.349.502c.349-.231.698-.472 1.027-.723l-.379-.482Zm-15.07 4.99c.419.03.848.04 1.267.04v-.603c-.4 0-.818-.02-1.227-.05l-.04.603v.01Zm2.533.02c.42-.01.848-.04 1.267-.09l-.07-.603c-.399.04-.818.07-1.227.09l.03.603Zm7.41-1.526c.39-.15.779-.301 1.168-.472l-.27-.562c-.369.17-.748.32-1.127.471l.23.563Zm2.005-1.556.3.542 1.097-.603-.32-.532c-.349.201-.708.402-1.077.593ZM70.72 83.4l1.945-.632-1.875-.834-.01-1.987-1.397 1.465-1.954-.602 1.017 1.737-1.197 1.626 2.015-.401 1.217 1.606.239-1.978Zm4.887-2.67.937 1.234.18-1.526 1.496-.481-1.436-.633-.02-1.536-1.057 1.134-1.506-.462.778 1.336-.918 1.245 1.546-.301v-.01Zm2.703-4.026 1.127-.221.698.903.12-1.124 1.097-.352-1.048-.462v-1.044l-.11.02-.678.723-.967-.3-.1.03.529.903-.668.924Z"
            fill="#3A9B2C" />
        <path
            d="m78.41 74.806.04.07.1-.02-.14-.04v-.01Zm1.885-.482-.1.1.1-.02v-.08Zm-17.753 9.8.937 1.234.18-1.516 1.496-.492-1.437-.632-.02-1.527-1.057 1.125-1.506-.462.778 1.335-.917 1.245 1.546-.3v-.01Zm-6.354-1.668 1.137-.23.689.903.13-1.104 1.096-.362-1.057-.472v-1.044l-.1.03-.688.723-.967-.301-.1.03.539.904-.678.923Z"
            fill="#3A9B2C" />
        <path
            d="m56.288 80.57.04.06.1-.02-.14-.04Zm1.885-.493-.1.1.1-.02v-.08ZM37.318 55.58l-.997-.341.917-2.52 2.384.813a4 4 0 0 1 .01 2.801c-.22.603-.548 1.095-.977 1.446a2.713 2.713 0 0 1-1.496.633 3.984 3.984 0 0 1-3.232-1.165 2.55 2.55 0 0 1-.698-1.496c-.07-.442 0-.934.2-1.486.269-.723.628-1.235 1.096-1.526.46-.301.978-.402 1.566-.341l-.2 1.245c-.318-.02-.608.05-.857.22-.26.171-.449.422-.568.753-.19.512-.17.974.05 1.396.229.412.668.733 1.326.964.698.25 1.297.281 1.755.1a1.68 1.68 0 0 0 .978-1.024c.09-.24.13-.502.12-.783 0-.281-.05-.542-.13-.763l-.758-.261-.489 1.335Zm-1.795-5.813.698-1.044 2.882 1.807c.46.291.758.462.918.522.24.09.489.1.728 0 .25-.08.469-.27.658-.562.2-.301.29-.552.26-.783a.846.846 0 0 0-.28-.562 7.118 7.118 0 0 0-.877-.603l-2.942-1.847.698-1.044 2.792 1.747c.639.401 1.077.702 1.297.933.23.221.379.462.469.733.08.261.09.552.03.874-.07.321-.23.693-.5 1.104-.328.492-.637.824-.927 1.004a1.989 1.989 0 0 1-.858.322c-.289.03-.548 0-.787-.08a7.726 7.726 0 0 1-1.417-.744l-2.842-1.777Zm12.796-5.452-.997.954-1.397-.622-1.815 1.716.629 1.356-.968.924-2.673-6.075.968-.913 6.253 2.66Zm-3.44-.13-2.275-1.034 1.037 2.209 1.237-1.175Zm3.77-.04-3.342-5.221 2.284-1.376a4.696 4.696 0 0 1 1.346-.622c.32-.06.639-.02.948.12.3.15.558.382.758.683.25.402.339.793.27 1.185-.08.401-.33.783-.759 1.134.32-.01.608.02.868.08.25.07.638.231 1.157.472l1.306.623-1.296.793-1.516-.663a12.043 12.043 0 0 0-1.057-.431 1.02 1.02 0 0 0-.47-.02c-.139.04-.338.13-.588.28l-.22.131 1.397 2.179-1.087.653Zm-.839-3.665.798-.482c.519-.321.838-.542.938-.663.1-.12.16-.25.16-.401 0-.15-.04-.301-.14-.462a.748.748 0 0 0-.42-.331.793.793 0 0 0-.538.04c-.1.04-.359.2-.798.462l-.857.502.857 1.335Z"
            fill="#3A9B2C" />
        <path
            d="m59.26 39.304-1.316.442-.998-1.144-2.393.803-.02 1.496-1.287.431.25-6.596 1.286-.432 4.478 5Zm-3.052-1.546-1.596-1.877-.04 2.43 1.636-.553Zm3.431 1.526-.708-6.114 1.237-.13 3.052 3.794-.479-4.076 1.187-.13.708 6.114-1.277.14-3.002-3.714.46 3.996-1.178.12Zm7.48-.381.48-5.09-1.876-.171.1-1.034 5.017.441-.1 1.035-1.875-.161-.479 5.09-1.267-.11Zm3.67.391 1.796-5.903 4.498 1.285-.3 1.004-3.28-.934-.4 1.305 3.052.874-.299.994-3.052-.874-.488 1.607 3.39.974-.299.994-4.617-1.326Zm5.346 1.627 2.993-5.422 4.139 2.149-.5.913-3.021-1.566-.658 1.205 2.802 1.456-.498.913-2.813-1.455-.808 1.476 3.122 1.616-.499.924-4.259-2.21Zm9.007-2.058 1.775 1.465c.399.332.688.603.848.844.209.306.33.663.349 1.034.02.371-.05.753-.2 1.134-.16.392-.439.804-.817 1.245-.34.382-.679.673-1.028.874-.419.24-.828.371-1.237.402-.309.02-.648-.04-1.017-.191a3.886 3.886 0 0 1-.947-.613l-1.835-1.506 4.109-4.698v.01Zm.279 1.586-2.723 3.112.728.603c.28.22.489.371.629.431.199.1.378.141.568.131.18 0 .399-.08.648-.24.25-.151.539-.413.848-.774.32-.361.529-.673.638-.924.1-.24.14-.472.12-.672-.02-.211-.11-.402-.26-.603a5.816 5.816 0 0 0-.757-.703l-.44-.361ZM45.836 89.214l.668-.803 2.154 1.666-1.575 1.908a4.27 4.27 0 0 1-2.733-.904c-.519-.401-.888-.853-1.097-1.365a2.506 2.506 0 0 1-.12-1.577 3.73 3.73 0 0 1 .768-1.506 3.607 3.607 0 0 1 1.416-1.074 2.875 2.875 0 0 1 1.696-.16c.439.09.897.31 1.376.682.618.472.997.974 1.127 1.486a2.12 2.12 0 0 1-.18 1.556l-1.146-.582c.13-.301.15-.582.07-.873a1.477 1.477 0 0 0-.55-.764c-.438-.34-.897-.471-1.376-.401-.478.07-.937.361-1.376.903-.469.563-.698 1.095-.668 1.577.03.492.26.903.678 1.225.2.16.449.28.728.371.28.08.539.13.778.13l.499-.602-1.137-.903v.01Zm5.216-1.075 1.157.543-1.496 3.001a6.837 6.837 0 0 0-.419.944.97.97 0 0 0 .08.713c.12.221.339.412.658.562.33.151.598.201.838.151a.887.887 0 0 0 .538-.331c.13-.181.3-.482.519-.924l1.526-3.062 1.157.542-1.456 2.911c-.33.663-.599 1.115-.798 1.366a1.767 1.767 0 0 1-1.586.663 3.315 3.315 0 0 1-1.177-.342c-.548-.26-.927-.512-1.147-.763a1.902 1.902 0 0 1-.429-.793 1.647 1.647 0 0 1-.02-.763c.08-.351.28-.843.589-1.456l1.466-2.962Zm9.405 9.71-1.356-.322-.2-1.486-2.463-.572-.848 1.235-1.317-.302 3.89-5.421 1.317.3.977 6.567Zm-1.696-2.913-.299-2.41-1.386 2.019 1.685.401v-.01Zm3.232 3.043.14-6.155 2.693.06c.496-.01.99.058 1.466.201.299.11.548.311.728.603.18.28.259.602.249.973.007.422-.15.83-.439 1.135-.29.301-.708.472-1.266.542.269.16.498.342.668.532.18.191.419.522.708 1.004l.748 1.225-1.526-.03-.898-1.365a8.76 8.76 0 0 0-.658-.914.976.976 0 0 0-.379-.261 2.159 2.159 0 0 0-.638-.09h-.26l-.06 2.56-1.276-.02Zm1.356-3.524.948.02c.618.01.997 0 1.147-.05a.698.698 0 0 0 .369-.251.787.787 0 0 0 .14-.462c0-.201-.05-.372-.16-.502a.797.797 0 0 0-.479-.251c-.1-.02-.409-.03-.927-.04l-.998-.02-.04 1.556Zm11.49 2.369-1.366.261-.828-1.265-2.484.482-.23 1.466-1.335.25 1.196-6.495 1.327-.251 3.72 5.552Zm-2.793-1.938-1.316-2.078-.39 2.4 1.696-.322h.01Zm4.24 1.436-2.524-5.642 1.147-.482 4.059 2.76-1.676-3.764 1.087-.462 2.524 5.642-1.187.502-3.99-2.7 1.646 3.684-1.087.462Zm7.629-3.775-3.002-4.187-1.546 1.044-.618-.853 4.139-2.791.618.853-1.546 1.034 3.002 4.207-1.047.703v-.01Zm3.78-2.751-4.538-4.297 3.291-3.263.758.733-2.394 2.37 1.018.953 2.224-2.209.758.723-2.224 2.209 1.237 1.175 2.473-2.46.768.723-3.371 3.343Zm4.518-4.78-5.326-3.332 2.553-3.836.898.563-1.855 2.79 1.187.744 1.725-2.6.898.561-1.726 2.6 1.446.904 1.915-2.891.898.562-2.613 3.936Zm-2.424-7.76.818-2.129c.19-.471.37-.823.539-1.054.24-.301.528-.522.887-.662a2.874 2.874 0 0 1 1.177-.201c.42.01.918.12 1.466.321.5.18.898.402 1.197.643.38.3.648.632.808 1.004.13.27.18.602.16.984-.02.28-.1.642-.27 1.074l-.847 2.189-5.935-2.17Zm1.457-.803 3.93 1.445.328-.873c.13-.321.2-.562.22-.723.02-.2 0-.392-.07-.562a1.313 1.313 0 0 0-.449-.502 4.217 4.217 0 0 0-1.047-.522 3.868 3.868 0 0 0-1.097-.271c-.28 0-.509.03-.699.12-.199.1-.358.241-.498.442-.1.15-.24.462-.42.934l-.198.522v-.01Zm21.233-23.293 4.788-13.344-11.59 3.012-6.931 1.808-17.923 4.658-.718.191-55.084 14.327-6.942 1.808L6.5 68.63l11.02 9.217-4.787 13.334 11.57-3.013 6.941-1.807 1.696-.441.638-.161 52.76-13.725.719-.18 15.578-4.057.639-.17 1.695-.432 6.932-1.808 11.599-3.012-11.031-9.226.01.01Zm1.995-11.737 1.207-.301.099.31-1.206.312-.1-.321Zm-2.394.632 1.197-.31.09.31-1.197.322-.1-.322h.01Zm-2.413.623 1.196-.311.1.32-1.207.312-.099-.321h.01ZM9.831 68.983l-1.197.321-.1-.321 1.207-.311.09.32v-.01Zm2.404-.623-1.197.312-.1-.322 1.207-.3.1.31h-.01Zm2.413-.622-1.206.301-.09-.301 1.197-.321.1.32Zm.888 21.907-1.207.322-.09-.322 1.197-.31.1.31Zm2.404-.622-1.197.311-.1-.311 1.207-.321.1.32h-.01Zm2.413-.623-1.207.302-.09-.302 1.198-.32.1.32Zm84.496-44.477.719-.18.488-.121.09.32-.698.172-.509.14-.09-.321v-.01Zm-2.403.632 1.197-.3.099.3-1.216.322-.08-.322Zm-2.414.633 1.197-.311.1.31-1.207.312-.09-.311Zm-2.334.873-.07-.25 1.197-.312.1.321-1.197.302h-.01l-.02-.06Zm-2.483.372 1.207-.301.09.31-1.197.312-.1-.321Zm-2.404.632 1.197-.31.1.31-1.207.322-.1-.322h.01Zm-2.413.623 1.207-.311.09.32-1.198.312-.1-.321Zm-2.394.632 1.197-.32.09.32-1.207.312-.09-.312h.01Zm-2.414.623 1.197-.311.1.31-1.217.322-.08-.321Zm-2.413.622 1.197-.3.1.3-1.197.322-.1-.322ZM78.36 50.82l1.206-.31.09.32-1.197.302-.1-.312Zm-2.404.623 1.197-.301.1.31-1.207.312-.09-.321Zm-2.404.632 1.197-.31.1.31-1.217.322-.08-.322Zm-2.413.623 1.197-.311.1.32-1.208.312-.09-.321Zm-2.404.632 1.197-.32.1.32-1.207.312-.1-.312h.01Zm-2.413.623 1.206-.311.09.32-1.197.302-.1-.311Zm-2.404.622 1.197-.3.1.3-1.207.322-.1-.322h.01Zm-2.414.633 1.207-.311.09.31-1.197.312-.1-.311Zm-2.393.622 1.196-.31.09.32-1.207.302-.09-.312h.01Zm-2.414.623 1.197-.301.1.31-1.217.312-.08-.321Zm-2.414.632 1.197-.31.1.31-1.197.322-.1-.322Zm-2.403.623 1.197-.311.1.32-1.208.302-.1-.301.01-.01Zm-7.221 1.877 1.197-.3.1.3-1.217.322-.08-.322Zm-2.414.633.43-.11.697-.181.08-.03.09.32-.27.071-.698.18-.239.061-.09-.311Zm-2.403.622 1.197-.31.1.32-1.208.302-.1-.312h.01Zm-2.414.623 1.207-.301.09.31-1.197.312-.1-.321Zm-2.404.632 1.197-.31.1.31-1.207.322-.1-.322h.01Zm-2.413.623 1.207-.311.09.32-1.197.302-.1-.301v-.01Zm-2.404.632 1.197-.32.1.32-1.207.312-.09-.312Zm-2.403.623L29 63.662l.1.31-1.217.322-.08-.321Zm-2.414.622 1.197-.31.08.25.02.07h-.02l-1.187.312-.09-.322Zm-4.817 1.255 1.206-.31.09.32-1.197.302-.1-.312Zm-2.404.623.489-.12.718-.191.08.32-.509.131-.698.181-.08-.321Zm4.588 21.295-1.197.321-.1-.321 1.207-.311.09.31Zm-5.705-20.663-1.197.312-.1-.312 1.207-.32.1.32h-.01Zm8.109 20.04-.768.201-.43.11-.099-.32.638-.161.579-.15.08.32Zm2.413-.622-1.197.301-.1-.311 1.207-.311.09.32Zm-1.177-6.054-1.595.421-1.875-6.807a5.543 5.543 0 0 1-1.696 1.908l-.439-1.647c.37-.26.738-.672 1.107-1.225a3.38 3.38 0 0 0 .599-1.767l1.296-.341 2.603 9.458Zm3.59 5.421-1.206.312-.1-.312 1.207-.31.1.31Zm-5.714-20.662-1.197.311-.1-.311 1.217-.321.08.32Zm8.118 20.04-1.206.311-.09-.321 1.197-.301.1.3v.01Zm2.404-.633-1.197.322-.1-.322 1.207-.31.1.31h-.01Zm-1.646-6.777a2.21 2.21 0 0 1-.616.943 2.189 2.189 0 0 1-1 .513c-.807.2-1.565.02-2.253-.552-.699-.572-1.287-1.767-1.786-3.574-.488-1.777-.568-3.123-.239-4.047a2.21 2.21 0 0 1 .621-.945 2.189 2.189 0 0 1 1.005-.51 2.279 2.279 0 0 1 2.154.492c.758.622 1.386 1.837 1.875 3.614.499 1.787.579 3.143.24 4.066Zm4.06 6.155-1.207.311-.09-.311 1.197-.321.1.32Zm2.393-.623-1.196.312-.09-.322 1.206-.31.09.32h-.01Zm2.414-.632-1.197.321-.1-.321 1.207-.311.1.31h-.01Zm-2.394-6.586a2.21 2.21 0 0 1-.617.943 2.189 2.189 0 0 1-.998.512c-.808.201-1.556.03-2.255-.552-.688-.572-1.286-1.767-1.785-3.574-.489-1.767-.568-3.113-.24-4.036a2.21 2.21 0 0 1 .622-.945 2.189 2.189 0 0 1 1.005-.511 2.28 2.28 0 0 1 2.164.482c.748.633 1.376 1.837 1.865 3.614.499 1.787.578 3.143.25 4.067h-.01Zm4.807 5.963-1.196.312-.1-.322 1.197-.3.1.31ZM40.8 71.131c-.439-.31-.778-.903-1.007-1.746-.23-.844-.24-1.507-.03-2.009.22-.492.598-.803 1.167-.953.578-.15 1.097-.06 1.526.25.439.322.778.904 1.017 1.758.23.843.24 1.506.02 2.008-.21.482-.598.803-1.157.954-.588.15-1.097.06-1.536-.252v-.01Zm4.608-5.873 1.147-.301-1.666 11.094-1.177.301 1.696-11.094Zm1.426 16.255-1.197.301-.1-.311 1.207-.311.1.32h-.01Zm2.414-.633-.04.01-.698.181-.47.13-.089-.32.29-.08.698-.182.219-.05.09.311Zm2.403-.622-1.197.311-.1-.321 1.208-.301.09.3v.01Zm-1.157-6.305c-.219.502-.598.813-1.166.964-.579.15-1.088.06-1.526-.261-.44-.322-.778-.904-1.018-1.758-.23-.843-.24-1.505-.02-2.007.21-.482.599-.804 1.177-.954a1.714 1.714 0 0 1 1.516.26c.439.322.778.904 1.008 1.748.239.853.249 1.516.03 2.008Zm3.561 5.682-1.197.302-.1-.312 1.217-.31.08.31v.01Zm-5.695-20.672-1.207.321-.09-.321 1.197-.311.1.31Zm8.109 20.04-1.197.311-.1-.311 1.207-.321.09.32ZM50.763 58.34l-1.197.312-.1-.312 1.207-.32.09.32Zm8.108 20.04-1.197.312-.1-.322 1.208-.31.1.32h-.01Zm2.414-.632-1.207.321-.09-.321 1.197-.311.1.31Zm2.404-.623-1.197.312-.1-.322 1.207-.3.1.31h-.01Zm-1.387-5.993-1.685.441-5.057-5.27 1.695 6.144-1.565.401-2.593-9.417 1.635-.422 5.147 5.402-1.736-6.296 1.566-.401 2.593 9.418Zm3.79 5.37-1.197.302-.09-.311 1.197-.311.1.32h-.01Zm2.414-.632-1.197.312-.1-.312 1.207-.31.09.31Zm2.403-.622-1.197.311-.1-.321 1.218-.301.08.3v.01Zm-2.463-8.002-3.331.863-.1 2.31-1.775.472.638-10.262 1.785-.461 5.934 8.554-1.825.472-1.326-1.948Zm4.877 7.38-1.197.3-.1-.31 1.197-.312.1.321Zm2.404-.633-1.197.311-.1-.311 1.207-.321.1.32h-.01Zm2.413-.623-1.207.312-.09-.322 1.197-.31.1.32Zm-2.643-14.056-2.473.643 2.164 7.831-1.686.432-2.164-7.831-2.463.652-.45-1.606 6.623-1.707.45 1.586Zm5.047 13.424-1.197.321-.1-.321 1.207-.311.09.31Zm2.403-.623-1.196.312-.1-.322 1.217-.3.08.31Zm2.414-.622-1.197.301-.1-.301 1.207-.321.09.32Zm-1.646-6.064c-.359.3-.857.532-1.526.703-.797.2-1.426.26-1.894.16a2.784 2.784 0 0 1-1.955-1.476c-.26-.512-.539-1.295-.828-2.35l-1.386-5.02 1.685-.44 1.406 5.1c.22.803.4 1.335.499 1.556.18.371.439.632.768.803.34.16.738.18 1.207.06.478-.13.808-.331.997-.612.18-.291.25-.603.2-.934-.03-.331-.15-.874-.36-1.617l-1.436-5.22 1.676-.432 1.366 4.95c.32 1.134.499 1.947.529 2.44a2.606 2.606 0 0 1-.948 2.339v-.01Zm4.05 5.431-.998.261-.17.04-.03.01-.099-.31 1.207-.312.1.311h-.01ZM82.06 50.208l-1.197.311-.1-.311 1.217-.311.08.31Zm8.118 20.04-1.206.311-.09-.321 1.197-.301.1.3v.01Zm2.404-.623-1.197.302-.1-.312 1.207-.31.1.32h-.01Zm-2.992-9.257a1.37 1.37 0 0 0-.629-.26c-.199-.02-.488.01-.867.11l-.35.1 1.098 3.926-1.696.442-2.593-9.428 3.54-.924c.898-.23 1.557-.3 2.016-.25.448.07.847.28 1.216.652.36.372.619.833.768 1.396.2.702.18 1.335-.06 1.887-.249.562-.718.994-1.416 1.305.429.14.798.332 1.127.553.31.23.768.652 1.377 1.285l1.525 1.566-2.014.532-1.785-1.737c-.629-.622-1.058-1.004-1.267-1.155h.01Zm5.406 8.635-1.207.301-.09-.311 1.197-.321.1.32v.011Zm2.393-.633-1.197.312-.09-.322 1.207-.31.09.32h-.01Zm2.414-.632-1.197.321-.1-.321 1.217-.311.08.321v-.01Zm2.413-.623-1.196.312-.1-.312 1.197-.32.099.32Zm2.404-.622-1.197.301-.1-.301 1.207-.321.1.32h-.01Zm-2.932-5.592-1.327-1.948-3.33.863-.1 2.32-1.776.461.638-10.26 1.786-.462 5.934 8.554-1.825.472Zm5.346 4.96-1.207.31-.09-.31 1.197-.322.1.321Zm2.403-.623-1.197.311-.099-.321 1.207-.301.089.31Zm2.404-.623-.429.1-.768.202-.1-.312.579-.15.638-.16.08.32Zm-1.526-5.963-5.865 1.526-2.573-9.337 1.676-.442 2.144 7.76 4.189-1.094.429 1.587Zm3.939 5.33-1.196.312-.1-.311 1.207-.321.089.32ZM108.55 43.32l-1.197.312-.1-.312 1.207-.32.09.32Zm8.108 20.04-1.197.312-.099-.322 1.206-.31.1.32h-.01Zm2.414-.632-1.207.321-.09-.321 1.197-.311.1.31Zm2.403-.623-1.196.312-.1-.312 1.207-.32.099.32h-.01Z"
            fill="#3A9B2C" />
        <path
            d="m97.12 58.09 2.264-.603-2.104-3.193-.17 3.795h.01ZM29.868 71.261a.764.764 0 0 0-1.037.271c-.11.18-.16.452-.15.833.02.502.19 1.305.5 2.41.298 1.104.558 1.847.767 2.239.21.381.409.632.599.723.199.1.378.13.578.08.19-.06.34-.17.459-.351.11-.181.16-.452.14-.834-.02-.502-.18-1.295-.48-2.4-.299-1.104-.568-1.847-.777-2.238-.22-.392-.42-.633-.599-.733Zm11.34-3.825a.447.447 0 0 0-.329.331c-.07.24-.02.673.15 1.285.17.603.349 1.004.528 1.185.14.13.3.17.46.13a.448.448 0 0 0 .338-.341c.06-.241 0-.663-.16-1.285-.169-.603-.349-1.004-.528-1.175a.469.469 0 0 0-.459-.13Zm7.002 3.524a.439.439 0 0 0-.33.331c-.07.241-.02.673.15 1.285.17.603.35 1.004.529 1.175.14.13.299.18.459.14a.438.438 0 0 0 .329-.34c.06-.242.01-.664-.16-1.276a2.922 2.922 0 0 0-.518-1.195.468.468 0 0 0-.46-.12Zm16.995-4.579 2.264-.592-2.105-3.193-.17 3.785h.01Zm25.213-8.945c.07-.211.06-.462-.02-.743a1.286 1.286 0 0 0-.439-.703c-.2-.16-.449-.231-.738-.21-.14.01-.549.1-1.237.28l-1.306.342.658 2.4 1.247-.332c.798-.2 1.296-.382 1.476-.502a.92.92 0 0 0 .359-.522v-.01ZM36.34 69.585a.763.763 0 0 0-1.037.261c-.11.181-.16.462-.14.844.02.502.18 1.295.479 2.4.3 1.104.569 1.847.778 2.238.22.392.419.633.598.733a.774.774 0 0 0 1.038-.281c.11-.17.16-.452.14-.833-.01-.502-.18-1.296-.48-2.4-.185-.77-.446-1.52-.777-2.239-.21-.381-.41-.632-.599-.733v.01Z"
            fill="#3A9B2C" />
    </g>
    <mask id="b" style="mask-type:alpha" maskUnits="userSpaceOnUse" x="118" y="0" width="131"
        height="130">
        <path d="M248.5 0h-130v130h130V0Z" fill="#C4C4C4" />
    </mask>
    <g mask="url(#b)">
        <path
            d="m171.864 19.53 4.502 3.431 3.105-4.781 3.872 4.09 3.833-4.27 3.155 4.641 4.461-3.65 2.356 5.07 4.991-2.94 1.497 5.38 5.38-2.15.609 5.562 5.65-1.32-.3 5.6 5.78-.45-1.198 5.502 5.759.43-2.066 5.27 5.6 1.301-2.885 4.901 5.31 2.13-3.633 4.431 4.881 2.911-4.292 3.84 4.332 3.632-4.841 3.14 3.693 4.251-5.29 2.38 2.944 4.782-5.589 1.55 2.126 5.171-5.75.7 1.258 5.451-5.769-.19.359 5.591-5.66-1.06-.549 5.591-5.4-1.9-1.447 5.451-5.011-2.7-2.296 5.171-4.501-3.431-3.105 4.781-3.883-4.091-3.823 4.271-3.154-4.641-4.462 3.651-2.365-5.071-4.971 2.94-1.507-5.391-5.38 2.161-.619-5.562-5.64 1.321.3-5.601-5.78.45 1.198-5.502-5.76-.43 2.067-5.27-5.6-1.3 2.875-4.902-5.301-2.14 3.634-4.421-4.891-2.921 4.292-3.83-4.332-3.631 4.851-3.141-3.693-4.251 5.29-2.39-2.945-4.772 5.59-1.55-2.126-5.181 5.749-.7-1.257-5.441 5.769.18-.359-5.582 5.659 1.05.549-5.58 5.401 1.9 1.447-5.451 5.011 2.7 2.295-5.17Z"
            fill="#F26522" />
        <path
            d="M211.611 93.976a39.935 39.935 0 0 0 8.703-12.955 39.995 39.995 0 0 0 .06-30.63 39.925 39.925 0 0 0-8.651-12.99 39.839 39.839 0 0 0-12.961-8.67 39.777 39.777 0 0 0-30.567.055 39.834 39.834 0 0 0-12.93 8.718 39.947 39.947 0 0 0-8.641 12.953 39.995 39.995 0 0 0 8.631 43.519 39.809 39.809 0 0 0 28.176 11.701 39.812 39.812 0 0 0 28.18-11.691v-.01Z"
            fill="#fff" />
        <path
            d="M210.114 92.476a37.816 37.816 0 0 0 8.442-12.272 37.892 37.892 0 0 0 .24-29.224 37.806 37.806 0 0 0-8.238-12.41 37.73 37.73 0 0 0-12.385-8.255 37.662 37.662 0 0 0-29.164.24 37.732 37.732 0 0 0-12.247 8.46 37.848 37.848 0 0 0-10.613 26.6 37.843 37.843 0 0 0 11.05 26.423 37.69 37.69 0 0 0 26.368 11.073 37.688 37.688 0 0 0 26.547-10.635Z"
            fill="#F26522" />
        <path
            d="M183.413 103.798a38.018 38.018 0 0 1-17.875-4.51 38.105 38.105 0 0 1-13.667-12.394 37.99 37.99 0 0 1-5.21-11.722 37.883 37.883 0 0 1 4.112-28.826 37.87 37.87 0 0 1 9.89-11.054 37.795 37.795 0 0 1 13.367-6.4 37.61 37.61 0 0 1 21.701.86 38.091 38.091 0 0 1 19.274 14.844 37.97 37.97 0 0 1 5.211 11.722 37.887 37.887 0 0 1-4.123 28.826 37.87 37.87 0 0 1-9.89 11.054 37.8 37.8 0 0 1-13.367 6.4c-3.094.8-6.259 1.2-9.423 1.2Zm.05-75.626c-3.124 0-6.258.4-9.313 1.18a37.204 37.204 0 0 0-13.202 6.318 37.295 37.295 0 0 0-9.756 10.926 37.377 37.377 0 0 0-4.072 28.456 37.543 37.543 0 0 0 13.311 20.367 37.417 37.417 0 0 0 22.982 7.899c3.124 0 6.259-.4 9.313-1.18a37.2 37.2 0 0 0 13.203-6.317 37.275 37.275 0 0 0 9.755-10.927 37.358 37.358 0 0 0 4.072-28.456 37.528 37.528 0 0 0-13.31-20.369 37.4 37.4 0 0 0-22.983-7.897Z"
            fill="#F26522" />
        <path
            d="M152.43 52.347v.02l.02.98-.818-.16-.03-1.37.369-.82 4.262 1.87-.419.97-3.384-1.49Zm4.152-4.91c1.228.74 1.777 1.76 1.168 2.77-.619 1.04-1.816.93-2.954.26-1.158-.7-1.777-1.74-1.158-2.77.639-1.07 1.846-.92 2.944-.26Zm-1.227 2.1c.918.55 1.497.59 1.697.23.219-.37-.11-.84-1.019-1.39-.888-.53-1.467-.62-1.696-.24-.2.34.089.83 1.018 1.4Zm3.763-5.371c1.128.9 1.547 1.97.798 2.9-.738.95-1.916.7-2.954-.13-1.068-.84-1.547-1.94-.799-2.89.779-.98 1.957-.67 2.955.12Zm-1.478 1.92c.839.66 1.398.78 1.657.45.26-.33-.01-.84-.848-1.5-.809-.64-1.377-.81-1.647-.47-.24.31-.02.84.838 1.52Zm3.055-4.921c.659.73.549 1.53.05 1.98-.529.48-1.298.46-1.897-.2-.549-.6-.599-1.42 0-1.96.589-.54 1.318-.4 1.847.19v-.01Zm-1.258 1.23c.33.36.699.51.928.3.22-.21.12-.55-.229-.94-.32-.35-.659-.54-.918-.3-.24.21-.1.59.219.94Zm2.655 2.16-1.247-5.38.429-.39 1.248 5.38-.43.4v-.01Zm2.396-4.2c.649.71.539 1.51.04 1.97-.519.47-1.298.45-1.877-.2-.559-.62-.609-1.43-.02-1.96.599-.54 1.318-.4 1.857.19Zm-1.258 1.2c.32.37.689.52.919.31.219-.2.119-.54-.23-.93-.319-.35-.659-.54-.898-.31-.25.22-.1.59.209.94v-.01Zm7.207-3.32c-.24.26-.719.71-1.278 1.02-.768.44-1.427.55-2.026.4a2.423 2.423 0 0 1-1.457-1.21c-.779-1.401-.2-2.781 1.178-3.561.549-.3 1.028-.43 1.287-.45l.23.88c-.3.02-.619.1-1.078.37-.799.44-1.158 1.23-.639 2.15.489.88 1.318 1.08 2.096.64.22-.12.379-.24.439-.32l-.499-.89-.649.37-.419-.75 1.577-.88 1.238 2.23Zm.08-5.012.958 2.62c.3.781.739 1.071 1.258.881.539-.2.698-.68.399-1.5l-.948-2.6 1.018-.381.938 2.55c.509 1.4.05 2.331-1.138 2.771-1.148.42-2.046.02-2.575-1.42l-.928-2.54 1.028-.38h-.01Zm5.749 1.98-.1 1.28-1.098.231.47-5.041 1.397-.3 2.456 4.45-1.158.24-.619-1.14-1.348.28Zm1.028-1.06-.499-.94-.429-.87h-.01c-.01.3-.01.68-.03.97l-.07 1.06 1.038-.22Zm2.286-3.12c.35-.08.859-.15 1.448-.19.718-.04 1.227.04 1.587.3.299.2.489.54.509.98.04.61-.37 1.06-.779 1.24v.02c.349.12.549.42.699.86.18.54.359 1.16.469 1.35l-1.118.06a6.416 6.416 0 0 1-.399-1.1c-.17-.6-.39-.75-.839-.73l-.319.02.11 1.9-1.078.06-.29-4.77Zm1.208 2.02.429-.03c.549-.03.849-.32.829-.75-.03-.43-.34-.64-.849-.61-.259.01-.409.03-.489.06l.08 1.33Zm4.452 1.41-.449 1.2-1.118-.09 1.876-4.7 1.428.12 1.088 4.96-1.178-.1-.27-1.27-1.377-.12Zm1.297-.71-.219-1.05-.16-.95h-.02l-.299.9-.37 1 1.068.1Zm1.977 2.29 1.158-4.7 1.237.3.559 1.96c.15.57.28 1.22.37 1.8h.01c.099-.63.229-1.27.399-1.98l.339-1.37.969.24-1.148 4.701-1.118-.27-.559-2.06c-.15-.57-.32-1.26-.4-1.86h-.029c-.12.63-.27 1.3-.46 2.06l-.349 1.42-.978-.24Zm6.957-2.06-1.198-.49.34-.85 3.443 1.4-.349.85-1.218-.5-1.467 3.641-1.008-.4 1.467-3.65h-.01Zm4.661 4.371-1.547-.87-.559 1 1.727.98-.429.78-2.695-1.5 2.366-4.23 2.595 1.46-.439.78-1.647-.92-.489.88 1.557.87-.44.77Zm3.215 2.29-1.438-1.06-.679.93 1.598 1.181-.52.72-2.485-1.83 2.865-3.901 2.395 1.77-.529.72-1.517-1.12-.599.81 1.438 1.06-.529.72Zm7.406 36.989 1.188-3.241.858.3-.379 1.04 2.595.95.369-1.03.799.29c-.05.15-.1.3-.13.46-.04.16-.05.29-.04.4.01.12.06.23.12.32.07.09.17.16.3.22l-.4 1.07-4.052-1.48-.37 1.01-.858-.31Zm.17 5.29c-.4-.22-.729-.44-.998-.67a2.29 2.29 0 0 1-.569-.7 1.499 1.499 0 0 1-.16-.8c.02-.28.12-.58.299-.9.17-.33.37-.57.599-.74.22-.17.469-.27.749-.3.279-.03.579 0 .908.1.33.1.699.25 1.088.46.399.23.729.45.988.67.25.21.44.45.569.71.13.26.18.52.15.8-.02.29-.12.58-.279.9-.18.32-.39.57-.609.74-.22.16-.479.26-.759.29-.279.03-.579 0-.908-.1-.33-.1-.689-.25-1.068-.46Zm.619-1.16c.568.3.998.48 1.277.51.28.03.479-.06.599-.29.12-.22.09-.44-.1-.66a3.975 3.975 0 0 0-1.118-.79 3.982 3.982 0 0 0-1.257-.5c-.29-.04-.489.06-.599.28-.13.22-.1.44.09.66.179.22.549.48 1.108.8v-.01Zm-3.454 5.022a5.724 5.724 0 0 1-.879-.8 2.31 2.31 0 0 1-.469-.8 1.511 1.511 0 0 1-.04-.801c.06-.27.2-.56.42-.85.229-.3.459-.5.698-.64.25-.14.519-.2.799-.19.279.01.569.1.878.24.31.14.649.35.998.62.38.28.669.54.899.8.209.25.359.51.449.79.09.27.1.54.04.82-.07.27-.2.55-.419.83-.23.3-.459.52-.709.65-.25.13-.509.19-.799.17a2.303 2.303 0 0 1-.878-.23 5.644 5.644 0 0 1-.998-.61h.01Zm.788-1.05c.351.295.749.529 1.178.69.27.07.489 0 .639-.2.15-.2.15-.42 0-.66a3.999 3.999 0 0 0-.988-.95c-.499-.391-.898-.621-1.168-.691-.279-.07-.499-.01-.639.19-.159.2-.159.42 0 .67.14.25.469.56.978.95Zm-7.885 6.28c-.379-.43-.559-.84-.549-1.23 0-.38.2-.73.569-1.06.379-.33.758-.47 1.138-.43.379.05.748.28 1.128.72.379.43.559.84.539 1.22 0 .39-.2.74-.579 1.07-.38.33-.759.47-1.128.42-.379-.05-.749-.28-1.118-.7v-.01Zm.749-.66.279.29a.987.987 0 0 0 .26.18.396.396 0 0 0 .239.04.501.501 0 0 0 .23-.13.481.481 0 0 0 .159-.22.426.426 0 0 0 0-.24.962.962 0 0 0-.149-.28 4.01 4.01 0 0 0-.529-.62.903.903 0 0 0-.25-.17.407.407 0 0 0-.239-.04.496.496 0 0 0-.24.13.481.481 0 0 0-.16.21.426.426 0 0 0 0 .25c.111.215.245.416.4.6Zm3.204 2.02-1.358-5.74.699-.61 1.357 5.74-.698.6v.01Zm.998-2.99c-.37-.43-.559-.84-.549-1.22.01-.39.199-.74.569-1.06.379-.33.758-.48 1.138-.43.379.04.758.28 1.128.71.379.43.559.84.549 1.23-.01.38-.2.74-.579 1.06-.38.33-.759.47-1.138.43-.37-.05-.739-.29-1.108-.72h-.01Zm.758-.66.27.3c.077.07.165.127.259.17a.4.4 0 0 0 .24.04.505.505 0 0 0 .24-.13.491.491 0 0 0 .159-.21.435.435 0 0 0-.01-.25.961.961 0 0 0-.149-.28 3.712 3.712 0 0 0-.519-.62.947.947 0 0 0-.26-.17.4.4 0 0 0-.24-.04.497.497 0 0 0-.239.13.483.483 0 0 0-.15.21.426.426 0 0 0 0 .25c.03.08.07.17.14.27.06.1.15.2.259.33Zm-12.706 4.181a5.35 5.35 0 0 1 1.347-.93c.799-.37 1.478-.43 2.057-.23.578.2 1.058.68 1.357 1.32.659 1.47-.02 2.8-1.457 3.46-.569.26-1.058.35-1.318.35l-.16-.9c.3 0 .619-.06 1.098-.28.839-.38 1.258-1.14.819-2.1-.419-.91-1.238-1.18-2.056-.8-.22.1-.39.21-.45.28l.42.93.678-.32.36.78-1.637.75-1.058-2.31Zm-.479 4.981-.749-2.68c-.23-.81-.649-1.14-1.188-.99-.549.16-.748.63-.509 1.46l.739 2.68-1.048.3-.729-2.62c-.399-1.44.14-2.33 1.348-2.67 1.177-.33 2.046.14 2.455 1.62l.729 2.6-1.048.3Zm-5.57-2.42.19-1.28 1.117-.14-.858 4.99-1.427.18-2.097-4.62 1.178-.15.519 1.19 1.378-.17Zm-1.118.96.429.98.359.9h.01l.1-.96.17-1.05-1.068.13Zm-2.515 2.93c-.36.05-.879.09-1.458.08-.718-.02-1.218-.13-1.557-.41a1.226 1.226 0 0 1-.439-1.03c.01-.62.459-1.03.878-1.17v-.02c-.339-.15-.519-.47-.629-.92-.139-.55-.269-1.19-.359-1.38l1.118.03c.07.14.18.53.299 1.13.13.61.34.77.799.8h.319l.03-1.9 1.088.01-.099 4.78h.01Zm-1.049-2.1-.429-.01c-.549-.01-.878.26-.878.68-.01.44.289.67.788.68.26 0 .42 0 .499-.02l.02-1.33Zm-4.332-1.76.549-1.17 1.108.19-2.236 4.53-1.417-.23-.699-5.03 1.168.2.17 1.28 1.357.23Zm-1.337.6.13 1.07c.04.3.06.67.089.96h.01l.37-.88.449-.96-1.048-.18v-.01Zm-1.797-2.43-1.527 4.6-1.208-.4-.399-2c-.11-.58-.19-1.24-.23-1.83h-.01c-.139.62-.329 1.25-.559 1.95l-.439 1.33-.948-.31 1.517-4.601 1.098.36.389 2.1c.1.58.22 1.28.26 1.89h.02c.17-.62.369-1.27.619-2.02l.459-1.39.958.32Zm-7.107 1.5 1.178.58-.419.82-3.324-1.66.409-.82 1.188.59 1.747-3.511.978.49-1.757 3.5v.01Zm-4.292-4.742 1.477 1 .639-.96-1.647-1.1.499-.75 2.556 1.71-2.695 4.031-2.466-1.66.499-.75 1.567 1.06.559-.84-1.477-1 .489-.74Zm-3.024-2.52 1.347 1.16.749-.87-1.497-1.3.578-.68 2.336 2.02-3.164 3.66-2.256-1.95.599-.68 1.417 1.24.659-.76-1.347-1.17.579-.67Zm40.385-4.941a26.05 26.05 0 0 0 7.608-18.404 26.05 26.05 0 0 0-7.608-18.404 25.93 25.93 0 0 0-36.732 0 26.055 26.055 0 0 0-7.608 18.404 26.055 26.055 0 0 0 7.608 18.404 25.947 25.947 0 0 0 18.366 7.623 25.945 25.945 0 0 0 18.366-7.623Z"
            fill="#fff" />
        <path
            d="M183.363 93.336a27.492 27.492 0 0 1-16.849-5.741 27.681 27.681 0 0 1-8.852-11.635 27.744 27.744 0 0 1-1.699-14.53 27.704 27.704 0 0 1 3.574-10.033 27.647 27.647 0 0 1 10.119-9.992 27.574 27.574 0 0 1 13.737-3.63 27.493 27.493 0 0 1 16.859 5.75 27.664 27.664 0 0 1 9.982 15.154 27.653 27.653 0 0 1-3.015 21.034 27.639 27.639 0 0 1-7.213 8.075 27.587 27.587 0 0 1-9.755 4.678 28.26 28.26 0 0 1-6.888.87Zm.04-55.082a27.22 27.22 0 0 0-11.976 2.785 27.284 27.284 0 0 0-9.539 7.774 27.361 27.361 0 0 0-4.896 23.498 27.267 27.267 0 0 0 9.669 14.805 27.175 27.175 0 0 0 16.702 5.74 27.222 27.222 0 0 0 11.973-2.789 27.273 27.273 0 0 0 9.535-7.774 27.355 27.355 0 0 0 5.159-11.18 27.388 27.388 0 0 0-.265-12.314 27.27 27.27 0 0 0-9.666-14.802 27.174 27.174 0 0 0-16.696-5.743Z"
            fill="#fff" />
        <path
            d="m177.474 41.505 1.897 2.22 2.894-.3-1.507 2.49 1.188 2.672-2.845-.68-2.166 1.96-.229-2.91-2.536-1.461 2.695-1.13.599-2.861h.01Zm7.257 1.2 1.178 1.37 1.786-.19-.938 1.54.739 1.651-1.757-.42-1.338 1.2-.139-1.79-1.567-.9 1.666-.7.37-1.76Zm-13.695 3.341 1.168 1.37 1.796-.2-.938 1.55.729 1.64-1.747-.41-1.337 1.201-.15-1.8-1.557-.9 1.667-.69.369-1.761Zm17.268 34.627 1.897 2.23 2.904-.31-1.517 2.501 1.198 2.67-2.845-.68-2.166 1.961-.239-2.91-2.536-1.46 2.695-1.131.609-2.86v-.01Zm7.267 1.21 1.168 1.37 1.796-.2-.938 1.551.729 1.65-1.747-.42-1.338 1.2-.149-1.8-1.557-.9 1.657-.68.379-1.77Zm-13.705 3.341 1.178 1.37 1.797-.2-.949 1.54.739 1.651-1.757-.42-1.337 1.21-.14-1.8-1.557-.9 1.657-.69.369-1.76ZM135.741 62c-4.123 5.541-5.85 11.333-4.482 16.704 1.377 5.381 5.67 9.622 11.938 12.502l88.058-22.564c4.123-5.551 5.86-11.333 4.492-16.704-1.377-5.38-5.669-9.622-11.948-12.502l-88.058 22.564Z"
            fill="#F26522" />
        <path
            d="m143.167 91.525-.1-.05c-6.558-3.01-10.75-7.401-12.098-12.702-1.347-5.281.22-11.142 4.532-16.954l.07-.09.1-.02 88.158-22.595.1.04c6.568 3.021 10.75 7.412 12.098 12.703 1.357 5.291-.22 11.153-4.532 16.964l-.06.08-.1.03-88.168 22.594ZM135.92 62.26c-4.152 5.632-5.669 11.293-4.372 16.374 1.298 5.08 5.341 9.322 11.679 12.262l87.849-22.514c4.162-5.632 5.669-11.293 4.382-16.374-1.298-5.08-5.341-9.322-11.679-12.262L135.91 62.269l.01-.01Z"
            fill="#F26522" />
        <path
            d="m144.644 88.965-.1-.04c-6.168-2.48-10.051-6.201-11.219-10.792-1.168-4.581.449-9.712 4.671-14.863l.07-.08.1-.02 84.046-21.545.1.04c6.168 2.48 10.041 6.211 11.219 10.792 1.168 4.581-.449 9.722-4.681 14.863l-.06.08-.1.02-84.046 21.545Zm-6.238-25.235c-4.063 4.96-5.61 9.902-4.492 14.253 1.098 4.37 4.831 7.941 10.77 10.352L228.45 66.87c4.053-4.97 5.61-9.902 4.492-14.263-1.108-4.36-4.831-7.941-10.78-10.352L138.406 63.73Z"
            fill="#fff" />
        <path
            d="M145.992 81.674c-.619.16-1.188.2-1.697.12a6.621 6.621 0 0 1-1.497-.4l-.819-3.201.19-.05c.549.47 1.098.8 1.677.98.559.18 1.068.21 1.527.1.12-.04.269-.1.449-.19a1.165 1.165 0 0 0 .649-.83c.05-.21.04-.47-.04-.77a1.365 1.365 0 0 0-1.128-1.07 9.14 9.14 0 0 0-.968-.12 5.27 5.27 0 0 1-.978-.17c-.719-.2-1.298-.59-1.717-1.141a6.006 6.006 0 0 1-.998-2.22 4.814 4.814 0 0 1 .169-3.301 3.086 3.086 0 0 1 2.096-1.79 4.833 4.833 0 0 1 2.935.2l.789 3.08-.18.05a4.396 4.396 0 0 0-1.378-.8 2.39 2.39 0 0 0-1.437-.1c-.18.04-.329.1-.459.18-.13.08-.26.2-.379.36-.1.13-.18.3-.22.5-.05.22-.04.45.02.68.09.34.23.6.429.76.2.17.529.27.988.33l.859.1c.269.03.579.1.898.19.649.2 1.178.54 1.597 1.04.419.501.749 1.211.988 2.141.34 1.34.3 2.5-.119 3.471a3.152 3.152 0 0 1-2.246 1.87Zm3.603-1.18-.709-14.144 2.206-.56 6.159 12.743-2.096.53-1.198-2.61-2.525.64.199 2.88-2.036.52Zm3.294-6.372-1.946-4.221.299 4.641 1.657-.42h-.01Zm6.708 3.8-2.775-10.872-2.386.61-.649-2.56 6.788-1.74.649 2.56-2.376.61 2.775 10.883-2.026.51Zm9.253-2.37-4.342 1.12-.599-2.35 1.158-.3-2.226-8.742-1.158.3-.599-2.35 4.342-1.11.599 2.34-1.158.3 2.226 8.752 1.158-.3.599 2.34Zm3.893-.73c-.553.15-1.13.187-1.697.11a6.683 6.683 0 0 1-1.497-.4l-.809-3.2.18-.04c.549.46 1.108.79 1.677.97.569.18 1.078.21 1.537.1.11-.03.259-.1.439-.18a1.177 1.177 0 0 0 .659-.84c.05-.2.03-.46-.04-.76a1.373 1.373 0 0 0-1.138-1.081c-.299-.05-.629-.08-.968-.11a5.105 5.105 0 0 1-.978-.18c-.709-.2-1.288-.58-1.717-1.13a5.999 5.999 0 0 1-.998-2.23 4.809 4.809 0 0 1 .179-3.301 3.083 3.083 0 0 1 2.096-1.78 4.823 4.823 0 0 1 2.935.2l.779 3.08-.18.04a4.389 4.389 0 0 0-1.368-.8c-.499-.18-.998-.22-1.447-.1a1.434 1.434 0 0 0-.838.54c-.1.13-.17.3-.22.52-.04.2-.03.43.03.67.08.34.229.6.419.76.2.16.529.27.998.33l.849.1c.279.03.579.09.898.19.659.19 1.188.53 1.597 1.03.419.5.749 1.22.998 2.15.33 1.341.3 2.491-.129 3.462a3.155 3.155 0 0 1-2.246 1.88Zm7.097-13.673-3.394.87.659 2.54 3.104-.8.659 2.561-3.115.8 1.478 5.782-2.017.51-3.433-13.443 5.4-1.38.659 2.56Zm2.954 10.832-.708-14.132 2.205-.57 6.149 12.742-2.076.54-1.198-2.62-2.545.65.2 2.87-2.027.52Zm3.294-6.36-1.946-4.222.299 4.641 1.647-.42Zm8.704 3.57c-1.218.3-2.326-.06-3.354-1.1-1.018-1.03-1.806-2.65-2.375-4.861-.539-2.13-.619-3.921-.23-5.371.389-1.45 1.188-2.331 2.396-2.631a3.966 3.966 0 0 1 1.697-.07c.199.04.429.11.688.21.26.1.47.2.629.27l.819 3.2-.2.06-.499-.42c-.2-.17-.429-.32-.659-.47a3.195 3.195 0 0 0-.748-.33 1.397 1.397 0 0 0-.759-.02c-.299.07-.539.22-.749.44-.199.21-.369.54-.489.97-.11.4-.159.9-.139 1.521.019.62.129 1.32.339 2.11.21.84.459 1.53.739 2.06.279.531.568.951.868 1.241.299.28.599.47.898.55a1.477 1.477 0 0 0 1.537-.39c.2-.2.36-.42.48-.64.129-.24.239-.47.329-.7l.23-.6.179-.05.799 3.16-.399.52a3.917 3.917 0 0 1-2.027 1.34Zm5.4-1.67-2.775-10.873-2.385.61-.649-2.56 6.788-1.74.648 2.56-2.375.61 2.775 10.882-2.027.51Zm9.253-2.371-4.342 1.11-.599-2.34 1.168-.3-2.236-8.742-1.158.3-.598-2.35 4.342-1.12.599 2.35-1.158.3 2.226 8.742 1.157-.3.599 2.35Zm6.968-8.942c.559 2.18.648 3.971.269 5.401-.379 1.42-1.178 2.29-2.396 2.6-1.207.31-2.325-.08-3.333-1.16-1.019-1.08-1.797-2.7-2.346-4.84-.549-2.16-.639-3.951-.27-5.382.37-1.44 1.168-2.3 2.386-2.62 1.208-.3 2.326.07 3.344 1.14 1.008 1.07 1.797 2.7 2.346 4.861Zm-2.097.53c-.199-.8-.419-1.47-.658-2a5.922 5.922 0 0 0-.759-1.29 2.076 2.076 0 0 0-.789-.64 1.165 1.165 0 0 0-1.357.33c-.16.2-.3.51-.379.94-.08.4-.1.89-.05 1.5.04.6.169 1.3.369 2.1.21.82.439 1.5.669 2.01.239.531.499.951.748 1.271.27.33.539.54.799.65.259.1.499.12.739.06.239-.06.449-.2.628-.43.18-.23.3-.55.38-.95.07-.44.09-.93.05-1.47-.04-.54-.17-1.24-.38-2.08h-.01Zm11.919 4.111-1.947.5-5.5-8.572 2.396 9.372-1.857.47-3.434-13.442 2.496-.63 4.532 7.041-1.967-7.702 1.847-.47 3.434 13.433Z"
            fill="#fff" />
    </g>
    <mask id="c" style="mask-type:alpha" maskUnits="userSpaceOnUse" x="235" y="21" width="116"
        height="116">
        <path fill="#C4C4C4" d="M235 21h116v116H235z" />
    </mask>
    <g mask="url(#c)">
        <path
            d="M305.856 94.546c-56.206 4.066-57.303-35.577-50.825-55.907.997 16.244 11.361 46.938 44.845 39.763l-4.185-14.052 41.855 12.258-28.103 32.588-3.587-14.65Z"
            fill="url(#d)" />
        <g filter="url(#e)">
            <path
                d="M307.016 92.549c-47.256 3.375-57.611-27.763-52.165-44.642-.974 13.454 18.118 44.642 47.137 31.238l-3.519-11.666 35.191 10.177-23.628 27.055-3.016-12.162Z"
                stroke="url(#f)" stroke-width="2" />
        </g>
    </g>
    <defs>
        <linearGradient id="d" x1="294.939" y1="38.639" x2="294.939" y2="109.196"
            gradientUnits="userSpaceOnUse">
            <stop offset=".477" stop-color="#FF7B10" />
            <stop offset="1" stop-color="#F8A357" />
        </linearGradient>
        <linearGradient id="f" x1="293.598" y1="47.907" x2="293.598" y2="104.711"
            gradientUnits="userSpaceOnUse">
            <stop offset=".152" stop-color="#fff" stop-opacity="0" />
            <stop offset=".33" stop-color="#fff" />
        </linearGradient>
        <filter id="e" x="249.536" y="44.6" width="88.91" height="65.214"
            filterUnits="userSpaceOnUse" color-interpolation-filters="sRGB">
            <feFlood flood-opacity="0" result="BackgroundImageFix" />
            <feBlend in="SourceGraphic" in2="BackgroundImageFix" result="shape" />
            <feGaussianBlur stdDeviation="1.5" result="effect1_foregroundBlur_2_9966" />
        </filter>
    </defs>
</svg>