<svg xmlns="http://www.w3.org/2000/svg" width="83" height="51" viewBox="0 0 83 51" fill="none">
    <g clip-path="url(#clip0_1_7363)">
        <path d="M0 0V51H83V0H0Z" fill="#002395" />
        <path d="M0 0V25.5H83V0H0Z" fill="#DE3831" />
        <path d="M0 0L41.5 25.5L0 51M41.5 25.5H83Z" fill="black" />
        <path d="M0 0L41.5 25.5L0 51M41.5 25.5H83" stroke="white" stroke-width="18.4444" />
        <path d="M0 0L41.5 25.5L0 51" fill="black" />
        <path d="M0 0L41.5 25.5L0 51" stroke="#FFB612" stroke-width="18.4444" />
        <path fill-rule="evenodd" clip-rule="evenodd"
            d="M37.6006 26.0525L10.8562 0H18.6227L60.4882 25.5L17.6345 51H0.942278L37.6006 26.0525Z"
            fill="white" />
        <path d="M0 0L41.5 25.5M41.5 25.5L0 51M41.5 25.5H83" stroke="#007A4D" stroke-width="11.0667" />
    </g>
    <defs>
        <clipPath id="clip0_1_7363">
            <rect width="83" height="51" fill="white" />
        </clipPath>
    </defs>
</svg>